Blinker-ExtraBold.ufo
<glyph name="exclam" format="1">
  <advance width="258"/>
  <unicode hex="0021"/>
  <outline>
    <contour>
      <point x="27" y="627" type="line"/>
      <point x="231" y="627" type="line"/>
      <point x="209" y="215" type="line"/>
      <point x="50" y="215" type="line"/>
    </contour>
    <contour>
      <point x="221" y="158" type="line"/>
      <point x="221" y="0" type="line"/>
      <point x="37" y="0" type="line"/>
      <point x="37" y="158" type="line"/>
    </contour>
  </outline>
</glyph>
<glyph name="quotedbl" format="1">
  <advance width="330"/>
  <unicode hex="0022"/>
  <outline>
    <contour>
      <point x="26" y="627" type="line"/>
      <point x="138" y="627" type="line"/>
      <point x="138" y="399" type="line"/>
      <point x="26" y="399" type="line"/>
    </contour>
    <contour>
      <point x="191" y="627" type="line"/>
      <point x="304" y="627" type="line"/>
      <point x="304" y="399" type="line"/>
      <point x="191" y="399" type="line"/>
    </contour>
  </outline>
</glyph>
<glyph name="numbersign" format="1">
  <advance width="549"/>
  <unicode hex="0023"/>
  <outline>
    <contour>
      <point x="534" y="493" type="line"/>
      <point x="534" y="377" type="line"/>
      <point x="445" y="377" type="line"/>
      <point x="428" y="260" type="line"/>
      <point x="499" y="260" type="line"/>
      <point x="499" y="144" type="line"/>
      <point x="409" y="144" type="line"/>
      <point x="385" y="0" type="line"/>
      <point x="265" y="0" type="line"/>
      <point x="288" y="144" type="line"/>
      <point x="208" y="144" type="line"/>
      <point x="185" y="0" type="line"/>
      <point x="64" y="0" type="line"/>
      <point x="88" y="144" type="line"/>
      <point x="15" y="144" type="line"/>
      <point x="15" y="260" type="line"/>
      <point x="106" y="260" type="line"/>
      <point x="124" y="377" type="line"/>
      <point x="50" y="377" type="line"/>
      <point x="50" y="493" type="line"/>
      <point x="145" y="493" type="line"/>
      <point x="168" y="627" type="line"/>
      <point x="288" y="627" type="line"/>
      <point x="266" y="493" type="line"/>
      <point x="344" y="493" type="line"/>
      <point x="368" y="627" type="line"/>
      <point x="488" y="627" type="line"/>
      <point x="466" y="493" type="line"/>
    </contour>
    <contour>
      <point x="306" y="260" type="line"/>
      <point x="324" y="377" type="line"/>
      <point x="246" y="377" type="line"/>
      <point x="227" y="260" type="line"/>
    </contour>
  </outline>
</glyph>
<glyph name="dollar" format="1">
  <advance width="484"/>
  <unicode hex="0024"/>
  <outline>
    <contour>
      <point x="261" y="228" type="qcurve"/>
      <point x="161" y="253" type="line" smooth="yes"/>
      <point x="82" y="273"/>
      <point x="23" y="352"/>
      <point x="23" y="423" type="qcurve"/>
      <point x="23" y="517"/>
      <point x="104" y="619"/>
      <point x="190" y="632" type="qcurve"/>
      <point x="190" y="716" type="line"/>
      <point x="289" y="716" type="line"/>
      <point x="289" y="637" type="line"/>
      <point x="330" y="636"/>
      <point x="396" y="627"/>
      <point x="421" y="619" type="qcurve"/>
      <point x="421" y="454" type="line"/>
      <point x="358" y="465"/>
      <point x="294" y="471"/>
      <point x="260" y="471" type="qcurve" smooth="yes"/>
      <point x="229" y="471"/>
      <point x="202" y="453"/>
      <point x="202" y="432" type="qcurve"/>
      <point x="202" y="421"/>
      <point x="212" y="411"/>
      <point x="227" y="407" type="qcurve"/>
      <point x="323" y="382" type="line" smooth="yes"/>
      <point x="377" y="368"/>
      <point x="423" y="344"/>
      <point x="438" y="327" type="qcurve" smooth="yes"/>
      <point x="454" y="307"/>
      <point x="469" y="246"/>
      <point x="469" y="202" type="qcurve"/>
      <point x="469" y="104"/>
      <point x="381" y="5"/>
      <point x="289" y="-6" type="qcurve"/>
      <point x="289" y="-89" type="line"/>
      <point x="190" y="-89" type="line"/>
      <point x="190" y="-9" type="line"/>
      <point x="138" y="-7"/>
      <point x="49" y="6"/>
      <point x="26" y="15" type="qcurve"/>
      <point x="26" y="189" type="line"/>
      <point x="62" y="177"/>
      <point x="173" y="161"/>
      <point x="228" y="161" type="qcurve"/>
      <point x="262" y="161"/>
      <point x="289" y="177"/>
      <point x="289" y="198" type="qcurve"/>
      <point x="289" y="211"/>
      <point x="280" y="223"/>
    </contour>
  </outline>
</glyph>
<glyph name="percent" format="1">
  <advance width="685"/>
  <unicode hex="0025"/>
  <outline>
    <contour>
      <point x="294" y="477" type="qcurve"/>
      <point x="294" y="393"/>
      <point x="229" y="320"/>
      <point x="155" y="320" type="qcurve"/>
      <point x="80" y="320"/>
      <point x="13" y="394"/>
      <point x="13" y="477" type="qcurve"/>
      <point x="13" y="561"/>
      <point x="80" y="635"/>
      <point x="155" y="635" type="qcurve"/>
      <point x="229" y="635"/>
      <point x="294" y="562"/>
    </contour>
    <contour>
      <point x="552" y="627" type="line"/>
      <point x="252" y="0" type="line"/>
      <point x="134" y="0" type="line"/>
      <point x="434" y="627" type="line"/>
    </contour>
    <contour>
      <point x="183" y="477" type="qcurve"/>
      <point x="183" y="514"/>
      <point x="171" y="541"/>
      <point x="155" y="541" type="qcurve"/>
      <point x="138" y="541"/>
      <point x="126" y="514"/>
      <point x="126" y="477" type="qcurve"/>
      <point x="126" y="444"/>
      <point x="139" y="419"/>
      <point x="155" y="419" type="qcurve"/>
      <point x="171" y="419"/>
      <point x="183" y="444"/>
    </contour>
    <contour>
      <point x="672" y="151" type="qcurve"/>
      <point x="672" y="67"/>
      <point x="607" y="-7"/>
      <point x="532" y="-7" type="qcurve"/>
      <point x="457" y="-7"/>
      <point x="391" y="67"/>
      <point x="391" y="151" type="qcurve"/>
      <point x="391" y="234"/>
      <point x="457" y="308"/>
      <point x="532" y="308" type="qcurve"/>
      <point x="607" y="308"/>
      <point x="672" y="235"/>
    </contour>
    <contour>
      <point x="561" y="151" type="qcurve"/>
      <point x="561" y="186"/>
      <point x="548" y="214"/>
      <point x="532" y="214" type="qcurve"/>
      <point x="516" y="214"/>
      <point x="503" y="186"/>
      <point x="503" y="151" type="qcurve"/>
      <point x="503" y="118"/>
      <point x="516" y="92"/>
      <point x="532" y="92" type="qcurve"/>
      <point x="548" y="92"/>
      <point x="561" y="118"/>
    </contour>
  </outline>
</glyph>
<glyph name="ampersand" format="1">
  <advance width="666"/>
  <unicode hex="0026"/>
  <outline>
    <contour>
      <point x="564" y="234" type="line"/>
      <point x="564" y="58" type="line"/>
      <point x="537" y="30"/>
      <point x="396" y="-11"/>
      <point x="320" y="-11" type="qcurve"/>
      <point x="164" y="-11"/>
      <point x="20" y="150"/>
      <point x="20" y="324" type="qcurve"/>
      <point x="20" y="477"/>
      <point x="164" y="637"/>
      <point x="301" y="637" type="qcurve"/>
      <point x="406" y="637"/>
      <point x="519" y="539"/>
      <point x="519" y="449" type="qcurve" smooth="yes"/>
      <point x="519" y="431"/>
      <point x="512" y="397"/>
      <point x="506" y="381" type="qcurve"/>
      <point x="659" y="381" type="line"/>
      <point x="659" y="234" type="line"/>
    </contour>
    <contour>
      <point x="348" y="434" type="qcurve" smooth="yes"/>
      <point x="348" y="456"/>
      <point x="318" y="479"/>
      <point x="289" y="479" type="qcurve"/>
      <point x="246" y="479"/>
      <point x="209" y="429"/>
      <point x="207" y="366" type="qcurve"/>
      <point x="281" y="369"/>
      <point x="348" y="400"/>
    </contour>
    <contour>
      <point x="322" y="154" type="qcurve" smooth="yes"/>
      <point x="345" y="154"/>
      <point x="386" y="160"/>
      <point x="392" y="164" type="qcurve"/>
      <point x="392" y="279" type="line"/>
      <point x="356" y="264"/>
      <point x="266" y="247"/>
      <point x="214" y="245" type="qcurve"/>
      <point x="223" y="196"/>
      <point x="272" y="154"/>
    </contour>
  </outline>
</glyph>
<glyph name="parenleft" format="1">
  <advance width="217"/>
  <unicode hex="0028"/>
  <outline>
    <contour>
      <point x="142" y="313" type="qcurve"/>
      <point x="142" y="207"/>
      <point x="175" y="11"/>
      <point x="205" y="-51" type="qcurve"/>
      <point x="112" y="-80" type="line"/>
      <point x="67" y="-1"/>
      <point x="20" y="201"/>
      <point x="20" y="313" type="qcurve"/>
      <point x="20" y="430"/>
      <point x="67" y="631"/>
      <point x="112" y="707" type="qcurve"/>
      <point x="203" y="678" type="line"/>
      <point x="174" y="618"/>
      <point x="142" y="425"/>
    </contour>
  </outline>
</glyph>
<glyph name="parenright" format="1">
  <advance width="217"/>
  <unicode hex="0029"/>
  <outline>
    <contour>
      <point x="75" y="313" type="qcurve"/>
      <point x="75" y="425"/>
      <point x="43" y="618"/>
      <point x="14" y="678" type="qcurve"/>
      <point x="105" y="707" type="line"/>
      <point x="150" y="631"/>
      <point x="197" y="430"/>
      <point x="197" y="313" type="qcurve"/>
      <point x="197" y="201"/>
      <point x="150" y="-1"/>
      <point x="105" y="-80" type="qcurve"/>
      <point x="12" y="-51" type="line"/>
      <point x="42" y="11"/>
      <point x="75" y="207"/>
    </contour>
  </outline>
</glyph>
<glyph name="asterisk" format="1">
  <advance width="365"/>
  <unicode hex="002A"/>
  <outline>
    <contour>
      <point x="261" y="442" type="line"/>
      <point x="322" y="367" type="line"/>
      <point x="233" y="303" type="line"/>
      <point x="183" y="383" type="line"/>
      <point x="130" y="303" type="line"/>
      <point x="43" y="369" type="line"/>
      <point x="104" y="440" type="line"/>
      <point x="11" y="466" type="line"/>
      <point x="47" y="569" type="line"/>
      <point x="133" y="532" type="line"/>
      <point x="126" y="627" type="line"/>
      <point x="235" y="627" type="line"/>
      <point x="229" y="533" type="line"/>
      <point x="319" y="568" type="line"/>
      <point x="353" y="465" type="line"/>
    </contour>
  </outline>
</glyph>
<glyph name="plus" format="1">
  <advance width="500"/>
  <unicode hex="002B"/>
  <outline>
    <contour>
      <point x="463" y="398" type="line"/>
      <point x="463" y="246" type="line"/>
      <point x="329" y="246" type="line"/>
      <point x="329" y="110" type="line"/>
      <point x="172" y="110" type="line"/>
      <point x="172" y="246" type="line"/>
      <point x="37" y="246" type="line"/>
      <point x="37" y="398" type="line"/>
      <point x="172" y="398" type="line"/>
      <point x="172" y="532" type="line"/>
      <point x="329" y="532" type="line"/>
      <point x="329" y="398" type="line"/>
    </contour>
  </outline>
</glyph>
<glyph name="comma" format="1">
  <advance width="208"/>
  <unicode hex="002C"/>
  <outline>
    <contour>
      <point x="194" y="162" type="line"/>
      <point x="162" y="-27" type="line" smooth="yes"/>
      <point x="157" y="-54"/>
      <point x="118" y="-86"/>
      <point x="89" y="-86" type="qcurve"/>
      <point x="24" y="-86" type="line"/>
      <point x="24" y="162" type="line"/>
    </contour>
  </outline>
</glyph>
<glyph name="hyphen" format="1">
  <advance width="371"/>
  <unicode hex="002D"/>
  <outline>
    <contour>
      <point x="345" y="386" type="line"/>
      <point x="345" y="251" type="line"/>
      <point x="26" y="251" type="line"/>
      <point x="26" y="386" type="line"/>
    </contour>
  </outline>
</glyph>
<glyph name="slash" format="1">
  <advance width="353"/>
  <unicode hex="002F"/>
  <outline>
    <contour>
      <point x="345" y="707" type="line"/>
      <point x="125" y="-80" type="line"/>
      <point x="10" y="-80" type="line"/>
      <point x="229" y="707" type="line"/>
    </contour>
  </outline>
</glyph>
<glyph name="zero" format="1">
  <advance width="570"/>
  <unicode hex="0030"/>
  <outline>
    <contour>
      <point x="544" y="314" type="qcurve"/>
      <point x="544" y="135"/>
      <point x="432" y="-11"/>
      <point x="285" y="-11" type="qcurve"/>
      <point x="195" y="-11"/>
      <point x="94" y="29"/>
      <point x="67" y="74" type="qcurve" smooth="yes"/>
      <point x="45" y="110"/>
      <point x="25" y="225"/>
      <point x="25" y="314" type="qcurve"/>
      <point x="25" y="491"/>
      <point x="138" y="637"/>
      <point x="285" y="637" type="qcurve"/>
      <point x="375" y="637"/>
      <point x="476" y="598"/>
      <point x="503" y="553" type="qcurve" smooth="yes"/>
      <point x="524" y="518"/>
      <point x="544" y="404"/>
    </contour>
    <contour>
      <point x="356" y="314" type="qcurve"/>
      <point x="356" y="411"/>
      <point x="330" y="469"/>
      <point x="285" y="469" type="qcurve"/>
      <point x="240" y="469"/>
      <point x="214" y="411"/>
      <point x="214" y="314" type="qcurve"/>
      <point x="214" y="219"/>
      <point x="240" y="163"/>
      <point x="285" y="163" type="qcurve"/>
      <point x="330" y="163"/>
      <point x="356" y="219"/>
    </contour>
  </outline>
</glyph>
<glyph name="two" format="1">
  <advance width="465"/>
  <unicode hex="0032"/>
  <outline>
    <contour>
      <point x="435" y="174" type="line"/>
      <point x="435" y="0" type="line"/>
      <point x="19" y="0" type="line"/>
      <point x="19" y="174" type="line"/>
      <point x="227" y="375" type="line" smooth="yes"/>
      <point x="243" y="390"/>
      <point x="257" y="418"/>
      <point x="257" y="435" type="qcurve"/>
      <point x="257" y="451"/>
      <point x="236" y="469"/>
      <point x="217" y="469" type="qcurve"/>
      <point x="187" y="469"/>
      <point x="99" y="460"/>
      <point x="47" y="451" type="qcurve"/>
      <point x="47" y="613" type="line"/>
      <point x="86" y="624"/>
      <point x="201" y="637"/>
      <point x="256" y="637" type="qcurve"/>
      <point x="342" y="637"/>
      <point x="439" y="549"/>
      <point x="439" y="472" type="qcurve"/>
      <point x="439" y="420"/>
      <point x="408" y="344"/>
      <point x="371" y="308" type="qcurve"/>
      <point x="236" y="174" type="line"/>
    </contour>
  </outline>
</glyph>
<glyph name="three" format="1">
  <advance width="457"/>
  <unicode hex="0033"/>
  <outline>
    <contour>
      <point x="414" y="474" type="qcurve"/>
      <point x="414" y="415"/>
      <point x="367" y="344"/>
      <point x="320" y="331" type="qcurve"/>
      <point x="320" y="329" type="line"/>
      <point x="377" y="325"/>
      <point x="435" y="250"/>
      <point x="435" y="181" type="qcurve"/>
      <point x="435" y="89"/>
      <point x="318" y="-11"/>
      <point x="213" y="-11" type="qcurve"/>
      <point x="154" y="-11"/>
      <point x="49" y="1"/>
      <point x="23" y="11" type="qcurve"/>
      <point x="23" y="167" type="line"/>
      <point x="56" y="161"/>
      <point x="133" y="156"/>
      <point x="188" y="156" type="qcurve"/>
      <point x="229" y="156"/>
      <point x="261" y="175"/>
      <point x="261" y="201" type="qcurve"/>
      <point x="261" y="223"/>
      <point x="234" y="244"/>
      <point x="206" y="244" type="qcurve"/>
      <point x="84" y="244" type="line"/>
      <point x="84" y="395" type="line"/>
      <point x="182" y="395" type="line"/>
      <point x="212" y="395"/>
      <point x="240" y="414"/>
      <point x="240" y="436" type="qcurve"/>
      <point x="240" y="459"/>
      <point x="214" y="476"/>
      <point x="183" y="476" type="qcurve"/>
      <point x="156" y="476"/>
      <point x="56" y="465"/>
      <point x="34" y="461" type="qcurve"/>
      <point x="34" y="611" type="line"/>
      <point x="65" y="622"/>
      <point x="185" y="637"/>
      <point x="239" y="637" type="qcurve"/>
      <point x="325" y="637"/>
      <point x="414" y="554"/>
    </contour>
  </outline>
</glyph>
<glyph name="four" format="1">
  <advance width="528"/>
  <unicode hex="0034"/>
  <outline>
    <contour>
      <point x="513" y="293" type="line"/>
      <point x="513" y="131" type="line"/>
      <point x="453" y="131" type="line"/>
      <point x="453" y="0" type="line"/>
      <point x="267" y="0" type="line"/>
      <point x="267" y="131" type="line"/>
      <point x="20" y="131" type="line"/>
      <point x="20" y="293" type="line"/>
      <point x="89" y="627" type="line"/>
      <point x="264" y="627" type="line"/>
      <point x="205" y="293" type="line"/>
      <point x="275" y="293" type="line"/>
      <point x="290" y="517" type="line"/>
      <point x="453" y="517" type="line"/>
      <point x="453" y="293" type="line"/>
    </contour>
  </outline>
</glyph>
<glyph name="five" format="1">
  <advance width="460"/>
  <unicode hex="0035"/>
  <outline>
    <contour>
      <point x="440" y="195" type="qcurve" smooth="yes"/>
      <point x="440" y="95"/>
      <point x="328" y="-11"/>
      <point x="226" y="-11" type="qcurve"/>
      <point x="159" y="-11"/>
      <point x="52" y="1"/>
      <point x="25" y="11" type="qcurve"/>
      <point x="25" y="171" type="line"/>
      <point x="61" y="165"/>
      <point x="136" y="159"/>
      <point x="184" y="159" type="qcurve"/>
      <point x="222" y="159"/>
      <point x="254" y="178"/>
      <point x="254" y="201" type="qcurve" smooth="yes"/>
      <point x="254" y="227"/>
      <point x="222" y="246"/>
      <point x="179" y="246" type="qcurve" smooth="yes"/>
      <point x="124" y="245"/>
      <point x="71" y="241"/>
      <point x="48" y="237" type="qcurve"/>
      <point x="48" y="627" type="line"/>
      <point x="400" y="627" type="line"/>
      <point x="400" y="459" type="line"/>
      <point x="234" y="459" type="line"/>
      <point x="234" y="384" type="line"/>
      <point x="246" y="385"/>
      <point x="277" y="387"/>
      <point x="290" y="387" type="qcurve" smooth="yes"/>
      <point x="369" y="387"/>
      <point x="440" y="294"/>
    </contour>
  </outline>
</glyph>
<glyph name="six" format="1">
  <advance width="512"/>
  <unicode hex="0036"/>
  <outline>
    <contour>
      <point x="271" y="-11" type="qcurve"/>
      <point x="133" y="-11"/>
      <point x="24" y="125"/>
      <point x="24" y="297" type="qcurve"/>
      <point x="24" y="470"/>
      <point x="173" y="637"/>
      <point x="329" y="637" type="qcurve"/>
      <point x="362" y="637"/>
      <point x="425" y="631"/>
      <point x="439" y="627" type="qcurve"/>
      <point x="439" y="473" type="line"/>
      <point x="401" y="477"/>
      <point x="358" y="479"/>
      <point x="336" y="479" type="qcurve"/>
      <point x="272" y="479"/>
      <point x="221" y="439"/>
      <point x="213" y="386" type="qcurve"/>
      <point x="241" y="401"/>
      <point x="300" y="416"/>
      <point x="332" y="416" type="qcurve"/>
      <point x="414" y="416"/>
      <point x="494" y="318"/>
      <point x="494" y="216" type="qcurve"/>
      <point x="494" y="108"/>
      <point x="377" y="-11"/>
    </contour>
    <contour>
      <point x="321" y="210" type="qcurve"/>
      <point x="321" y="245"/>
      <point x="299" y="272"/>
      <point x="267" y="272" type="qcurve"/>
      <point x="253" y="272"/>
      <point x="220" y="266"/>
      <point x="207" y="260" type="qcurve"/>
      <point x="208" y="188"/>
      <point x="230" y="147"/>
      <point x="266" y="147" type="qcurve"/>
      <point x="294" y="147"/>
      <point x="321" y="178"/>
    </contour>
  </outline>
</glyph>
<glyph name="seven" format="1">
  <advance width="453"/>
  <unicode hex="0037"/>
  <outline>
    <contour>
      <point x="437" y="627" type="line"/>
      <point x="437" y="459" type="line"/>
      <point x="218" y="0" type="line"/>
      <point x="8" y="0" type="line"/>
      <point x="238" y="459" type="line"/>
      <point x="24" y="459" type="line"/>
      <point x="24" y="627" type="line"/>
    </contour>
  </outline>
</glyph>
<glyph name="eight" format="1">
  <advance width="515"/>
  <unicode hex="0038"/>
  <outline>
    <contour>
      <point x="492" y="170" type="qcurve"/>
      <point x="492" y="75"/>
      <point x="380" y="-11"/>
      <point x="257" y="-11" type="qcurve"/>
      <point x="129" y="-11"/>
      <point x="23" y="72"/>
      <point x="23" y="172" type="qcurve"/>
      <point x="23" y="230"/>
      <point x="74" y="308"/>
      <point x="123" y="325" type="qcurve"/>
      <point x="77" y="343"/>
      <point x="33" y="413"/>
      <point x="34" y="469" type="qcurve"/>
      <point x="34" y="557"/>
      <point x="140" y="637"/>
      <point x="257" y="637" type="qcurve"/>
      <point x="380" y="637"/>
      <point x="481" y="560"/>
      <point x="481" y="467" type="qcurve"/>
      <point x="481" y="412"/>
      <point x="437" y="343"/>
      <point x="392" y="325" type="qcurve"/>
      <point x="441" y="309"/>
      <point x="492" y="229"/>
    </contour>
    <contour>
      <point x="318" y="440" type="qcurve"/>
      <point x="318" y="467"/>
      <point x="290" y="490"/>
      <point x="257" y="490" type="qcurve"/>
      <point x="225" y="490"/>
      <point x="197" y="467"/>
      <point x="197" y="441" type="qcurve"/>
      <point x="197" y="413"/>
      <point x="225" y="388"/>
      <point x="257" y="388" type="qcurve"/>
      <point x="289" y="388"/>
      <point x="318" y="413"/>
    </contour>
    <contour>
      <point x="320" y="196" type="qcurve"/>
      <point x="320" y="224"/>
      <point x="291" y="247"/>
      <point x="257" y="247" type="qcurve"/>
      <point x="223" y="247"/>
      <point x="195" y="224"/>
      <point x="195" y="196" type="qcurve"/>
      <point x="195" y="167"/>
      <point x="223" y="143"/>
      <point x="257" y="143" type="qcurve"/>
      <point x="291" y="143"/>
      <point x="320" y="167"/>
    </contour>
  </outline>
</glyph>
<glyph name="nine" format="1">
  <advance width="513"/>
  <unicode hex="0039"/>
  <outline>
    <contour>
      <point x="245" y="637" type="qcurve"/>
      <point x="382" y="637"/>
      <point x="489" y="502"/>
      <point x="489" y="330" type="qcurve"/>
      <point x="489" y="156"/>
      <point x="339" y="-10"/>
      <point x="183" y="-10" type="qcurve"/>
      <point x="151" y="-10"/>
      <point x="85" y="-5"/>
      <point x="71" y="-1" type="qcurve"/>
      <point x="71" y="155" type="line"/>
      <point x="93" y="152"/>
      <point x="146" y="149"/>
      <point x="177" y="149" type="qcurve"/>
      <point x="240" y="149"/>
      <point x="292" y="189"/>
      <point x="300" y="240" type="qcurve"/>
      <point x="270" y="226"/>
      <point x="212" y="212"/>
      <point x="183" y="212" type="qcurve"/>
      <point x="99" y="212"/>
      <point x="18" y="310"/>
      <point x="18" y="411" type="qcurve"/>
      <point x="18" y="519"/>
      <point x="137" y="637"/>
    </contour>
    <contour>
      <point x="247" y="480" type="qcurve"/>
      <point x="219" y="480"/>
      <point x="192" y="449"/>
      <point x="192" y="416" type="qcurve"/>
      <point x="192" y="381"/>
      <point x="214" y="354"/>
      <point x="246" y="354" type="qcurve"/>
      <point x="263" y="354"/>
      <point x="293" y="360"/>
      <point x="306" y="367" type="qcurve"/>
      <point x="305" y="439"/>
      <point x="283" y="480"/>
    </contour>
  </outline>
</glyph>
<glyph name="question" format="1">
  <advance width="374"/>
  <unicode hex="003F"/>
  <outline>
    <contour>
      <point x="191" y="637" type="qcurve"/>
      <point x="270" y="637"/>
      <point x="361" y="563"/>
      <point x="361" y="497" type="qcurve" smooth="yes"/>
      <point x="361" y="442"/>
      <point x="308" y="355"/>
      <point x="244" y="311" type="qcurve"/>
      <point x="244" y="216" type="line"/>
      <point x="81" y="216" type="line"/>
      <point x="81" y="353" type="line"/>
      <point x="142" y="384"/>
      <point x="193" y="428"/>
      <point x="193" y="448" type="qcurve" smooth="yes"/>
      <point x="193" y="464"/>
      <point x="175" y="479"/>
      <point x="155" y="479" type="qcurve"/>
      <point x="128" y="479"/>
      <point x="46" y="464"/>
      <point x="18" y="455" type="qcurve"/>
      <point x="18" y="609" type="line"/>
      <point x="59" y="624"/>
      <point x="137" y="637"/>
    </contour>
    <contour>
      <point x="255" y="158" type="line"/>
      <point x="255" y="0" type="line"/>
      <point x="70" y="0" type="line"/>
      <point x="70" y="158" type="line"/>
    </contour>
  </outline>
</glyph>
<glyph name="at" format="1">
  <advance width="608"/>
  <unicode hex="0040"/>
  <outline>
    <contour>
      <point x="275" y="83" type="qcurve"/>
      <point x="229" y="83"/>
      <point x="185" y="131"/>
      <point x="185" y="181" type="qcurve"/>
      <point x="185" y="233"/>
      <point x="235" y="274"/>
      <point x="299" y="274" type="qcurve"/>
      <point x="311" y="274"/>
      <point x="337" y="272"/>
      <point x="348" y="270" type="qcurve"/>
      <point x="348" y="282" type="line" smooth="yes"/>
      <point x="348" y="294"/>
      <point x="328" y="304"/>
      <point x="305" y="304" type="qcurve" smooth="yes"/>
      <point x="276" y="304"/>
      <point x="229" y="301"/>
      <point x="210" y="298" type="qcurve"/>
      <point x="210" y="389" type="line"/>
      <point x="234" y="394"/>
      <point x="296" y="399"/>
      <point x="336" y="399" type="qcurve"/>
      <point x="390" y="399"/>
      <point x="446" y="349"/>
      <point x="446" y="300" type="qcurve"/>
      <point x="446" y="188" type="line" smooth="yes"/>
      <point x="446" y="180"/>
      <point x="449" y="174"/>
      <point x="454" y="174" type="qcurve"/>
      <point x="468" y="174"/>
      <point x="490" y="240"/>
      <point x="490" y="287" type="qcurve"/>
      <point x="490" y="368"/>
      <point x="405" y="454"/>
      <point x="324" y="454" type="qcurve"/>
      <point x="218" y="454"/>
      <point x="134" y="358"/>
      <point x="134" y="239" type="qcurve" smooth="yes"/>
      <point x="134" y="130"/>
      <point x="236" y="31"/>
      <point x="353" y="31" type="qcurve"/>
      <point x="392" y="31"/>
      <point x="478" y="50"/>
      <point x="508" y="66" type="qcurve"/>
      <point x="508" y="-36" type="line"/>
      <point x="474" y="-56"/>
      <point x="381" y="-76"/>
      <point x="323" y="-76" type="qcurve"/>
      <point x="176" y="-76"/>
      <point x="19" y="85"/>
      <point x="19" y="240" type="qcurve" smooth="yes"/>
      <point x="19" y="393"/>
      <point x="176" y="557"/>
      <point x="322" y="557" type="qcurve"/>
      <point x="454" y="557"/>
      <point x="595" y="425"/>
      <point x="595" y="300" type="qcurve"/>
      <point x="595" y="206"/>
      <point x="507" y="83"/>
      <point x="438" y="83" type="qcurve"/>
      <point x="416" y="83"/>
      <point x="385" y="103"/>
      <point x="376" y="122" type="qcurve"/>
      <point x="359" y="104"/>
      <point x="303" y="83"/>
    </contour>
    <contour>
      <point x="315" y="207" type="qcurve"/>
      <point x="296" y="207"/>
      <point x="283" y="200"/>
      <point x="283" y="187" type="qcurve"/>
      <point x="283" y="177"/>
      <point x="293" y="169"/>
      <point x="306" y="169" type="qcurve"/>
      <point x="316" y="169"/>
      <point x="339" y="174"/>
      <point x="348" y="179" type="qcurve"/>
      <point x="348" y="205" type="line"/>
      <point x="340" y="206"/>
      <point x="325" y="207"/>
    </contour>
  </outline>
</glyph>
<glyph name="A" format="1">
  <advance width="627"/>
  <unicode hex="0041"/>
  <outline>
    <contour>
      <point x="185" y="0" type="line"/>
      <point x="-6" y="0" type="line"/>
      <point x="219" y="627" type="line"/>
      <point x="412" y="627" type="line"/>
      <point x="630" y="0" type="line"/>
      <point x="440" y="0" type="line"/>
      <point x="414" y="87" type="line"/>
      <point x="210" y="87" type="line"/>
    </contour>
    <contour>
      <point x="311" y="441" type="qcurve"/>
      <point x="301" y="402"/>
      <point x="278" y="319"/>
      <point x="268" y="286" type="qcurve"/>
      <point x="252" y="231" type="line"/>
      <point x="372" y="231" type="line"/>
      <point x="356" y="286" type="line" smooth="yes"/>
      <point x="311" y="441"/>
      <point x="311" y="441"/>
    </contour>
    <contour>
      <point x="314" y="645" type="move" name="top"/>
    </contour>
    <contour>
      <point x="626" y="0" type="move" name="ogonek"/>
    </contour>
  </outline>
</glyph>
<glyph name="B" format="1">
  <advance width="560"/>
  <unicode hex="0042"/>
  <outline>
    <contour>
      <point x="545" y="186" type="qcurve"/>
      <point x="545" y="90"/>
      <point x="431" y="0"/>
      <point x="310" y="0" type="qcurve"/>
      <point x="39" y="0" type="line"/>
      <point x="39" y="627" type="line"/>
      <point x="310" y="627" type="line" smooth="yes"/>
      <point x="419" y="627"/>
      <point x="513" y="551"/>
      <point x="513" y="463" type="qcurve"/>
      <point x="513" y="408"/>
      <point x="481" y="347"/>
      <point x="443" y="333" type="qcurve"/>
      <point x="496" y="321"/>
      <point x="545" y="249"/>
    </contour>
    <contour>
      <point x="349" y="431" type="qcurve"/>
      <point x="349" y="455"/>
      <point x="330" y="477"/>
      <point x="308" y="477" type="qcurve"/>
      <point x="221" y="477" type="line"/>
      <point x="221" y="379" type="line"/>
      <point x="308" y="379" type="line" smooth="yes"/>
      <point x="330" y="379"/>
      <point x="349" y="403"/>
    </contour>
    <contour>
      <point x="364" y="204" type="qcurve"/>
      <point x="364" y="231"/>
      <point x="339" y="254"/>
      <point x="310" y="254" type="qcurve"/>
      <point x="221" y="254" type="line"/>
      <point x="221" y="156" type="line"/>
      <point x="310" y="156" type="line" smooth="yes"/>
      <point x="339" y="156"/>
      <point x="364" y="178"/>
    </contour>
  </outline>
</glyph>
<glyph name="C" format="1">
  <advance width="507"/>
  <unicode hex="0043"/>
  <outline>
    <contour>
      <point x="323" y="163" type="qcurve" smooth="yes"/>
      <point x="363" y="163"/>
      <point x="456" y="179"/>
      <point x="492" y="192" type="qcurve"/>
      <point x="492" y="28" type="line"/>
      <point x="437" y="6"/>
      <point x="348" y="-11"/>
      <point x="299" y="-11" type="qcurve" smooth="yes"/>
      <point x="209" y="-11"/>
      <point x="104" y="28"/>
      <point x="73" y="71" type="qcurve" smooth="yes"/>
      <point x="47" y="109"/>
      <point x="21" y="229"/>
      <point x="21" y="314" type="qcurve" smooth="yes"/>
      <point x="21" y="481"/>
      <point x="169" y="637"/>
      <point x="331" y="637" type="qcurve"/>
      <point x="377" y="637"/>
      <point x="449" y="633"/>
      <point x="478" y="628" type="qcurve"/>
      <point x="478" y="465" type="line"/>
      <point x="446" y="467"/>
      <point x="376" y="469"/>
      <point x="333" y="469" type="qcurve"/>
      <point x="260" y="469"/>
      <point x="214" y="404"/>
      <point x="214" y="314" type="qcurve" smooth="yes"/>
      <point x="214" y="229"/>
      <point x="257" y="163"/>
    </contour>
    <contour>
      <point x="288" y="655" type="move" name="top"/>
    </contour>
    <contour>
      <point x="285" y="0" type="move" name="bottom"/>
    </contour>
  </outline>
</glyph>
<glyph name="D" format="1">
  <advance width="603"/>
  <unicode hex="0044"/>
  <outline>
    <contour>
      <point x="274" y="0" type="qcurve"/>
      <point x="39" y="0" type="line"/>
      <point x="39" y="627" type="line"/>
      <point x="274" y="627" type="line" smooth="yes"/>
      <point x="368" y="627"/>
      <point x="482" y="595"/>
      <point x="516" y="559" type="qcurve" smooth="yes"/>
      <point x="550" y="523"/>
      <point x="582" y="404"/>
      <point x="582" y="314" type="qcurve"/>
      <point x="582" y="151"/>
      <point x="436" y="0"/>
    </contour>
    <contour>
      <point x="390" y="314" type="qcurve"/>
      <point x="390" y="402"/>
      <point x="347" y="463"/>
      <point x="274" y="463" type="qcurve"/>
      <point x="224" y="463" type="line"/>
      <point x="224" y="169" type="line"/>
      <point x="274" y="169" type="line" smooth="yes"/>
      <point x="347" y="169"/>
      <point x="390" y="229"/>
    </contour>
    <contour>
      <point x="282" y="645" type="move" name="top"/>
    </contour>
  </outline>
</glyph>
<glyph name="E" format="1">
  <advance width="499"/>
  <unicode hex="0045"/>
  <outline>
    <contour>
      <point x="477" y="167" type="line"/>
      <point x="477" y="0" type="line"/>
      <point x="39" y="0" type="line"/>
      <point x="39" y="627" type="line"/>
      <point x="468" y="627" type="line"/>
      <point x="468" y="464" type="line"/>
      <point x="224" y="464" type="line"/>
      <point x="224" y="393" type="line"/>
      <point x="431" y="393" type="line"/>
      <point x="431" y="241" type="line"/>
      <point x="224" y="241" type="line"/>
      <point x="224" y="167" type="line"/>
    </contour>
    <contour>
      <point x="262" y="645" type="move" name="top"/>
    </contour>
    <contour>
      <point x="449" y="0" type="move" name="ogonek"/>
    </contour>
  </outline>
</glyph>
<glyph name="F" format="1">
  <advance width="487"/>
  <unicode hex="0046"/>
  <outline>
    <contour>
      <point x="224" y="215" type="line"/>
      <point x="224" y="0" type="line"/>
      <point x="39" y="0" type="line"/>
      <point x="39" y="627" type="line"/>
      <point x="471" y="627" type="line"/>
      <point x="471" y="459" type="line"/>
      <point x="224" y="459" type="line"/>
      <point x="224" y="369" type="line"/>
      <point x="434" y="369" type="line"/>
      <point x="434" y="215" type="line"/>
    </contour>
  </outline>
</glyph>
<glyph name="G" format="1">
  <advance width="575"/>
  <unicode hex="0047"/>
  <outline>
    <contour>
      <point x="380" y="231" type="line"/>
      <point x="292" y="231" type="line"/>
      <point x="292" y="370" type="line"/>
      <point x="549" y="370" type="line"/>
      <point x="549" y="28" type="line"/>
      <point x="511" y="12"/>
      <point x="380" y="-11"/>
      <point x="317" y="-11" type="qcurve"/>
      <point x="153" y="-11"/>
      <point x="21" y="140"/>
      <point x="21" y="314" type="qcurve" smooth="yes"/>
      <point x="21" y="482"/>
      <point x="171" y="637"/>
      <point x="335" y="637" type="qcurve"/>
      <point x="393" y="637"/>
      <point x="485" y="631"/>
      <point x="515" y="626" type="qcurve"/>
      <point x="515" y="464" type="line"/>
      <point x="473" y="466"/>
      <point x="383" y="469"/>
      <point x="337" y="469" type="qcurve" smooth="yes"/>
      <point x="260" y="469"/>
      <point x="213" y="404"/>
      <point x="213" y="314" type="qcurve" smooth="yes"/>
      <point x="213" y="221"/>
      <point x="257" y="152"/>
      <point x="325" y="152" type="qcurve"/>
      <point x="338" y="152"/>
      <point x="366" y="154"/>
      <point x="380" y="155" type="qcurve"/>
    </contour>
    <contour>
      <point x="320" y="655" type="move" name="top"/>
    </contour>
    <contour>
      <point x="318" y="0" type="move" name="bottom"/>
    </contour>
  </outline>
</glyph>
<glyph name="I" format="1">
  <advance width="263"/>
  <unicode hex="0049"/>
  <outline>
    <contour>
      <point x="224" y="627" type="line"/>
      <point x="224" y="0" type="line"/>
      <point x="39" y="0" type="line"/>
      <point x="39" y="627" type="line"/>
    </contour>
    <contour>
      <point x="132" y="645" type="move" name="top"/>
    </contour>
    <contour>
      <point x="223" y="0" type="move" name="ogonek"/>
    </contour>
  </outline>
</glyph>
<glyph name="J" format="1">
  <advance width="413"/>
  <unicode hex="004A"/>
  <outline>
    <contour>
      <point x="193" y="250" type="qcurve"/>
      <point x="193" y="627" type="line"/>
      <point x="378" y="627" type="line"/>
      <point x="378" y="236" type="line" smooth="yes"/>
      <point x="378" y="103"/>
      <point x="262" y="-11"/>
      <point x="124" y="-11" type="qcurve"/>
      <point x="94" y="-11"/>
      <point x="41" y="-7"/>
      <point x="12" y="-1" type="qcurve"/>
      <point x="12" y="169" type="line"/>
      <point x="28" y="166"/>
      <point x="68" y="163"/>
      <point x="96" y="163" type="qcurve"/>
      <point x="155" y="163"/>
      <point x="193" y="198"/>
    </contour>
    <contour>
      <point x="286" y="645" type="move" name="top"/>
    </contour>
  </outline>
</glyph>
<glyph name="K" format="1">
  <advance width="616"/>
  <unicode hex="004B"/>
  <outline>
    <contour>
      <point x="418" y="324" type="line"/>
      <point x="630" y="0" type="line"/>
      <point x="399" y="0" type="line"/>
      <point x="257" y="245" type="line"/>
      <point x="224" y="245" type="line"/>
      <point x="224" y="0" type="line"/>
      <point x="39" y="0" type="line"/>
      <point x="39" y="627" type="line"/>
      <point x="224" y="627" type="line"/>
      <point x="224" y="391" type="line"/>
      <point x="257" y="391" type="line"/>
      <point x="403" y="627" type="line"/>
      <point x="623" y="627" type="line"/>
    </contour>
    <contour>
      <point x="295" y="0" type="move" name="bottom"/>
    </contour>
  </outline>
</glyph>
<glyph name="M" format="1">
  <advance width="730"/>
  <unicode hex="004D"/>
  <outline>
    <contour>
      <point x="692" y="627" type="line"/>
      <point x="692" y="0" type="line"/>
      <point x="518" y="0" type="line"/>
      <point x="518" y="333" type="line"/>
      <point x="436" y="118" type="line"/>
      <point x="291" y="118" type="line"/>
      <point x="212" y="332" type="line"/>
      <point x="212" y="0" type="line"/>
      <point x="39" y="0" type="line"/>
      <point x="39" y="627" type="line"/>
      <point x="264" y="627" type="line"/>
      <point x="367" y="347" type="line"/>
      <point x="475" y="627" type="line"/>
    </contour>
  </outline>
</glyph>
<glyph name="N" format="1">
  <advance width="634"/>
  <unicode hex="004E"/>
  <outline>
    <contour>
      <point x="595" y="627" type="line"/>
      <point x="595" y="0" type="line"/>
      <point x="420" y="0" type="line"/>
      <point x="212" y="311" type="line"/>
      <point x="212" y="0" type="line"/>
      <point x="39" y="0" type="line"/>
      <point x="39" y="627" type="line"/>
      <point x="212" y="627" type="line"/>
      <point x="422" y="299" type="line"/>
      <point x="422" y="627" type="line"/>
    </contour>
    <contour>
      <point x="324" y="645" type="move" name="top"/>
    </contour>
    <contour>
      <point x="313" y="0" type="move" name="bottom"/>
    </contour>
  </outline>
</glyph>
<glyph name="O" format="1">
  <advance width="645"/>
  <unicode hex="004F"/>
  <outline>
    <contour>
      <point x="624" y="314" type="qcurve"/>
      <point x="624" y="142"/>
      <point x="481" y="-11"/>
      <point x="322" y="-11" type="qcurve"/>
      <point x="157" y="-11"/>
      <point x="21" y="135"/>
      <point x="21" y="314" type="qcurve"/>
      <point x="21" y="484"/>
      <point x="164" y="637"/>
      <point x="322" y="637" type="qcurve"/>
      <point x="487" y="637"/>
      <point x="624" y="492"/>
    </contour>
    <contour>
      <point x="209" y="314" type="qcurve"/>
      <point x="209" y="225"/>
      <point x="252" y="163"/>
      <point x="322" y="163" type="qcurve" smooth="yes"/>
      <point x="393" y="163"/>
      <point x="436" y="224"/>
      <point x="436" y="314" type="qcurve"/>
      <point x="436" y="406"/>
      <point x="392" y="469"/>
      <point x="322" y="469" type="qcurve"/>
      <point x="252" y="469"/>
      <point x="209" y="406"/>
    </contour>
    <contour>
      <point x="322" y="655" type="move" name="top"/>
    </contour>
  </outline>
</glyph>
<glyph name="P" format="1">
  <advance width="564"/>
  <unicode hex="0050"/>
  <outline>
    <contour>
      <point x="224" y="166" type="line"/>
      <point x="224" y="0" type="line"/>
      <point x="39" y="0" type="line"/>
      <point x="39" y="627" type="line"/>
      <point x="274" y="627" type="line" smooth="yes"/>
      <point x="425" y="627"/>
      <point x="550" y="524"/>
      <point x="550" y="401" type="qcurve"/>
      <point x="550" y="280"/>
      <point x="418" y="166"/>
      <point x="277" y="166" type="qcurve"/>
    </contour>
    <contour>
      <point x="361" y="398" type="qcurve"/>
      <point x="361" y="431"/>
      <point x="327" y="459"/>
      <point x="283" y="459" type="qcurve"/>
      <point x="224" y="459" type="line"/>
      <point x="224" y="327" type="line"/>
      <point x="283" y="327" type="line" smooth="yes"/>
      <point x="327" y="327"/>
      <point x="361" y="359"/>
    </contour>
  </outline>
</glyph>
<glyph name="Q" format="1">
  <advance width="645"/>
  <unicode hex="0051"/>
  <outline>
    <contour>
      <point x="322" y="-11" type="qcurve"/>
      <point x="157" y="-11"/>
      <point x="21" y="135"/>
      <point x="21" y="314" type="qcurve"/>
      <point x="21" y="484"/>
      <point x="164" y="637"/>
      <point x="322" y="637" type="qcurve"/>
      <point x="487" y="637"/>
      <point x="624" y="492"/>
      <point x="624" y="314" type="qcurve"/>
      <point x="624" y="206"/>
      <point x="570" y="70"/>
      <point x="514" y="33" type="qcurve"/>
      <point x="633" y="-128" type="line"/>
      <point x="421" y="-128" type="line"/>
      <point x="338" y="-11" type="line"/>
      <point x="334" y="-11"/>
      <point x="326" y="-11"/>
    </contour>
    <contour>
      <point x="209" y="314" type="qcurve"/>
      <point x="209" y="225"/>
      <point x="252" y="163"/>
      <point x="322" y="163" type="qcurve" smooth="yes"/>
      <point x="393" y="163"/>
      <point x="436" y="224"/>
      <point x="436" y="314" type="qcurve"/>
      <point x="436" y="406"/>
      <point x="392" y="469"/>
      <point x="322" y="469" type="qcurve"/>
      <point x="252" y="469"/>
      <point x="209" y="406"/>
    </contour>
  </outline>
</glyph>
<glyph name="R" format="1">
  <advance width="583"/>
  <unicode hex="0052"/>
  <outline>
    <contour>
      <point x="224" y="196" type="line"/>
      <point x="224" y="0" type="line"/>
      <point x="39" y="0" type="line"/>
      <point x="39" y="627" type="line"/>
      <point x="274" y="627" type="line" smooth="yes"/>
      <point x="425" y="627"/>
      <point x="550" y="526"/>
      <point x="550" y="407" type="qcurve"/>
      <point x="550" y="336"/>
      <point x="495" y="244"/>
      <point x="439" y="221" type="qcurve"/>
      <point x="576" y="0" type="line"/>
      <point x="364" y="0" type="line"/>
      <point x="259" y="196" type="line"/>
    </contour>
    <contour>
      <point x="361" y="404" type="qcurve"/>
      <point x="361" y="435"/>
      <point x="327" y="461"/>
      <point x="283" y="461" type="qcurve"/>
      <point x="224" y="461" type="line"/>
      <point x="224" y="338" type="line"/>
      <point x="283" y="338" type="line" smooth="yes"/>
      <point x="327" y="338"/>
      <point x="361" y="368"/>
    </contour>
    <contour>
      <point x="267" y="645" type="move" name="top"/>
    </contour>
    <contour>
      <point x="288" y="0" type="move" name="bottom"/>
    </contour>
  </outline>
</glyph>
<glyph name="S" format="1">
  <advance width="498"/>
  <unicode hex="0053"/>
  <outline>
    <contour>
      <point x="279" y="228" type="qcurve"/>
      <point x="162" y="253" type="line" smooth="yes"/>
      <point x="85" y="270"/>
      <point x="24" y="350"/>
      <point x="24" y="423" type="qcurve"/>
      <point x="24" y="533"/>
      <point x="140" y="637"/>
      <point x="265" y="637" type="qcurve" smooth="yes"/>
      <point x="319" y="637"/>
      <point x="405" y="628"/>
      <point x="436" y="619" type="qcurve"/>
      <point x="436" y="454" type="line"/>
      <point x="365" y="466"/>
      <point x="299" y="471"/>
      <point x="264" y="471" type="qcurve" smooth="yes"/>
      <point x="231" y="471"/>
      <point x="202" y="453"/>
      <point x="202" y="432" type="qcurve"/>
      <point x="202" y="421"/>
      <point x="213" y="409"/>
      <point x="227" y="406" type="qcurve"/>
      <point x="336" y="382" type="line" smooth="yes"/>
      <point x="387" y="371"/>
      <point x="437" y="346"/>
      <point x="452" y="328" type="qcurve" smooth="yes"/>
      <point x="469" y="308"/>
      <point x="484" y="246"/>
      <point x="484" y="202" type="qcurve"/>
      <point x="484" y="90"/>
      <point x="364" y="-11"/>
      <point x="239" y="-11" type="qcurve"/>
      <point x="175" y="-11"/>
      <point x="56" y="3"/>
      <point x="27" y="14" type="qcurve"/>
      <point x="27" y="189" type="line"/>
      <point x="65" y="177"/>
      <point x="182" y="161"/>
      <point x="240" y="161" type="qcurve"/>
      <point x="275" y="161"/>
      <point x="303" y="177"/>
      <point x="303" y="198" type="qcurve"/>
      <point x="303" y="212"/>
      <point x="294" y="224"/>
    </contour>
    <contour>
      <point x="251" y="655" type="move" name="top"/>
    </contour>
    <contour>
      <point x="237" y="0" type="move" name="bottom"/>
    </contour>
  </outline>
</glyph>
<glyph name="U" format="1">
  <advance width="622"/>
  <unicode hex="0055"/>
  <outline>
    <contour>
      <point x="403" y="270" type="qcurve"/>
      <point x="403" y="627" type="line"/>
      <point x="589" y="627" type="line"/>
      <point x="589" y="269" type="line" smooth="yes"/>
      <point x="589" y="130"/>
      <point x="450" y="-11"/>
      <point x="313" y="-11" type="qcurve"/>
      <point x="167" y="-11"/>
      <point x="34" y="122"/>
      <point x="34" y="269" type="qcurve"/>
      <point x="34" y="627" type="line"/>
      <point x="219" y="627" type="line"/>
      <point x="219" y="270" type="line" smooth="yes"/>
      <point x="219" y="207"/>
      <point x="258" y="163"/>
      <point x="312" y="163" type="qcurve"/>
      <point x="365" y="163"/>
      <point x="403" y="208"/>
    </contour>
    <contour>
      <point x="312" y="645" type="move" name="top"/>
    </contour>
    <contour>
      <point x="482" y="31" type="move" name="ogonekalt"/>
    </contour>
  </outline>
</glyph>
<glyph name="V" format="1">
  <advance width="632"/>
  <unicode hex="0056"/>
  <outline>
    <contour>
      <point x="205" y="0" type="line"/>
      <point x="-5" y="627" type="line"/>
      <point x="199" y="627" type="line"/>
      <point x="282" y="324" type="line" smooth="yes"/>
      <point x="288" y="301"/>
      <point x="309" y="210"/>
      <point x="321" y="150" type="qcurve"/>
      <point x="334" y="216"/>
      <point x="352" y="301"/>
      <point x="358" y="322" type="qcurve"/>
      <point x="439" y="627" type="line"/>
      <point x="636" y="627" type="line"/>
      <point x="428" y="0" type="line"/>
    </contour>
  </outline>
</glyph>
<glyph name="W" format="1">
  <advance width="853"/>
  <unicode hex="0057"/>
  <outline>
    <contour>
      <point x="158" y="0" type="line"/>
      <point x="-3" y="627" type="line"/>
      <point x="193" y="627" type="line"/>
      <point x="248" y="356" type="line" smooth="yes"/>
      <point x="250" y="345"/>
      <point x="257" y="306"/>
      <point x="271" y="205" type="qcurve"/>
      <point x="284" y="308"/>
      <point x="289" y="343"/>
      <point x="291" y="354" type="qcurve"/>
      <point x="340" y="627" type="line"/>
      <point x="519" y="627" type="line"/>
      <point x="570" y="356" type="line" smooth="yes"/>
      <point x="573" y="343"/>
      <point x="579" y="298"/>
      <point x="591" y="203" type="qcurve"/>
      <point x="600" y="268"/>
      <point x="611" y="344"/>
      <point x="613" y="354" type="qcurve"/>
      <point x="665" y="627" type="line"/>
      <point x="855" y="627" type="line"/>
      <point x="696" y="0" type="line"/>
      <point x="492" y="0" type="line"/>
      <point x="463" y="151" type="line" smooth="yes"/>
      <point x="455" y="196"/>
      <point x="437" y="305"/>
      <point x="427" y="376" type="qcurve"/>
      <point x="419" y="323"/>
      <point x="400" y="209"/>
      <point x="390" y="151" type="qcurve"/>
      <point x="361" y="0" type="line"/>
    </contour>
    <contour>
      <point x="427" y="645" type="move" name="top"/>
    </contour>
  </outline>
</glyph>
<glyph name="X" format="1">
  <advance width="594"/>
  <unicode hex="0058"/>
  <outline>
    <contour>
      <point x="409" y="326" type="line"/>
      <point x="609" y="0" type="line"/>
      <point x="383" y="0" type="line"/>
      <point x="284" y="174" type="line"/>
      <point x="190" y="0" type="line"/>
      <point x="-13" y="0" type="line"/>
      <point x="188" y="319" type="line"/>
      <point x="0" y="627" type="line"/>
      <point x="227" y="627" type="line"/>
      <point x="310" y="476" type="line"/>
      <point x="392" y="627" type="line"/>
      <point x="588" y="627" type="line"/>
    </contour>
    <contour>
      <point x="307" y="645" type="move" name="top"/>
    </contour>
  </outline>
</glyph>
<glyph name="Y" format="1">
  <advance width="611"/>
  <unicode hex="0059"/>
  <outline>
    <contour>
      <point x="423" y="627" type="line"/>
      <point x="613" y="627" type="line"/>
      <point x="400" y="224" type="line"/>
      <point x="400" y="0" type="line"/>
      <point x="214" y="0" type="line"/>
      <point x="214" y="224" type="line"/>
      <point x="-5" y="627" type="line"/>
      <point x="206" y="627" type="line"/>
      <point x="310" y="390" type="line"/>
    </contour>
    <contour>
      <point x="310" y="645" type="move" name="top"/>
    </contour>
  </outline>
</glyph>
<glyph name="Z" format="1">
  <advance width="504"/>
  <unicode hex="005A"/>
  <outline>
    <contour>
      <point x="487" y="174" type="line"/>
      <point x="487" y="0" type="line"/>
      <point x="17" y="0" type="line"/>
      <point x="17" y="174" type="line"/>
      <point x="258" y="459" type="line"/>
      <point x="46" y="459" type="line"/>
      <point x="46" y="627" type="line"/>
      <point x="468" y="627" type="line"/>
      <point x="468" y="459" type="line"/>
      <point x="228" y="174" type="line"/>
    </contour>
    <contour>
      <point x="261" y="645" type="move" name="top"/>
    </contour>
  </outline>
</glyph>
<glyph name="bracketright" format="1">
  <advance width="232"/>
  <unicode hex="005D"/>
  <outline>
    <contour>
      <point x="194" y="-82" type="line"/>
      <point x="17" y="-82" type="line"/>
      <point x="17" y="20" type="line"/>
      <point x="83" y="20" type="line"/>
      <point x="83" y="608" type="line"/>
      <point x="17" y="608" type="line"/>
      <point x="17" y="707" type="line"/>
      <point x="194" y="707" type="line"/>
    </contour>
  </outline>
</glyph>
<glyph name="asciicircum" format="1">
  <advance width="500"/>
  <unicode hex="005E"/>
  <outline>
    <contour>
      <point x="209" y="365" type="line"/>
      <point x="63" y="365" type="line"/>
      <point x="181" y="627" type="line"/>
      <point x="319" y="627" type="line"/>
      <point x="437" y="365" type="line"/>
      <point x="295" y="365" type="line"/>
      <point x="252" y="478" type="line"/>
    </contour>
  </outline>
</glyph>
<glyph name="a" format="1">
  <advance width="492"/>
  <unicode hex="0061"/>
  <outline>
    <contour>
      <point x="151" y="-11" type="qcurve"/>
      <point x="79" y="-11"/>
      <point x="13" y="65"/>
      <point x="13" y="146" type="qcurve"/>
      <point x="13" y="226"/>
      <point x="96" y="294"/>
      <point x="193" y="294" type="qcurve"/>
      <point x="216" y="294"/>
      <point x="263" y="290"/>
      <point x="281" y="287" type="qcurve"/>
      <point x="281" y="312" type="line" smooth="yes"/>
      <point x="281" y="332"/>
      <point x="243" y="349"/>
      <point x="200" y="349" type="qcurve" smooth="yes"/>
      <point x="159" y="349"/>
      <point x="92" y="345"/>
      <point x="58" y="339" type="qcurve"/>
      <point x="58" y="486" type="line"/>
      <point x="95" y="495"/>
      <point x="200" y="504"/>
      <point x="268" y="504" type="qcurve" smooth="yes"/>
      <point x="362" y="504"/>
      <point x="461" y="421"/>
      <point x="461" y="341" type="qcurve"/>
      <point x="461" y="0" type="line"/>
      <point x="291" y="0" type="line"/>
      <point x="286" y="39" type="line"/>
      <point x="283" y="39" type="line"/>
      <point x="253" y="14"/>
      <point x="186" y="-11"/>
    </contour>
    <contour>
      <point x="222" y="192" type="qcurve"/>
      <point x="196" y="192"/>
      <point x="175" y="177"/>
      <point x="175" y="157" type="qcurve"/>
      <point x="175" y="137"/>
      <point x="192" y="122"/>
      <point x="213" y="122" type="qcurve"/>
      <point x="230" y="122"/>
      <point x="267" y="129"/>
      <point x="281" y="135" type="qcurve"/>
      <point x="281" y="188" type="line"/>
      <point x="267" y="190"/>
      <point x="238" y="192"/>
    </contour>
    <contour>
      <point x="254" y="530" type="move" name="top"/>
    </contour>
    <contour>
      <point x="461" y="0" type="move" name="ogonek"/>
    </contour>
  </outline>
</glyph>
<glyph name="b" format="1">
  <advance width="544"/>
  <unicode hex="0062"/>
  <outline>
    <contour>
      <point x="347" y="504" type="qcurve"/>
      <point x="444" y="504"/>
      <point x="524" y="389"/>
      <point x="524" y="251" type="qcurve" smooth="yes"/>
      <point x="524" y="115"/>
      <point x="412" y="-11"/>
      <point x="290" y="-11" type="qcurve"/>
      <point x="213" y="-11"/>
      <point x="83" y="4"/>
      <point x="34" y="18" type="qcurve"/>
      <point x="34" y="665" type="line"/>
      <point x="214" y="665" type="line"/>
      <point x="214" y="471" type="line"/>
      <point x="246" y="487"/>
      <point x="314" y="504"/>
    </contour>
    <contour>
      <point x="344" y="251" type="qcurve" smooth="yes"/>
      <point x="344" y="305"/>
      <point x="320" y="342"/>
      <point x="280" y="342" type="qcurve"/>
      <point x="264" y="342"/>
      <point x="231" y="336"/>
      <point x="214" y="329" type="qcurve"/>
      <point x="214" y="161" type="line"/>
      <point x="227" y="159"/>
      <point x="258" y="156"/>
      <point x="275" y="156" type="qcurve"/>
      <point x="318" y="156"/>
      <point x="344" y="193"/>
    </contour>
  </outline>
</glyph>
<glyph name="c" format="1">
  <advance width="427"/>
  <unicode hex="0063"/>
  <outline>
    <contour>
      <point x="411" y="174" type="qcurve"/>
      <point x="411" y="26" type="line"/>
      <point x="386" y="11"/>
      <point x="275" y="-11"/>
      <point x="217" y="-11" type="qcurve"/>
      <point x="108" y="-11"/>
      <point x="20" y="104"/>
      <point x="20" y="247" type="qcurve" smooth="yes"/>
      <point x="20" y="391"/>
      <point x="133" y="504"/>
      <point x="276" y="504" type="qcurve"/>
      <point x="306" y="504"/>
      <point x="356" y="501"/>
      <point x="398" y="496" type="qcurve"/>
      <point x="398" y="338" type="line"/>
      <point x="397" y="338"/>
      <point x="319" y="342"/>
      <point x="278" y="342" type="qcurve"/>
      <point x="227" y="342"/>
      <point x="200" y="310"/>
      <point x="200" y="247" type="qcurve" smooth="yes"/>
      <point x="200" y="190"/>
      <point x="224" y="157"/>
      <point x="264" y="157" type="qcurve"/>
      <point x="301" y="157"/>
      <point x="381" y="167"/>
    </contour>
    <contour>
      <point x="255" y="530" type="move" name="top"/>
    </contour>
    <contour>
      <point x="246" y="0" type="move" name="bottom"/>
    </contour>
  </outline>
</glyph>
<glyph name="d" format="1">
  <advance width="544"/>
  <unicode hex="0064"/>
  <outline>
    <contour>
      <point x="330" y="665" type="line"/>
      <point x="510" y="665" type="line"/>
      <point x="510" y="0" type="line"/>
      <point x="350" y="0" type="line"/>
      <point x="341" y="46" type="line"/>
      <point x="336" y="46" type="line"/>
      <point x="310" y="17"/>
      <point x="240" y="-11"/>
      <point x="196" y="-11" type="qcurve"/>
      <point x="101" y="-11"/>
      <point x="19" y="108"/>
      <point x="19" y="247" type="qcurve" smooth="yes"/>
      <point x="19" y="381"/>
      <point x="122" y="504"/>
      <point x="235" y="504" type="qcurve"/>
      <point x="261" y="504"/>
      <point x="309" y="498"/>
      <point x="330" y="492" type="qcurve"/>
    </contour>
    <contour>
      <point x="269" y="342" type="qcurve"/>
      <point x="225" y="342"/>
      <point x="199" y="304"/>
      <point x="199" y="247" type="qcurve" smooth="yes"/>
      <point x="199" y="192"/>
      <point x="223" y="156"/>
      <point x="263" y="156" type="qcurve"/>
      <point x="282" y="156"/>
      <point x="315" y="163"/>
      <point x="330" y="170" type="qcurve"/>
      <point x="330" y="334" type="line"/>
      <point x="319" y="338"/>
      <point x="288" y="342"/>
    </contour>
    <contour>
      <point x="551" y="665" type="move" name="caronalt"/>
    </contour>
  </outline>
</glyph>
<glyph name="e" format="1">
  <advance width="496"/>
  <unicode hex="0065"/>
  <outline>
    <contour>
      <point x="455" y="161" type="qcurve"/>
      <point x="455" y="24" type="line"/>
      <point x="427" y="10"/>
      <point x="310" y="-11"/>
      <point x="247" y="-11" type="qcurve" smooth="yes"/>
      <point x="126" y="-11"/>
      <point x="19" y="110"/>
      <point x="19" y="246" type="qcurve" smooth="yes"/>
      <point x="19" y="379"/>
      <point x="134" y="504"/>
      <point x="256" y="504" type="qcurve"/>
      <point x="374" y="504"/>
      <point x="476" y="411"/>
      <point x="476" y="299" type="qcurve"/>
      <point x="476" y="265"/>
      <point x="474" y="224"/>
      <point x="471" y="198" type="qcurve"/>
      <point x="197" y="198" type="line"/>
      <point x="198" y="166"/>
      <point x="232" y="143"/>
      <point x="276" y="143" type="qcurve" smooth="yes"/>
      <point x="324" y="143"/>
      <point x="425" y="154"/>
    </contour>
    <contour>
      <point x="258" y="362" type="qcurve"/>
      <point x="224" y="362"/>
      <point x="197" y="335"/>
      <point x="197" y="295" type="qcurve"/>
      <point x="316" y="295" type="line"/>
      <point x="316" y="318" type="line"/>
      <point x="314" y="344"/>
      <point x="291" y="362"/>
    </contour>
    <contour>
      <point x="256" y="530" type="move" name="top"/>
    </contour>
    <contour>
      <point x="418" y="11" type="move" name="ogonekalt"/>
    </contour>
  </outline>
</glyph>
<glyph name="f" format="1">
  <advance width="363"/>
  <unicode hex="0066"/>
  <outline>
    <contour>
      <point x="69" y="345" type="line"/>
      <point x="18" y="345" type="line"/>
      <point x="18" y="494" type="line"/>
      <point x="69" y="494" type="line"/>
      <point x="69" y="497" type="line"/>
      <point x="69" y="583"/>
      <point x="168" y="675"/>
      <point x="261" y="675" type="qcurve"/>
      <point x="289" y="675"/>
      <point x="350" y="669"/>
      <point x="371" y="665" type="qcurve"/>
      <point x="371" y="539" type="line"/>
      <point x="333" y="542"/>
      <point x="315" y="543"/>
      <point x="308" y="543" type="qcurve"/>
      <point x="270" y="543"/>
      <point x="249" y="528"/>
      <point x="249" y="504" type="qcurve"/>
      <point x="249" y="494" type="line"/>
      <point x="356" y="494" type="line"/>
      <point x="356" y="345" type="line"/>
      <point x="249" y="345" type="line"/>
      <point x="249" y="0" type="line"/>
      <point x="69" y="0" type="line"/>
    </contour>
  </outline>
</glyph>
<glyph name="g" format="1">
  <advance width="542"/>
  <unicode hex="0067"/>
  <outline>
    <contour>
      <point x="264" y="-162" type="qcurve"/>
      <point x="210" y="-162"/>
      <point x="110" y="-148"/>
      <point x="79" y="-137" type="qcurve"/>
      <point x="79" y="10" type="line"/>
      <point x="104" y="4"/>
      <point x="203" y="-5"/>
      <point x="251" y="-5" type="qcurve"/>
      <point x="295" y="-5"/>
      <point x="327" y="18"/>
      <point x="329" y="48" type="qcurve"/>
      <point x="329" y="75" type="line"/>
      <point x="294" y="59"/>
      <point x="225" y="42"/>
      <point x="193" y="42" type="qcurve"/>
      <point x="98" y="42"/>
      <point x="20" y="145"/>
      <point x="20" y="269" type="qcurve" smooth="yes"/>
      <point x="20" y="395"/>
      <point x="137" y="504"/>
      <point x="271" y="504" type="qcurve"/>
      <point x="326" y="504"/>
      <point x="475" y="492"/>
      <point x="509" y="485" type="qcurve"/>
      <point x="509" y="106" type="line" smooth="yes"/>
      <point x="509" y="-43"/>
      <point x="401" y="-162"/>
    </contour>
    <contour>
      <point x="267" y="344" type="qcurve"/>
      <point x="221" y="344"/>
      <point x="197" y="320"/>
      <point x="197" y="270" type="qcurve" smooth="yes"/>
      <point x="197" y="224"/>
      <point x="218" y="200"/>
      <point x="255" y="200" type="qcurve"/>
      <point x="271" y="200"/>
      <point x="309" y="207"/>
      <point x="329" y="214" type="qcurve"/>
      <point x="329" y="340" type="line"/>
      <point x="310" y="342"/>
      <point x="281" y="344"/>
    </contour>
    <contour>
      <point x="279" y="530" type="move" name="top"/>
    </contour>
  </outline>
</glyph>
<glyph name="h" format="1">
  <advance width="541"/>
  <unicode hex="0068"/>
  <outline>
    <contour>
      <point x="214" y="0" type="line"/>
      <point x="34" y="0" type="line"/>
      <point x="34" y="665" type="line"/>
      <point x="214" y="665" type="line"/>
      <point x="214" y="458" type="line"/>
      <point x="244" y="480"/>
      <point x="316" y="504"/>
      <point x="353" y="504" type="qcurve" smooth="yes"/>
      <point x="431" y="504"/>
      <point x="509" y="423"/>
      <point x="509" y="342" type="qcurve"/>
      <point x="509" y="0" type="line"/>
      <point x="329" y="0" type="line"/>
      <point x="329" y="305" type="line" smooth="yes"/>
      <point x="329" y="325"/>
      <point x="308" y="342"/>
      <point x="284" y="342" type="qcurve" smooth="yes"/>
      <point x="268" y="342"/>
      <point x="232" y="336"/>
      <point x="214" y="331" type="qcurve"/>
    </contour>
    <contour>
      <point x="124" y="682" type="move" name="top"/>
    </contour>
  </outline>
</glyph>
<glyph name="i" format="1">
  <advance width="247"/>
  <unicode hex="0069"/>
  <outline>
    <contour>
      <point x="216" y="535" type="line"/>
      <point x="31" y="535" type="line"/>
      <point x="31" y="665" type="line"/>
      <point x="216" y="665" type="line"/>
    </contour>
    <contour>
      <point x="214" y="0" type="line"/>
      <point x="34" y="0" type="line"/>
      <point x="34" y="494" type="line"/>
      <point x="214" y="494" type="line"/>
    </contour>
    <contour>
      <point x="214" y="0" type="move" name="ogonek"/>
    </contour>
  </outline>
</glyph>
<glyph name="j" format="1">
  <advance width="253"/>
  <unicode hex="006A"/>
  <outline>
    <contour>
      <point x="222" y="535" type="line"/>
      <point x="37" y="535" type="line"/>
      <point x="37" y="665" type="line"/>
      <point x="222" y="665" type="line"/>
    </contour>
    <contour>
      <point x="44" y="-162" type="qcurve"/>
      <point x="27" y="-162"/>
      <point x="-2" y="-160"/>
      <point x="-33" y="-156" type="qcurve"/>
      <point x="-33" y="-25" type="line"/>
      <point x="-28" y="-26"/>
      <point x="-20" y="-26"/>
      <point x="-12" y="-26" type="qcurve"/>
      <point x="18" y="-26"/>
      <point x="39" y="-10"/>
      <point x="39" y="13" type="qcurve"/>
      <point x="39" y="494" type="line"/>
      <point x="219" y="494" type="line"/>
      <point x="219" y="4" type="line"/>
      <point x="219" y="-76"/>
      <point x="128" y="-162"/>
    </contour>
  </outline>
</glyph>
<glyph name="k" format="1">
  <advance width="530"/>
  <unicode hex="006B"/>
  <outline>
    <contour>
      <point x="214" y="182" type="line"/>
      <point x="214" y="0" type="line"/>
      <point x="34" y="0" type="line"/>
      <point x="34" y="665" type="line"/>
      <point x="214" y="665" type="line"/>
      <point x="214" y="318" type="line"/>
      <point x="230" y="318" type="line"/>
      <point x="321" y="494" type="line"/>
      <point x="527" y="494" type="line"/>
      <point x="387" y="257" type="line"/>
      <point x="537" y="0" type="line"/>
      <point x="326" y="0" type="line"/>
      <point x="231" y="182" type="line"/>
    </contour>
    <contour>
      <point x="265" y="-4" type="move" name="bottom"/>
    </contour>
  </outline>
</glyph>
<glyph name="m" format="1">
  <advance width="786"/>
  <unicode hex="006D"/>
  <outline>
    <contour>
      <point x="214" y="0" type="line"/>
      <point x="34" y="0" type="line"/>
      <point x="34" y="494" type="line"/>
      <point x="195" y="494" type="line"/>
      <point x="202" y="452" type="line"/>
      <point x="206" y="452" type="line"/>
      <point x="234" y="477"/>
      <point x="305" y="504"/>
      <point x="342" y="504" type="qcurve" smooth="yes"/>
      <point x="383" y="504"/>
      <point x="441" y="478"/>
      <point x="458" y="452" type="qcurve"/>
      <point x="462" y="452" type="line"/>
      <point x="491" y="476"/>
      <point x="570" y="504"/>
      <point x="612" y="504" type="qcurve" smooth="yes"/>
      <point x="683" y="504"/>
      <point x="754" y="423"/>
      <point x="754" y="342" type="qcurve"/>
      <point x="754" y="0" type="line"/>
      <point x="574" y="0" type="line"/>
      <point x="574" y="308" type="line" smooth="yes"/>
      <point x="574" y="326"/>
      <point x="555" y="342"/>
      <point x="534" y="342" type="qcurve" smooth="yes"/>
      <point x="522" y="342"/>
      <point x="496" y="337"/>
      <point x="484" y="333" type="qcurve"/>
      <point x="484" y="0" type="line"/>
      <point x="304" y="0" type="line"/>
      <point x="304" y="308" type="line" smooth="yes"/>
      <point x="304" y="326"/>
      <point x="284" y="342"/>
      <point x="263" y="342" type="qcurve" smooth="yes"/>
      <point x="251" y="342"/>
      <point x="226" y="337"/>
      <point x="214" y="333" type="qcurve"/>
    </contour>
  </outline>
</glyph>
<glyph name="n" format="1">
  <advance width="541"/>
  <unicode hex="006E"/>
  <outline>
    <contour>
      <point x="214" y="0" type="line"/>
      <point x="34" y="0" type="line"/>
      <point x="34" y="494" type="line"/>
      <point x="189" y="494" type="line"/>
      <point x="196" y="442" type="line"/>
      <point x="200" y="442" type="line"/>
      <point x="230" y="474"/>
      <point x="302" y="504"/>
      <point x="351" y="504" type="qcurve" smooth="yes"/>
      <point x="429" y="504"/>
      <point x="509" y="422"/>
      <point x="509" y="342" type="qcurve"/>
      <point x="509" y="0" type="line"/>
      <point x="329" y="0" type="line"/>
      <point x="329" y="305" type="line" smooth="yes"/>
      <point x="329" y="323"/>
      <point x="304" y="342"/>
      <point x="279" y="342" type="qcurve" smooth="yes"/>
      <point x="262" y="342"/>
      <point x="230" y="335"/>
      <point x="214" y="328" type="qcurve"/>
    </contour>
    <contour>
      <point x="272" y="530" type="move" name="top"/>
    </contour>
    <contour>
      <point x="-109" y="665" type="move" name="caronalt"/>
    </contour>
    <contour>
      <point x="271" y="-4" type="move" name="bottom"/>
    </contour>
  </outline>
</glyph>
<glyph name="o" format="1">
  <advance width="539"/>
  <unicode hex="006F"/>
  <outline>
    <contour>
      <point x="520" y="247" type="qcurve" smooth="yes"/>
      <point x="520" y="108"/>
      <point x="404" y="-11"/>
      <point x="269" y="-11" type="qcurve" smooth="yes"/>
      <point x="136" y="-11"/>
      <point x="19" y="110"/>
      <point x="19" y="247" type="qcurve" smooth="yes"/>
      <point x="19" y="385"/>
      <point x="134" y="504"/>
      <point x="269" y="504" type="qcurve" smooth="yes"/>
      <point x="403" y="504"/>
      <point x="520" y="384"/>
    </contour>
    <contour>
      <point x="199" y="249" type="qcurve" smooth="yes"/>
      <point x="199" y="191"/>
      <point x="225" y="156"/>
      <point x="269" y="156" type="qcurve" smooth="yes"/>
      <point x="314" y="156"/>
      <point x="340" y="191"/>
      <point x="340" y="249" type="qcurve" smooth="yes"/>
      <point x="340" y="307"/>
      <point x="314" y="342"/>
      <point x="269" y="342" type="qcurve" smooth="yes"/>
      <point x="225" y="342"/>
      <point x="199" y="307"/>
    </contour>
    <contour>
      <point x="269" y="530" type="move" name="top"/>
    </contour>
  </outline>
</glyph>
<glyph name="p" format="1">
  <advance width="544"/>
  <unicode hex="0070"/>
  <outline>
    <contour>
      <point x="214" y="-152" type="line"/>
      <point x="34" y="-152" type="line"/>
      <point x="34" y="494" type="line"/>
      <point x="192" y="494" type="line"/>
      <point x="201" y="447" type="line"/>
      <point x="207" y="447" type="line"/>
      <point x="232" y="476"/>
      <point x="302" y="504"/>
      <point x="347" y="504" type="qcurve"/>
      <point x="443" y="504"/>
      <point x="524" y="387"/>
      <point x="524" y="247" type="qcurve" smooth="yes"/>
      <point x="524" y="113"/>
      <point x="421" y="-10"/>
      <point x="308" y="-10" type="qcurve"/>
      <point x="282" y="-10"/>
      <point x="234" y="-4"/>
      <point x="214" y="2" type="qcurve"/>
    </contour>
    <contour>
      <point x="344" y="247" type="qcurve" smooth="yes"/>
      <point x="344" y="304"/>
      <point x="320" y="342"/>
      <point x="280" y="342" type="qcurve"/>
      <point x="262" y="342"/>
      <point x="229" y="335"/>
      <point x="214" y="328" type="qcurve"/>
      <point x="214" y="164" type="line"/>
      <point x="225" y="160"/>
      <point x="255" y="156"/>
      <point x="275" y="156" type="qcurve"/>
      <point x="319" y="156"/>
      <point x="344" y="191"/>
    </contour>
  </outline>
</glyph>
<glyph name="q" format="1">
  <advance width="543"/>
  <unicode hex="0071"/>
  <outline>
    <contour>
      <point x="510" y="485" type="qcurve"/>
      <point x="510" y="-152" type="line"/>
      <point x="330" y="-152" type="line"/>
      <point x="330" y="41" type="line"/>
      <point x="302" y="16"/>
      <point x="233" y="-10"/>
      <point x="192" y="-10" type="qcurve"/>
      <point x="98" y="-10"/>
      <point x="19" y="107"/>
      <point x="19" y="247" type="qcurve" smooth="yes"/>
      <point x="19" y="385"/>
      <point x="136" y="505"/>
      <point x="270" y="505" type="qcurve"/>
      <point x="321" y="505"/>
      <point x="454" y="494"/>
    </contour>
    <contour>
      <point x="270" y="342" type="qcurve"/>
      <point x="223" y="342"/>
      <point x="199" y="309"/>
      <point x="199" y="247" type="qcurve" smooth="yes"/>
      <point x="199" y="189"/>
      <point x="219" y="156"/>
      <point x="258" y="156" type="qcurve"/>
      <point x="274" y="156"/>
      <point x="310" y="164"/>
      <point x="330" y="172" type="qcurve"/>
      <point x="330" y="337" type="line"/>
      <point x="317" y="339"/>
      <point x="287" y="342"/>
    </contour>
  </outline>
</glyph>
<glyph name="r" format="1">
  <advance width="359"/>
  <unicode hex="0072"/>
  <outline>
    <contour>
      <point x="214" y="0" type="line"/>
      <point x="34" y="0" type="line"/>
      <point x="34" y="494" type="line"/>
      <point x="202" y="494" type="line"/>
      <point x="208" y="456" type="line"/>
      <point x="210" y="456" type="line"/>
      <point x="241" y="479"/>
      <point x="302" y="503"/>
      <point x="331" y="503" type="qcurve"/>
      <point x="348" y="503" type="line"/>
      <point x="348" y="329" type="line"/>
      <point x="325" y="331"/>
      <point x="310" y="332"/>
      <point x="302" y="332" type="qcurve"/>
      <point x="277" y="332"/>
      <point x="233" y="326"/>
      <point x="214" y="320" type="qcurve"/>
    </contour>
    <contour>
      <point x="189" y="524" type="move" name="top"/>
    </contour>
    <contour>
      <point x="123" y="-4" type="move" name="bottom"/>
    </contour>
  </outline>
</glyph>
<glyph name="s" format="1">
  <advance width="442"/>
  <unicode hex="0073"/>
  <outline>
    <contour>
      <point x="245" y="365" type="qcurve" smooth="yes"/>
      <point x="210" y="365"/>
      <point x="186" y="355"/>
      <point x="186" y="340" type="qcurve" smooth="yes"/>
      <point x="186" y="332"/>
      <point x="195" y="324"/>
      <point x="204" y="323" type="qcurve"/>
      <point x="310" y="310" type="line" smooth="yes"/>
      <point x="376" y="302"/>
      <point x="425" y="240"/>
      <point x="425" y="170" type="qcurve" smooth="yes"/>
      <point x="425" y="76"/>
      <point x="332" y="-11"/>
      <point x="223" y="-11" type="qcurve" smooth="yes"/>
      <point x="164" y="-11"/>
      <point x="65" y="0"/>
      <point x="33" y="9" type="qcurve"/>
      <point x="33" y="153" type="line"/>
      <point x="73" y="144"/>
      <point x="163" y="134"/>
      <point x="203" y="134" type="qcurve" smooth="yes"/>
      <point x="237" y="134"/>
      <point x="260" y="146"/>
      <point x="260" y="163" type="qcurve" smooth="yes"/>
      <point x="260" y="169"/>
      <point x="252" y="178"/>
      <point x="244" y="179" type="qcurve"/>
      <point x="127" y="193" type="line" smooth="yes"/>
      <point x="69" y="201"/>
      <point x="18" y="267"/>
      <point x="18" y="333" type="qcurve" smooth="yes"/>
      <point x="18" y="419"/>
      <point x="127" y="504"/>
      <point x="235" y="504" type="qcurve" smooth="yes"/>
      <point x="284" y="504"/>
      <point x="364" y="499"/>
      <point x="394" y="494" type="qcurve"/>
      <point x="394" y="354" type="line"/>
      <point x="360" y="359"/>
      <point x="280" y="365"/>
    </contour>
    <contour>
      <point x="223" y="530" type="move" name="top"/>
    </contour>
    <contour>
      <point x="219" y="-4" type="move" name="bottom"/>
    </contour>
  </outline>
</glyph>
<glyph name="t" format="1">
  <advance width="386"/>
  <unicode hex="0074"/>
  <outline>
    <contour>
      <point x="66" y="345" type="line"/>
      <point x="15" y="345" type="line"/>
      <point x="15" y="494" type="line"/>
      <point x="73" y="494" type="line"/>
      <point x="94" y="607" type="line"/>
      <point x="246" y="607" type="line"/>
      <point x="246" y="494" type="line"/>
      <point x="370" y="494" type="line"/>
      <point x="370" y="345" type="line"/>
      <point x="246" y="345" type="line"/>
      <point x="246" y="196" type="line" smooth="yes"/>
      <point x="246" y="173"/>
      <point x="271" y="157"/>
      <point x="305" y="157" type="qcurve" smooth="yes"/>
      <point x="320" y="157"/>
      <point x="364" y="161"/>
      <point x="377" y="164" type="qcurve"/>
      <point x="377" y="9" type="line"/>
      <point x="362" y="2"/>
      <point x="283" y="-11"/>
      <point x="253" y="-11" type="qcurve" smooth="yes"/>
      <point x="153" y="-11"/>
      <point x="66" y="75"/>
      <point x="66" y="171" type="qcurve"/>
    </contour>
    <contour>
      <point x="287" y="727" type="move" name="caronalt"/>
    </contour>
    <contour>
      <point x="229" y="-4" type="move" name="bottom"/>
    </contour>
  </outline>
</glyph>
<glyph name="u" format="1">
  <advance width="527"/>
  <unicode hex="0075"/>
  <outline>
    <contour>
      <point x="193" y="-10" type="qcurve" smooth="yes"/>
      <point x="112" y="-10"/>
      <point x="32" y="72"/>
      <point x="32" y="155" type="qcurve"/>
      <point x="32" y="494" type="line"/>
      <point x="212" y="494" type="line"/>
      <point x="212" y="192" type="line" smooth="yes"/>
      <point x="212" y="173"/>
      <point x="233" y="157"/>
      <point x="256" y="157" type="qcurve" smooth="yes"/>
      <point x="270" y="157"/>
      <point x="299" y="162"/>
      <point x="314" y="167" type="qcurve"/>
      <point x="314" y="494" type="line"/>
      <point x="494" y="494" type="line"/>
      <point x="494" y="0" type="line"/>
      <point x="332" y="0" type="line"/>
      <point x="326" y="39" type="line"/>
      <point x="326" y="39" type="line"/>
      <point x="296" y="16"/>
      <point x="225" y="-10"/>
    </contour>
    <contour>
      <point x="267" y="524" type="move" name="top"/>
    </contour>
    <contour>
      <point x="488" y="0" type="move" name="ogonek"/>
    </contour>
  </outline>
</glyph>
<glyph name="v" format="1">
  <advance width="526"/>
  <unicode hex="0076"/>
  <outline>
    <contour>
      <point x="332" y="494" type="line"/>
      <point x="528" y="494" type="line"/>
      <point x="367" y="0" type="line"/>
      <point x="160" y="0" type="line"/>
      <point x="-3" y="494" type="line"/>
      <point x="195" y="494" type="line"/>
      <point x="264" y="163" type="line"/>
    </contour>
  </outline>
</glyph>
<glyph name="w" format="1">
  <advance width="765"/>
  <unicode hex="0077"/>
  <outline>
    <contour>
      <point x="569" y="494" type="line"/>
      <point x="766" y="494" type="line"/>
      <point x="636" y="0" type="line"/>
      <point x="425" y="0" type="line"/>
      <point x="377" y="237" type="line"/>
      <point x="335" y="0" type="line"/>
      <point x="130" y="0" type="line"/>
      <point x="-1" y="494" type="line"/>
      <point x="197" y="494" type="line"/>
      <point x="238" y="162" type="line"/>
      <point x="302" y="494" type="line"/>
      <point x="465" y="494" type="line"/>
      <point x="528" y="162" type="line"/>
    </contour>
    <contour>
      <point x="381" y="524" type="move" name="top"/>
    </contour>
  </outline>
</glyph>
<glyph name="x" format="1">
  <advance width="489"/>
  <unicode hex="0078"/>
  <outline>
    <contour>
      <point x="349" y="257" type="line"/>
      <point x="494" y="0" type="line"/>
      <point x="298" y="0" type="line"/>
      <point x="239" y="132" type="line"/>
      <point x="180" y="0" type="line"/>
      <point x="-5" y="0" type="line"/>
      <point x="141" y="257" type="line"/>
      <point x="-6" y="494" type="line"/>
      <point x="203" y="494" type="line"/>
      <point x="255" y="373" type="line"/>
      <point x="310" y="494" type="line"/>
      <point x="494" y="494" type="line"/>
    </contour>
    <contour>
      <point x="255" y="524" type="move" name="top"/>
    </contour>
  </outline>
</glyph>
<glyph name="y" format="1">
  <advance width="523"/>
  <unicode hex="0079"/>
  <outline>
    <contour>
      <point x="112" y="-14" type="qcurve"/>
      <point x="142" y="-14"/>
      <point x="169" y="-1"/>
      <point x="173" y="17" type="qcurve"/>
      <point x="-4" y="494" type="line"/>
      <point x="195" y="494" type="line"/>
      <point x="266" y="186" type="line"/>
      <point x="334" y="494" type="line"/>
      <point x="526" y="494" type="line"/>
      <point x="361" y="0" type="line" smooth="yes"/>
      <point x="332" y="-86"/>
      <point x="233" y="-162"/>
      <point x="150" y="-162" type="qcurve"/>
      <point x="127" y="-162"/>
      <point x="78" y="-158"/>
      <point x="61" y="-154" type="qcurve"/>
      <point x="61" y="-11" type="line"/>
      <point x="69" y="-12"/>
      <point x="95" y="-14"/>
    </contour>
    <contour>
      <point x="267" y="524" type="move" name="top"/>
    </contour>
  </outline>
</glyph>
<glyph name="z" format="1">
  <advance width="425"/>
  <unicode hex="007A"/>
  <outline>
    <contour>
      <point x="409" y="156" type="line"/>
      <point x="409" y="0" type="line"/>
      <point x="19" y="0" type="line"/>
      <point x="19" y="156" type="line"/>
      <point x="191" y="345" type="line"/>
      <point x="37" y="345" type="line"/>
      <point x="37" y="494" type="line"/>
      <point x="392" y="494" type="line"/>
      <point x="392" y="345" type="line"/>
      <point x="224" y="156" type="line"/>
    </contour>
    <contour>
      <point x="216" y="524" type="move" name="top"/>
    </contour>
  </outline>
</glyph>
<glyph name="braceleft" format="1">
  <advance width="291"/>
  <unicode hex="007B"/>
  <outline>
    <contour>
      <point x="121" y="317" type="qcurve"/>
      <point x="121" y="313" type="line"/>
      <point x="161" y="306"/>
      <point x="211" y="222"/>
      <point x="211" y="157" type="qcurve"/>
      <point x="211" y="56" type="line"/>
      <point x="211" y="26"/>
      <point x="236" y="9"/>
      <point x="278" y="9" type="qcurve"/>
      <point x="278" y="-92" type="line"/>
      <point x="187" y="-92"/>
      <point x="101" y="-23"/>
      <point x="101" y="50" type="qcurve"/>
      <point x="101" y="157" type="line" smooth="yes"/>
      <point x="101" y="209"/>
      <point x="50" y="271"/>
      <point x="17" y="271" type="qcurve"/>
      <point x="-1" y="271" type="line"/>
      <point x="-1" y="359" type="line"/>
      <point x="17" y="359" type="line"/>
      <point x="50" y="359"/>
      <point x="101" y="421"/>
      <point x="101" y="473" type="qcurve"/>
      <point x="101" y="576" type="line"/>
      <point x="101" y="649"/>
      <point x="187" y="718"/>
      <point x="278" y="718" type="qcurve"/>
      <point x="278" y="617" type="line"/>
      <point x="238" y="617"/>
      <point x="211" y="600"/>
      <point x="211" y="570" type="qcurve"/>
      <point x="211" y="473" type="line" smooth="yes"/>
      <point x="211" y="408"/>
      <point x="161" y="325"/>
    </contour>
  </outline>
</glyph>
<glyph name="braceright" format="1">
  <advance width="291"/>
  <unicode hex="007D"/>
  <outline>
    <contour>
      <point x="170" y="313" type="qcurve"/>
      <point x="170" y="317" type="line"/>
      <point x="130" y="325"/>
      <point x="80" y="408"/>
      <point x="80" y="473" type="qcurve"/>
      <point x="80" y="570" type="line"/>
      <point x="80" y="600"/>
      <point x="53" y="617"/>
      <point x="13" y="617" type="qcurve"/>
      <point x="13" y="718" type="line"/>
      <point x="104" y="718"/>
      <point x="190" y="649"/>
      <point x="190" y="576" type="qcurve"/>
      <point x="190" y="473" type="line" smooth="yes"/>
      <point x="190" y="421"/>
      <point x="241" y="359"/>
      <point x="274" y="359" type="qcurve"/>
      <point x="292" y="359" type="line"/>
      <point x="292" y="271" type="line"/>
      <point x="274" y="271" type="line"/>
      <point x="241" y="271"/>
      <point x="190" y="209"/>
      <point x="190" y="157" type="qcurve"/>
      <point x="190" y="50" type="line"/>
      <point x="190" y="-23"/>
      <point x="104" y="-92"/>
      <point x="13" y="-92" type="qcurve"/>
      <point x="13" y="9" type="line"/>
      <point x="55" y="9"/>
      <point x="80" y="26"/>
      <point x="80" y="56" type="qcurve"/>
      <point x="80" y="157" type="line"/>
      <point x="80" y="222"/>
      <point x="130" y="306"/>
    </contour>
  </outline>
</glyph>
<glyph name="asciitilde" format="1">
  <advance width="611"/>
  <unicode hex="007E"/>
  <outline>
    <contour>
      <point x="435" y="447" type="qcurve"/>
      <point x="593" y="447" type="line"/>
      <point x="593" y="325"/>
      <point x="512" y="191"/>
      <point x="436" y="191" type="qcurve"/>
      <point x="406" y="191"/>
      <point x="339" y="216"/>
      <point x="284" y="254" type="qcurve" smooth="yes"/>
      <point x="252" y="275"/>
      <point x="226" y="287"/>
      <point x="217" y="287" type="qcurve"/>
      <point x="197" y="287"/>
      <point x="176" y="239"/>
      <point x="176" y="198" type="qcurve"/>
      <point x="18" y="198" type="line"/>
      <point x="18" y="319"/>
      <point x="99" y="455"/>
      <point x="175" y="455" type="qcurve"/>
      <point x="205" y="455"/>
      <point x="272" y="430"/>
      <point x="328" y="394" type="qcurve" smooth="yes"/>
      <point x="360" y="374"/>
      <point x="385" y="362"/>
      <point x="394" y="362" type="qcurve"/>
      <point x="414" y="362"/>
      <point x="435" y="406"/>
    </contour>
  </outline>
</glyph>
<glyph name="exclamdown" format="1">
  <advance width="255"/>
  <unicode hex="00A1"/>
  <outline>
    <contour>
      <point x="35" y="494" type="line"/>
      <point x="219" y="494" type="line"/>
      <point x="219" y="336" type="line"/>
      <point x="35" y="336" type="line"/>
    </contour>
    <contour>
      <point x="207" y="279" type="line"/>
      <point x="229" y="-133" type="line"/>
      <point x="25" y="-133" type="line"/>
      <point x="48" y="279" type="line"/>
    </contour>
  </outline>
</glyph>
<glyph name="cent" format="1">
  <advance width="429"/>
  <unicode hex="00A2"/>
  <outline>
    <contour>
      <point x="292" y="62" type="qcurve"/>
      <point x="292" y="-19" type="line"/>
      <point x="194" y="-19" type="line"/>
      <point x="194" y="58" type="line"/>
      <point x="98" y="63"/>
      <point x="20" y="179"/>
      <point x="20" y="315" type="qcurve" smooth="yes"/>
      <point x="20" y="438"/>
      <point x="100" y="553"/>
      <point x="194" y="567" type="qcurve"/>
      <point x="194" y="650" type="line"/>
      <point x="292" y="650" type="line"/>
      <point x="292" y="572" type="line"/>
      <point x="320" y="571"/>
      <point x="367" y="568"/>
      <point x="398" y="564" type="qcurve"/>
      <point x="398" y="406" type="line"/>
      <point x="397" y="406"/>
      <point x="319" y="410"/>
      <point x="278" y="410" type="qcurve"/>
      <point x="227" y="410"/>
      <point x="200" y="378"/>
      <point x="200" y="315" type="qcurve" smooth="yes"/>
      <point x="200" y="258"/>
      <point x="224" y="225"/>
      <point x="264" y="225" type="qcurve"/>
      <point x="301" y="225"/>
      <point x="381" y="235"/>
      <point x="411" y="242" type="qcurve"/>
      <point x="411" y="94" type="line"/>
      <point x="395" y="84"/>
      <point x="331" y="67"/>
    </contour>
  </outline>
</glyph>
<glyph name="sterling" format="1">
  <advance width="471"/>
  <unicode hex="00A3"/>
  <outline>
    <contour>
      <point x="25" y="260" type="line"/>
      <point x="25" y="361" type="line"/>
      <point x="89" y="361" type="line"/>
      <point x="89" y="451" type="line" smooth="yes"/>
      <point x="89" y="543"/>
      <point x="194" y="637"/>
      <point x="292" y="637" type="qcurve" smooth="yes"/>
      <point x="331" y="637"/>
      <point x="391" y="630"/>
      <point x="435" y="620" type="qcurve"/>
      <point x="435" y="463" type="line"/>
      <point x="409" y="469"/>
      <point x="354" y="475"/>
      <point x="333" y="475" type="qcurve" smooth="yes"/>
      <point x="303" y="475"/>
      <point x="275" y="448"/>
      <point x="275" y="419" type="qcurve"/>
      <point x="275" y="361" type="line"/>
      <point x="401" y="361" type="line"/>
      <point x="401" y="260" type="line"/>
      <point x="275" y="260" type="line"/>
      <point x="275" y="227"/>
      <point x="237" y="178"/>
      <point x="203" y="168" type="qcurve"/>
      <point x="203" y="165" type="line"/>
      <point x="451" y="165" type="line"/>
      <point x="451" y="0" type="line"/>
      <point x="25" y="0" type="line"/>
      <point x="25" y="166" type="line"/>
      <point x="53" y="179"/>
      <point x="89" y="229"/>
      <point x="89" y="257" type="qcurve"/>
      <point x="89" y="260" type="line"/>
    </contour>
  </outline>
</glyph>
<glyph name="currency" format="1">
  <advance width="596"/>
  <unicode hex="00A4"/>
  <outline>
    <contour>
      <point x="90" y="38" type="line"/>
      <point x="18" y="110" type="line"/>
      <point x="79" y="172" type="line"/>
      <point x="58" y="204"/>
      <point x="37" y="277"/>
      <point x="38" y="316" type="qcurve" smooth="yes"/>
      <point x="37" y="356"/>
      <point x="59" y="430"/>
      <point x="81" y="463" type="qcurve"/>
      <point x="20" y="523" type="line"/>
      <point x="92" y="595" type="line"/>
      <point x="153" y="534" type="line"/>
      <point x="185" y="554"/>
      <point x="258" y="575"/>
      <point x="297" y="575" type="qcurve" smooth="yes"/>
      <point x="336" y="575"/>
      <point x="409" y="554"/>
      <point x="441" y="534" type="qcurve"/>
      <point x="503" y="595" type="line"/>
      <point x="575" y="521" type="line"/>
      <point x="516" y="461" type="line"/>
      <point x="538" y="429"/>
      <point x="560" y="355"/>
      <point x="560" y="315" type="qcurve" smooth="yes"/>
      <point x="560" y="276"/>
      <point x="538" y="202"/>
      <point x="517" y="170" type="qcurve"/>
      <point x="577" y="109" type="line"/>
      <point x="505" y="37" type="line"/>
      <point x="444" y="98" type="line"/>
      <point x="413" y="77"/>
      <point x="339" y="56"/>
      <point x="299" y="56" type="qcurve" smooth="yes"/>
      <point x="258" y="56"/>
      <point x="183" y="78"/>
      <point x="152" y="99" type="qcurve"/>
    </contour>
    <contour>
      <point x="300" y="419" type="qcurve" smooth="yes"/>
      <point x="255" y="419"/>
      <point x="203" y="366"/>
      <point x="202" y="319" type="qcurve" smooth="yes"/>
      <point x="203" y="271"/>
      <point x="254" y="218"/>
      <point x="299" y="219" type="qcurve" smooth="yes"/>
      <point x="344" y="218"/>
      <point x="396" y="271"/>
      <point x="396" y="319" type="qcurve" smooth="yes"/>
      <point x="396" y="365"/>
      <point x="345" y="418"/>
    </contour>
  </outline>
</glyph>
<glyph name="yen" format="1">
  <advance width="572"/>
  <unicode hex="00A5"/>
  <outline>
    <contour>
      <point x="75" y="101" type="line"/>
      <point x="75" y="186" type="line"/>
      <point x="195" y="186" type="line"/>
      <point x="195" y="217" type="line"/>
      <point x="75" y="217" type="line"/>
      <point x="75" y="302" type="line"/>
      <point x="161" y="302" type="line"/>
      <point x="9" y="627" type="line"/>
      <point x="217" y="627" type="line"/>
      <point x="289" y="385" type="line"/>
      <point x="371" y="627" type="line"/>
      <point x="562" y="627" type="line"/>
      <point x="415" y="302" type="line"/>
      <point x="502" y="302" type="line"/>
      <point x="502" y="217" type="line"/>
      <point x="382" y="217" type="line"/>
      <point x="382" y="186" type="line"/>
      <point x="502" y="186" type="line"/>
      <point x="502" y="101" type="line"/>
      <point x="382" y="101" type="line"/>
      <point x="382" y="0" type="line"/>
      <point x="195" y="0" type="line"/>
      <point x="195" y="101" type="line"/>
    </contour>
  </outline>
</glyph>
<glyph name="brokenbar" format="1">
  <advance width="186"/>
  <unicode hex="00A6"/>
  <outline>
    <contour>
      <point x="149" y="707" type="line"/>
      <point x="149" y="380" type="line"/>
      <point x="38" y="380" type="line"/>
      <point x="38" y="707" type="line"/>
    </contour>
    <contour>
      <point x="149" y="247" type="line"/>
      <point x="149" y="-80" type="line"/>
      <point x="38" y="-80" type="line"/>
      <point x="38" y="247" type="line"/>
    </contour>
  </outline>
</glyph>
<glyph name="section" format="1">
  <advance width="453"/>
  <unicode hex="00A7"/>
  <outline>
    <contour>
      <point x="264" y="517" type="qcurve"/>
      <point x="237" y="517"/>
      <point x="213" y="508"/>
      <point x="213" y="497" type="qcurve"/>
      <point x="213" y="489"/>
      <point x="226" y="477"/>
      <point x="253" y="466" type="qcurve"/>
      <point x="355" y="424" type="line" smooth="yes"/>
      <point x="394" y="408"/>
      <point x="437" y="354"/>
      <point x="437" y="320" type="qcurve"/>
      <point x="437" y="286"/>
      <point x="409" y="226"/>
      <point x="382" y="202" type="qcurve"/>
      <point x="393" y="189"/>
      <point x="404" y="153"/>
      <point x="404" y="130" type="qcurve"/>
      <point x="404" y="64"/>
      <point x="313" y="-10"/>
      <point x="231" y="-10" type="qcurve"/>
      <point x="181" y="-10"/>
      <point x="106" y="-2"/>
      <point x="72" y="7" type="qcurve"/>
      <point x="72" y="129" type="line"/>
      <point x="105" y="119"/>
      <point x="161" y="110"/>
      <point x="189" y="110" type="qcurve"/>
      <point x="216" y="110"/>
      <point x="241" y="119"/>
      <point x="241" y="130" type="qcurve"/>
      <point x="241" y="138"/>
      <point x="229" y="149"/>
      <point x="200" y="161" type="qcurve"/>
      <point x="96" y="202" type="line" smooth="yes"/>
      <point x="59" y="217"/>
      <point x="17" y="272"/>
      <point x="17" y="307" type="qcurve"/>
      <point x="17" y="342"/>
      <point x="45" y="402"/>
      <point x="72" y="425" type="qcurve"/>
      <point x="60" y="438"/>
      <point x="49" y="473"/>
      <point x="49" y="497" type="qcurve"/>
      <point x="49" y="562"/>
      <point x="141" y="637"/>
      <point x="222" y="637" type="qcurve"/>
      <point x="272" y="637"/>
      <point x="347" y="629"/>
      <point x="382" y="620" type="qcurve"/>
      <point x="382" y="498" type="line"/>
      <point x="348" y="508"/>
      <point x="292" y="517"/>
    </contour>
    <contour>
      <point x="165" y="336" type="qcurve"/>
      <point x="165" y="321"/>
      <point x="178" y="304"/>
      <point x="197" y="296" type="qcurve"/>
      <point x="281" y="261" type="line"/>
      <point x="285" y="268"/>
      <point x="289" y="284"/>
      <point x="289" y="290" type="qcurve"/>
      <point x="289" y="305"/>
      <point x="275" y="323"/>
      <point x="257" y="330" type="qcurve"/>
      <point x="173" y="366" type="line"/>
      <point x="169" y="357"/>
      <point x="165" y="342"/>
    </contour>
  </outline>
</glyph>
<glyph name="dieresis" format="1">
  <advance width="435"/>
  <unicode hex="00A8"/>
  <outline>
    <contour>
      <point x="385" y="674" type="line"/>
      <point x="385" y="542" type="line"/>
      <point x="240" y="542" type="line"/>
      <point x="240" y="674" type="line"/>
    </contour>
    <contour>
      <point x="195" y="674" type="line"/>
      <point x="195" y="542" type="line"/>
      <point x="50" y="542" type="line"/>
      <point x="50" y="674" type="line"/>
    </contour>
    <contour>
      <point x="218" y="530" type="move" name="_top"/>
    </contour>
  </outline>
</glyph>
<glyph name="copyright" format="1">
  <advance width="665"/>
  <unicode hex="00A9"/>
  <outline>
    <contour>
      <point x="646" y="314" type="qcurve"/>
      <point x="646" y="160"/>
      <point x="482" y="-10"/>
      <point x="334" y="-10" type="qcurve"/>
      <point x="180" y="-10"/>
      <point x="20" y="155"/>
      <point x="20" y="314" type="qcurve"/>
      <point x="20" y="468"/>
      <point x="185" y="637"/>
      <point x="334" y="637" type="qcurve"/>
      <point x="487" y="637"/>
      <point x="646" y="473"/>
    </contour>
    <contour>
      <point x="545" y="313" type="qcurve"/>
      <point x="545" y="429"/>
      <point x="441" y="543"/>
      <point x="335" y="543" type="qcurve"/>
      <point x="227" y="543"/>
      <point x="121" y="430"/>
      <point x="121" y="313" type="qcurve"/>
      <point x="121" y="200"/>
      <point x="226" y="91"/>
      <point x="335" y="91" type="qcurve"/>
      <point x="442" y="91"/>
      <point x="545" y="200"/>
    </contour>
    <contour>
      <point x="359" y="247" type="qcurve"/>
      <point x="381" y="247"/>
      <point x="428" y="255"/>
      <point x="452" y="262" type="qcurve"/>
      <point x="452" y="159" type="line"/>
      <point x="431" y="149"/>
      <point x="369" y="137"/>
      <point x="335" y="137" type="qcurve"/>
      <point x="247" y="137"/>
      <point x="166" y="224"/>
      <point x="166" y="316" type="qcurve" smooth="yes"/>
      <point x="166" y="406"/>
      <point x="254" y="494"/>
      <point x="344" y="494" type="qcurve"/>
      <point x="372" y="494"/>
      <point x="418" y="488"/>
      <point x="443" y="482" type="qcurve"/>
      <point x="443" y="384" type="line"/>
      <point x="405" y="388"/>
      <point x="376" y="390"/>
      <point x="357" y="390" type="qcurve"/>
      <point x="325" y="390"/>
      <point x="299" y="356"/>
      <point x="299" y="317" type="qcurve" smooth="yes"/>
      <point x="299" y="281"/>
      <point x="328" y="247"/>
    </contour>
  </outline>
</glyph>
<glyph name="ordfeminine" format="1">
  <advance width="321"/>
  <unicode hex="00AA"/>
  <outline>
    <contour>
      <point x="288" y="354" type="line"/>
      <point x="191" y="354" type="line"/>
      <point x="188" y="375" type="line"/>
      <point x="186" y="375" type="line"/>
      <point x="166" y="360"/>
      <point x="131" y="348"/>
      <point x="111" y="348" type="qcurve"/>
      <point x="68" y="348"/>
      <point x="26" y="392"/>
      <point x="26" y="438" type="qcurve"/>
      <point x="26" y="485"/>
      <point x="77" y="523"/>
      <point x="138" y="523" type="qcurve"/>
      <point x="147" y="523"/>
      <point x="173" y="521"/>
      <point x="185" y="519" type="qcurve"/>
      <point x="185" y="529" type="line" smooth="yes"/>
      <point x="185" y="539"/>
      <point x="167" y="548"/>
      <point x="143" y="548" type="qcurve" smooth="yes"/>
      <point x="120" y="548"/>
      <point x="79" y="545"/>
      <point x="53" y="542" type="qcurve"/>
      <point x="53" y="626" type="line"/>
      <point x="79" y="631"/>
      <point x="136" y="636"/>
      <point x="176" y="636" type="qcurve"/>
      <point x="230" y="636"/>
      <point x="288" y="591"/>
      <point x="288" y="548" type="qcurve"/>
    </contour>
    <contour>
      <point x="151" y="460" type="qcurve"/>
      <point x="134" y="460"/>
      <point x="122" y="453"/>
      <point x="122" y="444" type="qcurve"/>
      <point x="122" y="436"/>
      <point x="133" y="429"/>
      <point x="145" y="429" type="qcurve"/>
      <point x="154" y="429"/>
      <point x="172" y="432"/>
      <point x="185" y="436" type="qcurve"/>
      <point x="185" y="458" type="line"/>
      <point x="177" y="459"/>
      <point x="160" y="460"/>
    </contour>
    <contour>
      <point x="292" y="226" type="line"/>
      <point x="26" y="226" type="line"/>
      <point x="26" y="316" type="line"/>
      <point x="292" y="316" type="line"/>
    </contour>
  </outline>
</glyph>
<glyph name="guillemotleft" format="1">
  <advance width="518"/>
  <unicode hex="00AB"/>
  <outline>
    <contour>
      <point x="293" y="64" type="line"/>
      <point x="148" y="64" type="line"/>
      <point x="11" y="281" type="line"/>
      <point x="148" y="494" type="line"/>
      <point x="293" y="494" type="line"/>
      <point x="158" y="284" type="line"/>
    </contour>
    <contour>
      <point x="506" y="64" type="line"/>
      <point x="361" y="64" type="line"/>
      <point x="223" y="281" type="line"/>
      <point x="361" y="494" type="line"/>
      <point x="506" y="494" type="line"/>
      <point x="371" y="283" type="line"/>
    </contour>
  </outline>
</glyph>
<glyph name="logicalnot" format="1">
  <advance width="500"/>
  <unicode hex="00AC"/>
  <outline>
    <contour>
      <point x="463" y="392" type="line"/>
      <point x="463" y="106" type="line"/>
      <point x="306" y="106" type="line"/>
      <point x="306" y="240" type="line"/>
      <point x="37" y="240" type="line"/>
      <point x="37" y="392" type="line"/>
    </contour>
  </outline>
</glyph>
<glyph name="registered" format="1">
  <advance width="395"/>
  <unicode hex="00AE"/>
  <outline>
    <contour>
      <point x="379" y="454" type="qcurve"/>
      <point x="379" y="364"/>
      <point x="287" y="270"/>
      <point x="198" y="270" type="qcurve"/>
      <point x="107" y="270"/>
      <point x="16" y="362"/>
      <point x="16" y="454" type="qcurve"/>
      <point x="16" y="543"/>
      <point x="110" y="637"/>
      <point x="199" y="637" type="qcurve"/>
      <point x="289" y="637"/>
      <point x="379" y="545"/>
    </contour>
    <contour>
      <point x="317" y="454" type="qcurve"/>
      <point x="317" y="520"/>
      <point x="260" y="583"/>
      <point x="199" y="583" type="qcurve"/>
      <point x="137" y="583"/>
      <point x="78" y="520"/>
      <point x="78" y="454" type="qcurve"/>
      <point x="78" y="389"/>
      <point x="137" y="328"/>
      <point x="199" y="328" type="qcurve"/>
      <point x="260" y="328"/>
      <point x="317" y="389"/>
    </contour>
    <contour>
      <point x="178" y="418" type="line"/>
      <point x="178" y="355" type="line"/>
      <point x="122" y="355" type="line"/>
      <point x="122" y="557" type="line"/>
      <point x="197" y="557" type="line" smooth="yes"/>
      <point x="244" y="557"/>
      <point x="283" y="524"/>
      <point x="283" y="488" type="qcurve"/>
      <point x="283" y="463"/>
      <point x="263" y="432"/>
      <point x="243" y="424" type="qcurve"/>
      <point x="284" y="355" type="line"/>
      <point x="216" y="355" type="line"/>
      <point x="184" y="418" type="line"/>
    </contour>
    <contour>
      <point x="226" y="488" type="qcurve"/>
      <point x="226" y="498"/>
      <point x="214" y="506"/>
      <point x="197" y="506" type="qcurve"/>
      <point x="178" y="506" type="line"/>
      <point x="178" y="463" type="line"/>
      <point x="197" y="463" type="line" smooth="yes"/>
      <point x="215" y="463"/>
      <point x="226" y="475"/>
    </contour>
  </outline>
</glyph>
<glyph name="degree" format="1">
  <advance width="300"/>
  <unicode hex="00B0"/>
  <outline>
    <contour>
      <point x="288" y="499" type="qcurve" smooth="yes"/>
      <point x="288" y="438"/>
      <point x="213" y="366"/>
      <point x="150" y="366" type="qcurve" smooth="yes"/>
      <point x="87" y="366"/>
      <point x="12" y="438"/>
      <point x="12" y="499" type="qcurve" smooth="yes"/>
      <point x="12" y="561"/>
      <point x="87" y="634"/>
      <point x="150" y="634" type="qcurve" smooth="yes"/>
      <point x="213" y="634"/>
      <point x="288" y="561"/>
    </contour>
    <contour>
      <point x="115" y="501" type="qcurve" smooth="yes"/>
      <point x="115" y="483"/>
      <point x="133" y="463"/>
      <point x="150" y="463" type="qcurve" smooth="yes"/>
      <point x="167" y="463"/>
      <point x="186" y="483"/>
      <point x="186" y="501" type="qcurve" smooth="yes"/>
      <point x="186" y="518"/>
      <point x="167" y="537"/>
      <point x="150" y="537" type="qcurve" smooth="yes"/>
      <point x="133" y="537"/>
      <point x="115" y="518"/>
    </contour>
  </outline>
</glyph>
<glyph name="plusminus" format="1">
  <advance width="500"/>
  <unicode hex="00B1"/>
  <outline>
    <contour>
      <point x="463" y="487" type="line"/>
      <point x="463" y="335" type="line"/>
      <point x="329" y="335" type="line"/>
      <point x="329" y="219" type="line"/>
      <point x="172" y="219" type="line"/>
      <point x="172" y="335" type="line"/>
      <point x="37" y="335" type="line"/>
      <point x="37" y="487" type="line"/>
      <point x="172" y="487" type="line"/>
      <point x="172" y="601" type="line"/>
      <point x="329" y="601" type="line"/>
      <point x="329" y="487" type="line"/>
    </contour>
    <contour>
      <point x="463" y="176" type="line"/>
      <point x="463" y="24" type="line"/>
      <point x="37" y="24" type="line"/>
      <point x="37" y="176" type="line"/>
    </contour>
  </outline>
</glyph>
<glyph name="uni00B2" format="1">
  <advance width="287"/>
  <unicode hex="00B2"/>
  <outline>
    <contour>
      <point x="267" y="378" type="line"/>
      <point x="267" y="270" type="line"/>
      <point x="14" y="270" type="line"/>
      <point x="14" y="378" type="line"/>
      <point x="139" y="489" type="line" smooth="yes"/>
      <point x="148" y="498"/>
      <point x="154" y="509"/>
      <point x="154" y="515" type="qcurve"/>
      <point x="154" y="521"/>
      <point x="144" y="528"/>
      <point x="135" y="528" type="qcurve"/>
      <point x="121" y="528"/>
      <point x="81" y="525"/>
      <point x="47" y="521" type="qcurve" smooth="yes"/>
      <point x="38" y="520"/>
      <point x="32" y="519"/>
      <point x="31" y="519" type="qcurve"/>
      <point x="31" y="619" type="line"/>
      <point x="55" y="625"/>
      <point x="125" y="633"/>
      <point x="159" y="633" type="qcurve"/>
      <point x="211" y="633"/>
      <point x="269" y="582"/>
      <point x="269" y="537" type="qcurve"/>
      <point x="269" y="507"/>
      <point x="252" y="465"/>
      <point x="231" y="447" type="qcurve"/>
      <point x="152" y="378" type="line"/>
    </contour>
  </outline>
</glyph>
<glyph name="uni00B3" format="1">
  <advance width="277"/>
  <unicode hex="00B3"/>
  <outline>
    <contour>
      <point x="250" y="539" type="qcurve"/>
      <point x="250" y="506"/>
      <point x="222" y="465"/>
      <point x="194" y="458" type="qcurve"/>
      <point x="195" y="458" type="line"/>
      <point x="229" y="455"/>
      <point x="263" y="413"/>
      <point x="263" y="374" type="qcurve"/>
      <point x="263" y="321"/>
      <point x="193" y="264"/>
      <point x="129" y="264" type="qcurve"/>
      <point x="92" y="264"/>
      <point x="31" y="270"/>
      <point x="16" y="276" type="qcurve"/>
      <point x="16" y="372" type="line"/>
      <point x="36" y="369"/>
      <point x="80" y="366"/>
      <point x="112" y="366" type="qcurve"/>
      <point x="137" y="366"/>
      <point x="154" y="374"/>
      <point x="154" y="386" type="qcurve"/>
      <point x="154" y="396"/>
      <point x="140" y="405"/>
      <point x="124" y="405" type="qcurve"/>
      <point x="52" y="405" type="line"/>
      <point x="52" y="498" type="line"/>
      <point x="109" y="498" type="line"/>
      <point x="126" y="498"/>
      <point x="142" y="507"/>
      <point x="142" y="516" type="qcurve"/>
      <point x="142" y="526"/>
      <point x="127" y="534"/>
      <point x="109" y="534" type="qcurve"/>
      <point x="100" y="534"/>
      <point x="70" y="531"/>
      <point x="41" y="528" type="qcurve" smooth="yes"/>
      <point x="30" y="527"/>
      <point x="23" y="526"/>
      <point x="22" y="526" type="qcurve"/>
      <point x="22" y="617" type="line"/>
      <point x="42" y="624"/>
      <point x="112" y="633"/>
      <point x="145" y="633" type="qcurve"/>
      <point x="196" y="633"/>
      <point x="250" y="585"/>
    </contour>
  </outline>
</glyph>
<glyph name="acute" format="1">
  <advance width="392"/>
  <unicode hex="00B4"/>
  <outline>
    <contour>
      <point x="156" y="678" type="line"/>
      <point x="342" y="678" type="line"/>
      <point x="187" y="542" type="line"/>
      <point x="50" y="542" type="line"/>
    </contour>
    <contour>
      <point x="155" y="530" type="move" name="_top"/>
    </contour>
  </outline>
</glyph>
<glyph name="paragraph" format="1">
  <advance width="489"/>
  <unicode hex="00B6"/>
  <outline>
    <contour>
      <point x="450" y="627" type="qcurve"/>
      <point x="450" y="25" type="line" smooth="yes"/>
      <point x="450" y="-62"/>
      <point x="357" y="-162"/>
      <point x="278" y="-162" type="qcurve"/>
      <point x="260" y="-162"/>
      <point x="230" y="-160"/>
      <point x="197" y="-156" type="qcurve"/>
      <point x="197" y="-8" type="line"/>
      <point x="204" y="-9"/>
      <point x="218" y="-10"/>
      <point x="225" y="-10" type="qcurve"/>
      <point x="251" y="-10"/>
      <point x="270" y="8"/>
      <point x="270" y="30" type="qcurve"/>
      <point x="270" y="135" type="line"/>
      <point x="258" y="133"/>
      <point x="229" y="131"/>
      <point x="211" y="131" type="qcurve"/>
      <point x="102" y="131"/>
      <point x="14" y="243"/>
      <point x="14" y="382" type="qcurve" smooth="yes"/>
      <point x="14" y="526"/>
      <point x="127" y="639"/>
      <point x="270" y="639" type="qcurve"/>
      <point x="315" y="639"/>
      <point x="406" y="633"/>
    </contour>
    <contour>
      <point x="246" y="479" type="qcurve"/>
      <point x="205" y="479"/>
      <point x="184" y="443"/>
      <point x="184" y="383" type="qcurve" smooth="yes"/>
      <point x="184" y="325"/>
      <point x="203" y="292"/>
      <point x="238" y="292" type="qcurve"/>
      <point x="246" y="292"/>
      <point x="262" y="294"/>
      <point x="270" y="295" type="qcurve"/>
      <point x="270" y="478" type="line"/>
      <point x="266" y="479"/>
      <point x="257" y="479"/>
    </contour>
  </outline>
</glyph>
<glyph name="cedilla" format="1">
  <advance width="333"/>
  <unicode hex="00B8"/>
  <outline>
    <contour>
      <point x="281" y="-109" type="qcurve"/>
      <point x="281" y="-152"/>
      <point x="221" y="-195"/>
      <point x="161" y="-195" type="qcurve" smooth="yes"/>
      <point x="132" y="-195"/>
      <point x="69" y="-188"/>
      <point x="60" y="-184" type="qcurve"/>
      <point x="60" y="-112" type="line"/>
      <point x="72" y="-115"/>
      <point x="118" y="-121"/>
      <point x="135" y="-121" type="qcurve" smooth="yes"/>
      <point x="152" y="-121"/>
      <point x="166" y="-112"/>
      <point x="166" y="-100" type="qcurve"/>
      <point x="166" y="-90"/>
      <point x="147" y="-80"/>
      <point x="126" y="-80" type="qcurve"/>
      <point x="117" y="-80"/>
      <point x="86" y="-82"/>
      <point x="77" y="-82" type="qcurve"/>
      <point x="99" y="25" type="line"/>
      <point x="205" y="15" type="line"/>
      <point x="195" y="-38" type="line"/>
      <point x="234" y="-38"/>
      <point x="281" y="-76"/>
    </contour>
    <contour>
      <point x="151" y="0" type="move" name="_bottom"/>
    </contour>
  </outline>
</glyph>
<glyph name="ordmasculine" format="1">
  <advance width="342"/>
  <unicode hex="00BA"/>
  <outline>
    <contour>
      <point x="319" y="492" type="qcurve" smooth="yes"/>
      <point x="319" y="419"/>
      <point x="247" y="348"/>
      <point x="172" y="348" type="qcurve" smooth="yes"/>
      <point x="97" y="348"/>
      <point x="25" y="419"/>
      <point x="25" y="492" type="qcurve" smooth="yes"/>
      <point x="25" y="566"/>
      <point x="97" y="636"/>
      <point x="172" y="636" type="qcurve" smooth="yes"/>
      <point x="247" y="636"/>
      <point x="319" y="565"/>
    </contour>
    <contour>
      <point x="128" y="493" type="qcurve" smooth="yes"/>
      <point x="128" y="466"/>
      <point x="148" y="443"/>
      <point x="172" y="443" type="qcurve" smooth="yes"/>
      <point x="196" y="443"/>
      <point x="215" y="465"/>
      <point x="215" y="493" type="qcurve" smooth="yes"/>
      <point x="215" y="521"/>
      <point x="196" y="543"/>
      <point x="172" y="543" type="qcurve" smooth="yes"/>
      <point x="147" y="543"/>
      <point x="128" y="521"/>
    </contour>
    <contour>
      <point x="312" y="226" type="line"/>
      <point x="30" y="226" type="line"/>
      <point x="30" y="316" type="line"/>
      <point x="312" y="316" type="line"/>
    </contour>
  </outline>
</glyph>
<glyph name="guillemotright" format="1">
  <advance width="518"/>
  <unicode hex="00BB"/>
  <outline>
    <contour>
      <point x="507" y="281" type="line"/>
      <point x="370" y="64" type="line"/>
      <point x="225" y="64" type="line"/>
      <point x="360" y="284" type="line"/>
      <point x="225" y="494" type="line"/>
      <point x="370" y="494" type="line"/>
    </contour>
    <contour>
      <point x="295" y="281" type="line"/>
      <point x="157" y="64" type="line"/>
      <point x="12" y="64" type="line"/>
      <point x="147" y="283" type="line"/>
      <point x="12" y="494" type="line"/>
      <point x="157" y="494" type="line"/>
    </contour>
  </outline>
</glyph>
<glyph name="questiondown" format="1">
  <advance width="373"/>
  <unicode hex="00BF"/>
  <outline>
    <contour>
      <point x="118" y="336" type="line"/>
      <point x="118" y="494" type="line"/>
      <point x="303" y="494" type="line"/>
      <point x="303" y="336" type="line"/>
    </contour>
    <contour>
      <point x="182" y="-143" type="qcurve"/>
      <point x="103" y="-143"/>
      <point x="12" y="-69"/>
      <point x="12" y="-3" type="qcurve" smooth="yes"/>
      <point x="12" y="52"/>
      <point x="65" y="139"/>
      <point x="129" y="183" type="qcurve"/>
      <point x="129" y="278" type="line"/>
      <point x="292" y="278" type="line"/>
      <point x="292" y="141" type="line"/>
      <point x="231" y="110"/>
      <point x="180" y="66"/>
      <point x="180" y="46" type="qcurve" smooth="yes"/>
      <point x="180" y="30"/>
      <point x="198" y="15"/>
      <point x="218" y="15" type="qcurve"/>
      <point x="245" y="15"/>
      <point x="327" y="30"/>
      <point x="355" y="39" type="qcurve"/>
      <point x="355" y="-115" type="line"/>
      <point x="314" y="-130"/>
      <point x="236" y="-143"/>
    </contour>
  </outline>
</glyph>
<glyph name="AE" format="1">
  <advance width="751"/>
  <unicode hex="00C6"/>
  <outline>
    <contour>
      <point x="185" y="0" type="line"/>
      <point x="-6" y="0" type="line"/>
      <point x="213" y="627" type="line"/>
      <point x="720" y="627" type="line"/>
      <point x="720" y="464" type="line"/>
      <point x="458" y="464" type="line"/>
      <point x="480" y="393" type="line"/>
      <point x="683" y="393" type="line"/>
      <point x="683" y="241" type="line"/>
      <point x="525" y="241" type="line"/>
      <point x="548" y="167" type="line"/>
      <point x="729" y="167" type="line"/>
      <point x="729" y="0" type="line"/>
      <point x="429" y="0" type="line"/>
      <point x="403" y="87" type="line"/>
      <point x="210" y="87" type="line"/>
    </contour>
    <contour>
      <point x="306" y="431" type="qcurve"/>
      <point x="299" y="401"/>
      <point x="282" y="337"/>
      <point x="268" y="286" type="qcurve"/>
      <point x="252" y="231" type="line"/>
      <point x="361" y="231" type="line"/>
      <point x="345" y="286" type="line" smooth="yes"/>
      <point x="338" y="309"/>
      <point x="317" y="388"/>
    </contour>
    <contour>
      <point x="422" y="645" type="move" name="top"/>
    </contour>
  </outline>
</glyph>
<glyph name="Ccedilla" format="1">
  <advance width="507"/>
  <unicode hex="00C7"/>
  <outline>
    <contour>
      <point x="415" y="-109" type="qcurve"/>
      <point x="415" y="-152"/>
      <point x="355" y="-195"/>
      <point x="295" y="-195" type="qcurve" smooth="yes"/>
      <point x="266" y="-195"/>
      <point x="203" y="-188"/>
      <point x="194" y="-184" type="qcurve"/>
      <point x="194" y="-112" type="line"/>
      <point x="206" y="-115"/>
      <point x="252" y="-121"/>
      <point x="269" y="-121" type="qcurve" smooth="yes"/>
      <point x="286" y="-121"/>
      <point x="300" y="-112"/>
      <point x="300" y="-100" type="qcurve"/>
      <point x="300" y="-90"/>
      <point x="281" y="-80"/>
      <point x="260" y="-80" type="qcurve"/>
      <point x="251" y="-80"/>
      <point x="220" y="-82"/>
      <point x="211" y="-82" type="qcurve"/>
      <point x="226" y="-7" type="line"/>
      <point x="114" y="6"/>
      <point x="21" y="155"/>
      <point x="21" y="314" type="qcurve" smooth="yes"/>
      <point x="21" y="481"/>
      <point x="169" y="637"/>
      <point x="331" y="637" type="qcurve"/>
      <point x="377" y="637"/>
      <point x="449" y="633"/>
      <point x="478" y="628" type="qcurve"/>
      <point x="478" y="465" type="line"/>
      <point x="446" y="467"/>
      <point x="376" y="469"/>
      <point x="333" y="469" type="qcurve"/>
      <point x="260" y="469"/>
      <point x="214" y="404"/>
      <point x="214" y="314" type="qcurve" smooth="yes"/>
      <point x="214" y="229"/>
      <point x="257" y="163"/>
      <point x="323" y="163" type="qcurve" smooth="yes"/>
      <point x="363" y="163"/>
      <point x="456" y="179"/>
      <point x="492" y="192" type="qcurve"/>
      <point x="492" y="28" type="line"/>
      <point x="449" y="10"/>
      <point x="375" y="-7"/>
      <point x="334" y="-10" type="qcurve"/>
      <point x="329" y="-38" type="line"/>
      <point x="368" y="-38"/>
      <point x="415" y="-76"/>
    </contour>
  </outline>
</glyph>
<glyph name="Eth" format="1">
  <advance width="650"/>
  <unicode hex="00D0"/>
  <outline>
    <contour>
      <point x="15" y="259" type="line"/>
      <point x="15" y="381" type="line"/>
      <point x="86" y="381" type="line"/>
      <point x="86" y="627" type="line"/>
      <point x="321" y="627" type="line" smooth="yes"/>
      <point x="415" y="627"/>
      <point x="529" y="595"/>
      <point x="563" y="559" type="qcurve" smooth="yes"/>
      <point x="597" y="523"/>
      <point x="629" y="404"/>
      <point x="629" y="314" type="qcurve"/>
      <point x="629" y="151"/>
      <point x="483" y="0"/>
      <point x="321" y="0" type="qcurve"/>
      <point x="86" y="0" type="line"/>
      <point x="86" y="259" type="line"/>
    </contour>
    <contour>
      <point x="372" y="381" type="line"/>
      <point x="372" y="259" type="line"/>
      <point x="271" y="259" type="line"/>
      <point x="271" y="169" type="line"/>
      <point x="321" y="169" type="line" smooth="yes"/>
      <point x="394" y="169"/>
      <point x="437" y="229"/>
      <point x="437" y="314" type="qcurve"/>
      <point x="437" y="402"/>
      <point x="394" y="463"/>
      <point x="321" y="463" type="qcurve"/>
      <point x="271" y="463" type="line"/>
      <point x="271" y="381" type="line"/>
    </contour>
  </outline>
</glyph>
<glyph name="multiply" format="1">
  <advance width="500"/>
  <unicode hex="00D7"/>
  <outline>
    <contour>
      <point x="28" y="433" type="line"/>
      <point x="139" y="544" type="line"/>
      <point x="252" y="432" type="line"/>
      <point x="364" y="544" type="line"/>
      <point x="472" y="437" type="line"/>
      <point x="359" y="324" type="line"/>
      <point x="474" y="209" type="line"/>
      <point x="362" y="99" type="line"/>
      <point x="248" y="213" type="line"/>
      <point x="135" y="100" type="line"/>
      <point x="27" y="207" type="line"/>
      <point x="141" y="321" type="line"/>
    </contour>
  </outline>
</glyph>
<glyph name="Oslash" format="1">
  <advance width="645"/>
  <unicode hex="00D8"/>
  <outline>
    <contour>
      <point x="134" y="-75" type="line"/>
      <point x="36" y="-10" type="line"/>
      <point x="86" y="65" type="line"/>
      <point x="53" y="103"/>
      <point x="21" y="224"/>
      <point x="21" y="314" type="qcurve"/>
      <point x="21" y="484"/>
      <point x="164" y="637"/>
      <point x="322" y="637" type="qcurve"/>
      <point x="361" y="637"/>
      <point x="427" y="630"/>
      <point x="455" y="622" type="qcurve"/>
      <point x="511" y="707" type="line"/>
      <point x="610" y="643" type="line"/>
      <point x="557" y="563" type="line"/>
      <point x="591" y="526"/>
      <point x="624" y="405"/>
      <point x="624" y="314" type="qcurve"/>
      <point x="624" y="142"/>
      <point x="481" y="-11"/>
      <point x="322" y="-11" type="qcurve"/>
      <point x="282" y="-11"/>
      <point x="215" y="-3"/>
      <point x="187" y="5" type="qcurve"/>
    </contour>
    <contour>
      <point x="209" y="314" type="qcurve"/>
      <point x="209" y="225"/>
      <point x="252" y="163"/>
      <point x="322" y="163" type="qcurve" smooth="yes"/>
      <point x="393" y="163"/>
      <point x="436" y="224"/>
      <point x="436" y="314" type="qcurve"/>
      <point x="436" y="406"/>
      <point x="392" y="469"/>
      <point x="322" y="469" type="qcurve"/>
      <point x="252" y="469"/>
      <point x="209" y="406"/>
    </contour>
    <contour>
      <point x="322" y="655" type="move" name="top"/>
    </contour>
  </outline>
</glyph>
<glyph name="Thorn" format="1">
  <advance width="568"/>
  <unicode hex="00DE"/>
  <outline>
    <contour>
      <point x="224" y="85" type="line"/>
      <point x="224" y="0" type="line"/>
      <point x="39" y="0" type="line"/>
      <point x="39" y="627" type="line"/>
      <point x="224" y="627" type="line"/>
      <point x="224" y="547" type="line"/>
      <point x="274" y="547" type="line" smooth="yes"/>
      <point x="425" y="547"/>
      <point x="550" y="443"/>
      <point x="550" y="320" type="qcurve"/>
      <point x="550" y="199"/>
      <point x="417" y="85"/>
      <point x="277" y="85" type="qcurve"/>
    </contour>
    <contour>
      <point x="361" y="317" type="qcurve"/>
      <point x="361" y="351"/>
      <point x="327" y="379"/>
      <point x="283" y="379" type="qcurve"/>
      <point x="224" y="379" type="line"/>
      <point x="224" y="247" type="line"/>
      <point x="283" y="247" type="line" smooth="yes"/>
      <point x="327" y="247"/>
      <point x="361" y="279"/>
    </contour>
  </outline>
</glyph>
<glyph name="germandbls" format="1">
  <advance width="590"/>
  <unicode hex="00DF"/>
  <outline>
    <contour>
      <point x="257" y="677" type="qcurve"/>
      <point x="368" y="677"/>
      <point x="476" y="607"/>
      <point x="476" y="533" type="qcurve" smooth="yes"/>
      <point x="476" y="521"/>
      <point x="472" y="484"/>
      <point x="469" y="470" type="qcurve"/>
      <point x="447" y="342" type="line"/>
      <point x="486" y="332" type="line" smooth="yes"/>
      <point x="534" y="321"/>
      <point x="572" y="251"/>
      <point x="572" y="176" type="qcurve" smooth="yes"/>
      <point x="572" y="83"/>
      <point x="488" y="-10"/>
      <point x="403" y="-10" type="qcurve" smooth="yes"/>
      <point x="369" y="-10"/>
      <point x="302" y="-3"/>
      <point x="275" y="3" type="qcurve"/>
      <point x="275" y="155" type="line"/>
      <point x="299" y="151"/>
      <point x="345" y="147"/>
      <point x="365" y="147" type="qcurve" smooth="yes"/>
      <point x="385" y="147"/>
      <point x="403" y="163"/>
      <point x="403" y="182" type="qcurve" smooth="yes"/>
      <point x="403" y="197"/>
      <point x="394" y="209"/>
      <point x="381" y="212" type="qcurve"/>
      <point x="265" y="239" type="line"/>
      <point x="297" y="464" type="line" smooth="yes"/>
      <point x="299" y="480"/>
      <point x="300" y="486"/>
      <point x="300" y="490" type="qcurve" smooth="yes"/>
      <point x="300" y="506"/>
      <point x="279" y="522"/>
      <point x="258" y="522" type="qcurve"/>
      <point x="235" y="522"/>
      <point x="214" y="503"/>
      <point x="214" y="481" type="qcurve"/>
      <point x="214" y="0" type="line"/>
      <point x="34" y="0" type="line"/>
      <point x="34" y="484" type="line" smooth="yes"/>
      <point x="34" y="579"/>
      <point x="148" y="677"/>
    </contour>
  </outline>
</glyph>
<glyph name="ae" format="1">
  <advance width="722"/>
  <unicode hex="00E6"/>
  <outline>
    <contour>
      <point x="156" y="-11" type="qcurve"/>
      <point x="81" y="-11"/>
      <point x="13" y="64"/>
      <point x="13" y="146" type="qcurve"/>
      <point x="13" y="224"/>
      <point x="98" y="292"/>
      <point x="196" y="292" type="qcurve" smooth="yes"/>
      <point x="210" y="292"/>
      <point x="256" y="290"/>
      <point x="272" y="289" type="qcurve"/>
      <point x="272" y="312" type="line" smooth="yes"/>
      <point x="272" y="332"/>
      <point x="237" y="349"/>
      <point x="197" y="349" type="qcurve" smooth="yes"/>
      <point x="156" y="349"/>
      <point x="91" y="344"/>
      <point x="58" y="339" type="qcurve"/>
      <point x="58" y="486" type="line"/>
      <point x="96" y="495"/>
      <point x="191" y="504"/>
      <point x="244" y="504" type="qcurve" smooth="yes"/>
      <point x="283" y="504"/>
      <point x="343" y="487"/>
      <point x="365" y="470" type="qcurve"/>
      <point x="391" y="487"/>
      <point x="457" y="504"/>
      <point x="497" y="504" type="qcurve"/>
      <point x="607" y="504"/>
      <point x="702" y="411"/>
      <point x="702" y="299" type="qcurve"/>
      <point x="702" y="265"/>
      <point x="700" y="224"/>
      <point x="697" y="198" type="qcurve"/>
      <point x="435" y="198" type="line"/>
      <point x="437" y="166"/>
      <point x="468" y="143"/>
      <point x="508" y="143" type="qcurve" smooth="yes"/>
      <point x="553" y="143"/>
      <point x="650" y="154"/>
      <point x="681" y="161" type="qcurve"/>
      <point x="681" y="24" type="line"/>
      <point x="654" y="10"/>
      <point x="545" y="-11"/>
      <point x="488" y="-11" type="qcurve" smooth="yes"/>
      <point x="429" y="-11"/>
      <point x="348" y="19"/>
      <point x="322" y="51" type="qcurve"/>
      <point x="288" y="22"/>
      <point x="201" y="-11"/>
    </contour>
    <contour>
      <point x="542" y="318" type="qcurve"/>
      <point x="540" y="345"/>
      <point x="519" y="362"/>
      <point x="490" y="362" type="qcurve"/>
      <point x="459" y="362"/>
      <point x="435" y="334"/>
      <point x="435" y="295" type="qcurve"/>
      <point x="543" y="295" type="line"/>
      <point x="543" y="304"/>
      <point x="543" y="314"/>
    </contour>
    <contour>
      <point x="221" y="190" type="qcurve" smooth="yes"/>
      <point x="195" y="190"/>
      <point x="175" y="176"/>
      <point x="175" y="156" type="qcurve"/>
      <point x="175" y="137"/>
      <point x="192" y="122"/>
      <point x="212" y="122" type="qcurve"/>
      <point x="229" y="122"/>
      <point x="266" y="131"/>
      <point x="282" y="139" type="qcurve"/>
      <point x="279" y="155"/>
      <point x="276" y="178"/>
      <point x="275" y="188" type="qcurve"/>
      <point x="265" y="189"/>
      <point x="238" y="190"/>
    </contour>
    <contour>
      <point x="376" y="530" type="move" name="top"/>
    </contour>
  </outline>
</glyph>
<glyph name="ccedilla" format="1">
  <advance width="427"/>
  <unicode hex="00E7"/>
  <outline>
    <contour>
      <point x="375" y="-109" type="qcurve"/>
      <point x="375" y="-152"/>
      <point x="315" y="-195"/>
      <point x="255" y="-195" type="qcurve" smooth="yes"/>
      <point x="226" y="-195"/>
      <point x="163" y="-188"/>
      <point x="154" y="-184" type="qcurve"/>
      <point x="154" y="-112" type="line"/>
      <point x="166" y="-115"/>
      <point x="212" y="-121"/>
      <point x="229" y="-121" type="qcurve" smooth="yes"/>
      <point x="246" y="-121"/>
      <point x="260" y="-112"/>
      <point x="260" y="-100" type="qcurve"/>
      <point x="260" y="-90"/>
      <point x="241" y="-80"/>
      <point x="220" y="-80" type="qcurve"/>
      <point x="211" y="-80"/>
      <point x="180" y="-82"/>
      <point x="171" y="-82" type="qcurve"/>
      <point x="186" y="-10" type="line"/>
      <point x="95" y="-3"/>
      <point x="20" y="113"/>
      <point x="20" y="247" type="qcurve" smooth="yes"/>
      <point x="20" y="391"/>
      <point x="133" y="504"/>
      <point x="276" y="504" type="qcurve"/>
      <point x="306" y="504"/>
      <point x="356" y="501"/>
      <point x="398" y="496" type="qcurve"/>
      <point x="398" y="338" type="line"/>
      <point x="397" y="338"/>
      <point x="319" y="342"/>
      <point x="278" y="342" type="qcurve"/>
      <point x="227" y="342"/>
      <point x="200" y="310"/>
      <point x="200" y="247" type="qcurve" smooth="yes"/>
      <point x="200" y="190"/>
      <point x="224" y="157"/>
      <point x="264" y="157" type="qcurve"/>
      <point x="301" y="157"/>
      <point x="381" y="167"/>
      <point x="411" y="174" type="qcurve"/>
      <point x="411" y="26" type="line"/>
      <point x="396" y="16"/>
      <point x="333" y="-1"/>
      <point x="295" y="-6" type="qcurve"/>
      <point x="289" y="-38" type="line"/>
      <point x="328" y="-38"/>
      <point x="375" y="-76"/>
    </contour>
  </outline>
</glyph>
<glyph name="eth" format="1">
  <advance width="541"/>
  <unicode hex="00F0"/>
  <outline>
    <contour>
      <point x="520" y="237" type="qcurve" smooth="yes"/>
      <point x="520" y="104"/>
      <point x="404" y="-11"/>
      <point x="269" y="-11" type="qcurve" smooth="yes"/>
      <point x="135" y="-11"/>
      <point x="19" y="100"/>
      <point x="19" y="228" type="qcurve" smooth="yes"/>
      <point x="19" y="357"/>
      <point x="134" y="467"/>
      <point x="269" y="467" type="qcurve" smooth="yes"/>
      <point x="277" y="467"/>
      <point x="295" y="466"/>
      <point x="312" y="465" type="qcurve"/>
      <point x="309" y="475"/>
      <point x="300" y="499"/>
      <point x="292" y="515" type="qcurve"/>
      <point x="141" y="481" type="line"/>
      <point x="141" y="579" type="line"/>
      <point x="238" y="601" type="line"/>
      <point x="220" y="625"/>
      <point x="197" y="653"/>
      <point x="186" y="665" type="qcurve"/>
      <point x="376" y="665" type="line"/>
      <point x="378" y="663"/>
      <point x="383" y="657"/>
      <point x="388" y="651" type="qcurve" smooth="yes"/>
      <point x="393" y="645"/>
      <point x="398" y="639"/>
      <point x="400" y="637" type="qcurve"/>
      <point x="522" y="664" type="line"/>
      <point x="522" y="566" type="line"/>
      <point x="456" y="551" type="line"/>
      <point x="489" y="488"/>
      <point x="520" y="334"/>
    </contour>
    <contour>
      <point x="199" y="231" type="qcurve" smooth="yes"/>
      <point x="199" y="185"/>
      <point x="225" y="156"/>
      <point x="269" y="156" type="qcurve" smooth="yes"/>
      <point x="313" y="156"/>
      <point x="340" y="185"/>
      <point x="340" y="231" type="qcurve" smooth="yes"/>
      <point x="340" y="276"/>
      <point x="313" y="305"/>
      <point x="269" y="305" type="qcurve" smooth="yes"/>
      <point x="225" y="305"/>
      <point x="199" y="277"/>
    </contour>
  </outline>
</glyph>
<glyph name="divide" format="1">
  <advance width="500"/>
  <unicode hex="00F7"/>
  <outline>
    <contour>
      <point x="336" y="439" type="line"/>
      <point x="170" y="439" type="line"/>
      <point x="170" y="594" type="line"/>
      <point x="336" y="594" type="line"/>
    </contour>
    <contour>
      <point x="463" y="398" type="line"/>
      <point x="463" y="246" type="line"/>
      <point x="37" y="246" type="line"/>
      <point x="37" y="398" type="line"/>
    </contour>
    <contour>
      <point x="336" y="50" type="line"/>
      <point x="170" y="50" type="line"/>
      <point x="170" y="205" type="line"/>
      <point x="336" y="205" type="line"/>
    </contour>
  </outline>
</glyph>
<glyph name="oslash" format="1">
  <advance width="539"/>
  <unicode hex="00F8"/>
  <outline>
    <contour>
      <point x="114" y="-87" type="line"/>
      <point x="16" y="-20" type="line"/>
      <point x="70" y="58" type="line"/>
      <point x="44" y="89"/>
      <point x="19" y="182"/>
      <point x="19" y="247" type="qcurve" smooth="yes"/>
      <point x="19" y="385"/>
      <point x="134" y="504"/>
      <point x="269" y="504" type="qcurve" smooth="yes"/>
      <point x="300" y="504"/>
      <point x="350" y="499"/>
      <point x="370" y="493" type="qcurve"/>
      <point x="427" y="578" type="line"/>
      <point x="525" y="512" type="line"/>
      <point x="471" y="434" type="line"/>
      <point x="496" y="403"/>
      <point x="520" y="311"/>
      <point x="520" y="247" type="qcurve" smooth="yes"/>
      <point x="520" y="108"/>
      <point x="404" y="-11"/>
      <point x="269" y="-11" type="qcurve" smooth="yes"/>
      <point x="241" y="-11"/>
      <point x="193" y="-6"/>
      <point x="173" y="-1" type="qcurve"/>
    </contour>
    <contour>
      <point x="199" y="249" type="qcurve" smooth="yes"/>
      <point x="199" y="191"/>
      <point x="225" y="156"/>
      <point x="269" y="156" type="qcurve" smooth="yes"/>
      <point x="314" y="156"/>
      <point x="340" y="191"/>
      <point x="340" y="249" type="qcurve" smooth="yes"/>
      <point x="340" y="307"/>
      <point x="314" y="342"/>
      <point x="269" y="342" type="qcurve" smooth="yes"/>
      <point x="225" y="342"/>
      <point x="199" y="307"/>
    </contour>
    <contour>
      <point x="269" y="530" type="move" name="top"/>
    </contour>
  </outline>
</glyph>
<glyph name="Aogonek" format="1">
  <advance width="627"/>
  <unicode hex="0104"/>
  <outline>
    <contour>
      <point x="185" y="0" type="line"/>
      <point x="-6" y="0" type="line"/>
      <point x="219" y="627" type="line"/>
      <point x="412" y="627" type="line"/>
      <point x="630" y="0" type="line"/>
      <point x="627" y="0" type="line"/>
      <point x="563" y="-11"/>
      <point x="503" y="-45"/>
      <point x="503" y="-68" type="qcurve"/>
      <point x="503" y="-85"/>
      <point x="526" y="-100"/>
      <point x="552" y="-100" type="qcurve"/>
      <point x="563" y="-100"/>
      <point x="584" y="-98"/>
      <point x="591" y="-97" type="qcurve"/>
      <point x="591" y="-193" type="line"/>
      <point x="578" y="-197"/>
      <point x="531" y="-204"/>
      <point x="508" y="-204" type="qcurve"/>
      <point x="449" y="-204"/>
      <point x="388" y="-153"/>
      <point x="388" y="-104" type="qcurve"/>
      <point x="388" y="-69"/>
      <point x="424" y="-17"/>
      <point x="460" y="0" type="qcurve"/>
      <point x="440" y="0" type="line"/>
      <point x="414" y="87" type="line"/>
      <point x="210" y="87" type="line"/>
    </contour>
    <contour>
      <point x="311" y="441" type="qcurve"/>
      <point x="301" y="402"/>
      <point x="278" y="319"/>
      <point x="268" y="286" type="qcurve"/>
      <point x="252" y="231" type="line"/>
      <point x="372" y="231" type="line"/>
      <point x="356" y="286" type="line" smooth="yes"/>
      <point x="311" y="441"/>
      <point x="311" y="441"/>
    </contour>
  </outline>
</glyph>
<glyph name="aogonek" format="1">
  <advance width="492"/>
  <unicode hex="0105"/>
  <outline>
    <contour>
      <point x="151" y="-11" type="qcurve"/>
      <point x="79" y="-11"/>
      <point x="13" y="65"/>
      <point x="13" y="146" type="qcurve"/>
      <point x="13" y="226"/>
      <point x="96" y="294"/>
      <point x="193" y="294" type="qcurve"/>
      <point x="216" y="294"/>
      <point x="263" y="290"/>
      <point x="281" y="287" type="qcurve"/>
      <point x="281" y="312" type="line" smooth="yes"/>
      <point x="281" y="332"/>
      <point x="243" y="349"/>
      <point x="200" y="349" type="qcurve" smooth="yes"/>
      <point x="159" y="349"/>
      <point x="92" y="345"/>
      <point x="58" y="339" type="qcurve"/>
      <point x="58" y="486" type="line"/>
      <point x="95" y="495"/>
      <point x="200" y="504"/>
      <point x="268" y="504" type="qcurve" smooth="yes"/>
      <point x="362" y="504"/>
      <point x="461" y="421"/>
      <point x="461" y="341" type="qcurve"/>
      <point x="461" y="0" type="line"/>
      <point x="397" y="-11"/>
      <point x="337" y="-45"/>
      <point x="337" y="-68" type="qcurve"/>
      <point x="337" y="-85"/>
      <point x="360" y="-100"/>
      <point x="386" y="-100" type="qcurve"/>
      <point x="397" y="-100"/>
      <point x="418" y="-98"/>
      <point x="425" y="-97" type="qcurve"/>
      <point x="425" y="-193" type="line"/>
      <point x="412" y="-197"/>
      <point x="365" y="-204"/>
      <point x="342" y="-204" type="qcurve"/>
      <point x="283" y="-204"/>
      <point x="222" y="-153"/>
      <point x="222" y="-104" type="qcurve"/>
      <point x="222" y="-69"/>
      <point x="258" y="-17"/>
      <point x="294" y="0" type="qcurve"/>
      <point x="291" y="0" type="line"/>
      <point x="286" y="39" type="line"/>
      <point x="283" y="39" type="line"/>
      <point x="253" y="14"/>
      <point x="186" y="-11"/>
    </contour>
    <contour>
      <point x="222" y="192" type="qcurve"/>
      <point x="196" y="192"/>
      <point x="175" y="177"/>
      <point x="175" y="157" type="qcurve"/>
      <point x="175" y="137"/>
      <point x="192" y="122"/>
      <point x="213" y="122" type="qcurve"/>
      <point x="230" y="122"/>
      <point x="267" y="129"/>
      <point x="281" y="135" type="qcurve"/>
      <point x="281" y="188" type="line"/>
      <point x="267" y="190"/>
      <point x="238" y="192"/>
    </contour>
  </outline>
</glyph>
<glyph name="dcroat" format="1">
  <advance width="544"/>
  <unicode hex="0111"/>
  <outline>
    <contour>
      <point x="580" y="621" type="line"/>
      <point x="580" y="527" type="line"/>
      <point x="510" y="527" type="line"/>
      <point x="510" y="0" type="line"/>
      <point x="350" y="0" type="line"/>
      <point x="341" y="46" type="line"/>
      <point x="336" y="46" type="line"/>
      <point x="310" y="17"/>
      <point x="243" y="-11"/>
      <point x="200" y="-11" type="qcurve"/>
      <point x="102" y="-11"/>
      <point x="19" y="104"/>
      <point x="19" y="241" type="qcurve" smooth="yes"/>
      <point x="19" y="371"/>
      <point x="122" y="490"/>
      <point x="235" y="490" type="qcurve"/>
      <point x="261" y="490"/>
      <point x="309" y="484"/>
      <point x="330" y="478" type="qcurve"/>
      <point x="330" y="527" type="line"/>
      <point x="199" y="527" type="line"/>
      <point x="199" y="621" type="line"/>
      <point x="330" y="621" type="line"/>
      <point x="330" y="665" type="line"/>
      <point x="510" y="665" type="line"/>
      <point x="510" y="621" type="line"/>
    </contour>
    <contour>
      <point x="269" y="331" type="qcurve"/>
      <point x="226" y="331"/>
      <point x="199" y="295"/>
      <point x="199" y="241" type="qcurve" smooth="yes"/>
      <point x="199" y="190"/>
      <point x="223" y="156"/>
      <point x="263" y="156" type="qcurve"/>
      <point x="282" y="156"/>
      <point x="315" y="163"/>
      <point x="330" y="170" type="qcurve"/>
      <point x="330" y="323" type="line"/>
      <point x="319" y="327"/>
      <point x="288" y="331"/>
    </contour>
  </outline>
</glyph>
<glyph name="Eogonek" format="1">
  <advance width="499"/>
  <unicode hex="0118"/>
  <outline>
    <contour>
      <point x="477" y="0" type="line"/>
      <point x="449" y="0" type="line"/>
      <point x="385" y="-11"/>
      <point x="325" y="-45"/>
      <point x="325" y="-68" type="qcurve"/>
      <point x="325" y="-85"/>
      <point x="348" y="-100"/>
      <point x="374" y="-100" type="qcurve"/>
      <point x="385" y="-100"/>
      <point x="406" y="-98"/>
      <point x="413" y="-97" type="qcurve"/>
      <point x="413" y="-193" type="line"/>
      <point x="400" y="-197"/>
      <point x="353" y="-204"/>
      <point x="330" y="-204" type="qcurve"/>
      <point x="271" y="-204"/>
      <point x="210" y="-153"/>
      <point x="210" y="-104" type="qcurve"/>
      <point x="210" y="-69"/>
      <point x="246" y="-17"/>
      <point x="282" y="0" type="qcurve"/>
      <point x="39" y="0" type="line"/>
      <point x="39" y="627" type="line"/>
      <point x="468" y="627" type="line"/>
      <point x="468" y="464" type="line"/>
      <point x="224" y="464" type="line"/>
      <point x="224" y="393" type="line"/>
      <point x="431" y="393" type="line"/>
      <point x="431" y="241" type="line"/>
      <point x="224" y="241" type="line"/>
      <point x="224" y="167" type="line"/>
      <point x="477" y="167" type="line"/>
    </contour>
  </outline>
</glyph>
<glyph name="eogonek" format="1">
  <advance width="496"/>
  <unicode hex="0119"/>
  <outline>
    <contour>
      <point x="455" y="161" type="qcurve"/>
      <point x="455" y="24" type="line"/>
      <point x="447" y="20"/>
      <point x="428" y="13"/>
      <point x="418" y="11" type="qcurve"/>
      <point x="354" y="-35"/>
      <point x="326" y="-68"/>
      <point x="326" y="-84" type="qcurve"/>
      <point x="326" y="-98"/>
      <point x="345" y="-111"/>
      <point x="367" y="-111" type="qcurve"/>
      <point x="375" y="-111"/>
      <point x="397" y="-109"/>
      <point x="408" y="-107" type="qcurve"/>
      <point x="408" y="-204" type="line"/>
      <point x="405" y="-205"/>
      <point x="385" y="-209"/>
      <point x="369" y="-212" type="qcurve" smooth="yes"/>
      <point x="358" y="-213"/>
      <point x="338" y="-215"/>
      <point x="328" y="-215" type="qcurve"/>
      <point x="270" y="-215"/>
      <point x="211" y="-165"/>
      <point x="211" y="-115" type="qcurve"/>
      <point x="211" y="-86"/>
      <point x="241" y="-34"/>
      <point x="270" y="-11" type="qcurve"/>
      <point x="247" y="-11" type="line" smooth="yes"/>
      <point x="126" y="-11"/>
      <point x="19" y="110"/>
      <point x="19" y="246" type="qcurve" smooth="yes"/>
      <point x="19" y="379"/>
      <point x="134" y="504"/>
      <point x="256" y="504" type="qcurve"/>
      <point x="374" y="504"/>
      <point x="476" y="411"/>
      <point x="476" y="299" type="qcurve"/>
      <point x="476" y="265"/>
      <point x="474" y="224"/>
      <point x="471" y="198" type="qcurve"/>
      <point x="197" y="198" type="line"/>
      <point x="198" y="166"/>
      <point x="232" y="143"/>
      <point x="276" y="143" type="qcurve" smooth="yes"/>
      <point x="324" y="143"/>
      <point x="425" y="154"/>
    </contour>
    <contour>
      <point x="258" y="362" type="qcurve"/>
      <point x="224" y="362"/>
      <point x="197" y="335"/>
      <point x="197" y="295" type="qcurve"/>
      <point x="316" y="295" type="line"/>
      <point x="316" y="318" type="line"/>
      <point x="314" y="344"/>
      <point x="291" y="362"/>
    </contour>
  </outline>
</glyph>
<glyph name="Hbar" format="1">
  <advance width="686"/>
  <unicode hex="0126"/>
  <outline>
    <contour>
      <point x="257" y="0" type="line"/>
      <point x="72" y="0" type="line"/>
      <point x="72" y="450" type="line"/>
      <point x="17" y="450" type="line"/>
      <point x="17" y="554" type="line"/>
      <point x="72" y="554" type="line"/>
      <point x="72" y="627" type="line"/>
      <point x="257" y="627" type="line"/>
      <point x="257" y="554" type="line"/>
      <point x="429" y="554" type="line"/>
      <point x="429" y="627" type="line"/>
      <point x="615" y="627" type="line"/>
      <point x="615" y="554" type="line"/>
      <point x="669" y="554" type="line"/>
      <point x="669" y="450" type="line"/>
      <point x="615" y="450" type="line"/>
      <point x="615" y="0" type="line"/>
      <point x="429" y="0" type="line"/>
      <point x="429" y="234" type="line"/>
      <point x="257" y="234" type="line"/>
    </contour>
    <contour>
      <point x="257" y="450" type="line"/>
      <point x="257" y="402" type="line"/>
      <point x="429" y="402" type="line"/>
      <point x="429" y="450" type="line"/>
    </contour>
  </outline>
</glyph>
<glyph name="hbar" format="1">
  <advance width="541"/>
  <unicode hex="0127"/>
  <outline>
    <contour>
      <point x="214" y="0" type="line"/>
      <point x="34" y="0" type="line"/>
      <point x="34" y="527" type="line"/>
      <point x="-42" y="527" type="line"/>
      <point x="-42" y="621" type="line"/>
      <point x="34" y="621" type="line"/>
      <point x="34" y="665" type="line"/>
      <point x="214" y="665" type="line"/>
      <point x="214" y="621" type="line"/>
      <point x="338" y="621" type="line"/>
      <point x="338" y="527" type="line"/>
      <point x="214" y="527" type="line"/>
      <point x="214" y="458" type="line"/>
      <point x="244" y="480"/>
      <point x="316" y="504"/>
      <point x="353" y="504" type="qcurve" smooth="yes"/>
      <point x="431" y="504"/>
      <point x="509" y="423"/>
      <point x="509" y="342" type="qcurve"/>
      <point x="509" y="0" type="line"/>
      <point x="329" y="0" type="line"/>
      <point x="329" y="305" type="line" smooth="yes"/>
      <point x="329" y="325"/>
      <point x="308" y="342"/>
      <point x="284" y="342" type="qcurve" smooth="yes"/>
      <point x="267" y="342"/>
      <point x="230" y="336"/>
      <point x="214" y="330" type="qcurve"/>
    </contour>
  </outline>
</glyph>
<glyph name="Iogonek" format="1">
  <advance width="263"/>
  <unicode hex="012E"/>
  <outline>
    <contour>
      <point x="224" y="627" type="line"/>
      <point x="224" y="0" type="line"/>
      <point x="160" y="-11"/>
      <point x="100" y="-45"/>
      <point x="100" y="-68" type="qcurve"/>
      <point x="100" y="-85"/>
      <point x="123" y="-100"/>
      <point x="149" y="-100" type="qcurve"/>
      <point x="160" y="-100"/>
      <point x="181" y="-98"/>
      <point x="188" y="-97" type="qcurve"/>
      <point x="188" y="-193" type="line"/>
      <point x="175" y="-197"/>
      <point x="128" y="-204"/>
      <point x="105" y="-204" type="qcurve"/>
      <point x="46" y="-204"/>
      <point x="-15" y="-153"/>
      <point x="-15" y="-104" type="qcurve"/>
      <point x="-15" y="-69"/>
      <point x="21" y="-17"/>
      <point x="57" y="0" type="qcurve"/>
      <point x="39" y="0" type="line"/>
      <point x="39" y="627" type="line"/>
    </contour>
  </outline>
</glyph>
<glyph name="iogonek" format="1">
  <advance width="248"/>
  <unicode hex="012F"/>
  <outline>
    <contour>
      <point x="217" y="535" type="line"/>
      <point x="32" y="535" type="line"/>
      <point x="32" y="665" type="line"/>
      <point x="217" y="665" type="line"/>
    </contour>
    <contour>
      <point x="47" y="0" type="qcurve"/>
      <point x="35" y="0" type="line"/>
      <point x="35" y="494" type="line"/>
      <point x="215" y="494" type="line"/>
      <point x="215" y="0" type="line"/>
      <point x="214" y="0" type="line"/>
      <point x="150" y="-11"/>
      <point x="90" y="-45"/>
      <point x="90" y="-68" type="qcurve"/>
      <point x="90" y="-85"/>
      <point x="113" y="-100"/>
      <point x="139" y="-100" type="qcurve"/>
      <point x="150" y="-100"/>
      <point x="171" y="-98"/>
      <point x="178" y="-97" type="qcurve"/>
      <point x="178" y="-193" type="line"/>
      <point x="165" y="-197"/>
      <point x="118" y="-204"/>
      <point x="95" y="-204" type="qcurve"/>
      <point x="36" y="-204"/>
      <point x="-25" y="-153"/>
      <point x="-25" y="-104" type="qcurve"/>
      <point x="-25" y="-69"/>
      <point x="11" y="-17"/>
    </contour>
  </outline>
</glyph>
<glyph name="dotlessi" format="1">
  <advance width="247"/>
  <unicode hex="0131"/>
  <outline>
    <contour>
      <point x="214" y="0" type="line"/>
      <point x="34" y="0" type="line"/>
      <point x="34" y="494" type="line"/>
      <point x="214" y="494" type="line"/>
    </contour>
    <contour>
      <point x="124" y="524" type="move" name="top"/>
    </contour>
  </outline>
</glyph>
<glyph name="Ldot" format="1">
  <advance width="460"/>
  <unicode hex="013F"/>
  <outline>
    <contour>
      <point x="445" y="174" type="line"/>
      <point x="445" y="0" type="line"/>
      <point x="39" y="0" type="line"/>
      <point x="39" y="627" type="line"/>
      <point x="224" y="627" type="line"/>
      <point x="224" y="174" type="line"/>
    </contour>
    <contour>
      <point x="417" y="278" type="line"/>
      <point x="266" y="278" type="line"/>
      <point x="266" y="440" type="line"/>
      <point x="417" y="440" type="line"/>
    </contour>
  </outline>
</glyph>
<glyph name="ldot" format="1">
  <advance width="406"/>
  <unicode hex="0140"/>
  <outline>
    <contour>
      <point x="214" y="665" type="line"/>
      <point x="214" y="0" type="line"/>
      <point x="34" y="0" type="line"/>
      <point x="34" y="665" type="line"/>
    </contour>
    <contour>
      <point x="403" y="263" type="line"/>
      <point x="252" y="263" type="line"/>
      <point x="252" y="425" type="line"/>
      <point x="403" y="425" type="line"/>
    </contour>
  </outline>
</glyph>
<glyph name="Lslash" format="1">
  <advance width="506"/>
  <unicode hex="0141"/>
  <outline>
    <contour>
      <point x="493" y="174" type="line"/>
      <point x="493" y="0" type="line"/>
      <point x="87" y="0" type="line"/>
      <point x="87" y="240" type="line"/>
      <point x="17" y="220" type="line"/>
      <point x="17" y="345" type="line"/>
      <point x="87" y="365" type="line"/>
      <point x="87" y="627" type="line"/>
      <point x="272" y="627" type="line"/>
      <point x="272" y="417" type="line"/>
      <point x="394" y="452" type="line"/>
      <point x="394" y="327" type="line"/>
      <point x="272" y="292" type="line"/>
      <point x="272" y="174" type="line"/>
    </contour>
  </outline>
</glyph>
<glyph name="lslash" format="1">
  <advance width="346"/>
  <unicode hex="0142"/>
  <outline>
    <contour>
      <point x="259" y="292" type="line"/>
      <point x="259" y="0" type="line"/>
      <point x="79" y="0" type="line"/>
      <point x="79" y="237" type="line"/>
      <point x="17" y="218" type="line"/>
      <point x="17" y="340" type="line"/>
      <point x="79" y="359" type="line"/>
      <point x="79" y="665" type="line"/>
      <point x="259" y="665" type="line"/>
      <point x="259" y="414" type="line"/>
      <point x="335" y="437" type="line"/>
      <point x="335" y="315" type="line"/>
    </contour>
  </outline>
</glyph>
<glyph name="Eng" format="1">
  <advance width="634"/>
  <unicode hex="014A"/>
  <outline>
    <contour>
      <point x="595" y="627" type="line"/>
      <point x="595" y="9" type="line" smooth="yes"/>
      <point x="595" y="-73"/>
      <point x="499" y="-168"/>
      <point x="420" y="-168" type="qcurve"/>
      <point x="404" y="-168"/>
      <point x="378" y="-167"/>
      <point x="345" y="-162" type="qcurve"/>
      <point x="345" y="-16" type="line"/>
      <point x="349" y="-17"/>
      <point x="358" y="-17"/>
      <point x="366" y="-17" type="qcurve"/>
      <point x="393" y="-17"/>
      <point x="414" y="-4"/>
      <point x="416" y="12" type="qcurve"/>
      <point x="212" y="311" type="line"/>
      <point x="212" y="0" type="line"/>
      <point x="39" y="0" type="line"/>
      <point x="39" y="627" type="line"/>
      <point x="212" y="627" type="line"/>
      <point x="422" y="299" type="line"/>
      <point x="422" y="627" type="line"/>
    </contour>
  </outline>
</glyph>
<glyph name="eng" format="1">
  <advance width="541"/>
  <unicode hex="014B"/>
  <outline>
    <contour>
      <point x="214" y="0" type="line"/>
      <point x="34" y="0" type="line"/>
      <point x="34" y="494" type="line"/>
      <point x="189" y="494" type="line"/>
      <point x="196" y="442" type="line"/>
      <point x="200" y="442" type="line"/>
      <point x="229" y="474"/>
      <point x="301" y="504"/>
      <point x="351" y="504" type="qcurve" smooth="yes"/>
      <point x="429" y="504"/>
      <point x="509" y="422"/>
      <point x="509" y="342" type="qcurve"/>
      <point x="509" y="4" type="line" smooth="yes"/>
      <point x="509" y="-76"/>
      <point x="418" y="-162"/>
      <point x="334" y="-162" type="qcurve"/>
      <point x="319" y="-162"/>
      <point x="294" y="-161"/>
      <point x="261" y="-156" type="qcurve"/>
      <point x="261" y="-10" type="line"/>
      <point x="266" y="-11"/>
      <point x="274" y="-11"/>
      <point x="282" y="-11" type="qcurve"/>
      <point x="310" y="-11"/>
      <point x="329" y="5"/>
      <point x="329" y="28" type="qcurve"/>
      <point x="329" y="305" type="line" smooth="yes"/>
      <point x="329" y="323"/>
      <point x="303" y="342"/>
      <point x="278" y="342" type="qcurve" smooth="yes"/>
      <point x="262" y="342"/>
      <point x="229" y="335"/>
      <point x="214" y="328" type="qcurve"/>
    </contour>
  </outline>
</glyph>
<glyph name="OE" format="1">
  <advance width="841"/>
  <unicode hex="0152"/>
  <outline>
    <contour>
      <point x="310" y="-11" type="qcurve"/>
      <point x="152" y="-11"/>
      <point x="21" y="135"/>
      <point x="21" y="314" type="qcurve"/>
      <point x="21" y="484"/>
      <point x="158" y="637"/>
      <point x="310" y="637" type="qcurve"/>
      <point x="342" y="637"/>
      <point x="395" y="632"/>
      <point x="417" y="627" type="qcurve"/>
      <point x="810" y="627" type="line"/>
      <point x="810" y="464" type="line"/>
      <point x="579" y="464" type="line"/>
      <point x="582" y="452"/>
      <point x="587" y="421"/>
      <point x="590" y="393" type="qcurve"/>
      <point x="773" y="393" type="line"/>
      <point x="773" y="241" type="line"/>
      <point x="590" y="241" type="line"/>
      <point x="588" y="220"/>
      <point x="582" y="183"/>
      <point x="578" y="167" type="qcurve"/>
      <point x="819" y="167" type="line"/>
      <point x="819" y="0" type="line"/>
      <point x="414" y="0" type="line"/>
      <point x="391" y="-5"/>
      <point x="338" y="-11"/>
    </contour>
    <contour>
      <point x="210" y="314" type="qcurve"/>
      <point x="210" y="224"/>
      <point x="248" y="163"/>
      <point x="310" y="163" type="qcurve"/>
      <point x="373" y="163"/>
      <point x="411" y="224"/>
      <point x="411" y="314" type="qcurve"/>
      <point x="411" y="407"/>
      <point x="373" y="469"/>
      <point x="310" y="469" type="qcurve"/>
      <point x="248" y="469"/>
      <point x="210" y="406"/>
    </contour>
  </outline>
</glyph>
<glyph name="oe" format="1">
  <advance width="792"/>
  <unicode hex="0153"/>
  <outline>
    <contour>
      <point x="417" y="41" type="qcurve"/>
      <point x="391" y="15"/>
      <point x="313" y="-11"/>
      <point x="257" y="-11" type="qcurve" smooth="yes"/>
      <point x="132" y="-11"/>
      <point x="19" y="111"/>
      <point x="19" y="247" type="qcurve" smooth="yes"/>
      <point x="19" y="383"/>
      <point x="130" y="504"/>
      <point x="257" y="504" type="qcurve" smooth="yes"/>
      <point x="314" y="504"/>
      <point x="394" y="476"/>
      <point x="420" y="447" type="qcurve"/>
      <point x="445" y="476"/>
      <point x="518" y="504"/>
      <point x="567" y="504" type="qcurve"/>
      <point x="677" y="504"/>
      <point x="772" y="411"/>
      <point x="772" y="299" type="qcurve"/>
      <point x="772" y="265"/>
      <point x="770" y="224"/>
      <point x="767" y="198" type="qcurve"/>
      <point x="505" y="198" type="line"/>
      <point x="507" y="166"/>
      <point x="538" y="143"/>
      <point x="578" y="143" type="qcurve" smooth="yes"/>
      <point x="623" y="143"/>
      <point x="720" y="154"/>
      <point x="751" y="161" type="qcurve"/>
      <point x="751" y="24" type="line"/>
      <point x="726" y="10"/>
      <point x="616" y="-11"/>
      <point x="557" y="-11" type="qcurve" smooth="yes"/>
      <point x="510" y="-11"/>
      <point x="440" y="15"/>
    </contour>
    <contour>
      <point x="612" y="318" type="qcurve"/>
      <point x="610" y="344"/>
      <point x="589" y="362"/>
      <point x="559" y="362" type="qcurve"/>
      <point x="529" y="362"/>
      <point x="505" y="334"/>
      <point x="505" y="295" type="qcurve"/>
      <point x="613" y="295" type="line"/>
      <point x="613" y="304"/>
      <point x="613" y="314"/>
    </contour>
    <contour>
      <point x="199" y="249" type="qcurve" smooth="yes"/>
      <point x="199" y="191"/>
      <point x="224" y="156"/>
      <point x="266" y="156" type="qcurve" smooth="yes"/>
      <point x="308" y="156"/>
      <point x="333" y="191"/>
      <point x="333" y="249" type="qcurve" smooth="yes"/>
      <point x="333" y="307"/>
      <point x="308" y="342"/>
      <point x="266" y="342" type="qcurve" smooth="yes"/>
      <point x="224" y="342"/>
      <point x="199" y="307"/>
    </contour>
  </outline>
</glyph>
<glyph name="Scedilla" format="1">
  <advance width="498"/>
  <unicode hex="015E"/>
  <outline>
    <contour>
      <point x="279" y="228" type="qcurve"/>
      <point x="162" y="253" type="line" smooth="yes"/>
      <point x="85" y="270"/>
      <point x="24" y="350"/>
      <point x="24" y="423" type="qcurve"/>
      <point x="24" y="533"/>
      <point x="140" y="637"/>
      <point x="265" y="637" type="qcurve" smooth="yes"/>
      <point x="319" y="637"/>
      <point x="405" y="628"/>
      <point x="436" y="619" type="qcurve"/>
      <point x="436" y="454" type="line"/>
      <point x="365" y="466"/>
      <point x="299" y="471"/>
      <point x="264" y="471" type="qcurve" smooth="yes"/>
      <point x="231" y="471"/>
      <point x="202" y="453"/>
      <point x="202" y="432" type="qcurve"/>
      <point x="202" y="421"/>
      <point x="213" y="409"/>
      <point x="227" y="406" type="qcurve"/>
      <point x="336" y="382" type="line" smooth="yes"/>
      <point x="387" y="371"/>
      <point x="437" y="346"/>
      <point x="452" y="328" type="qcurve" smooth="yes"/>
      <point x="469" y="308"/>
      <point x="484" y="246"/>
      <point x="484" y="202" type="qcurve"/>
      <point x="484" y="100"/>
      <point x="387" y="0"/>
      <point x="286" y="-9" type="qcurve"/>
      <point x="281" y="-38" type="line"/>
      <point x="320" y="-38"/>
      <point x="367" y="-76"/>
      <point x="367" y="-109" type="qcurve"/>
      <point x="367" y="-152"/>
      <point x="307" y="-195"/>
      <point x="247" y="-195" type="qcurve" smooth="yes"/>
      <point x="218" y="-195"/>
      <point x="155" y="-188"/>
      <point x="146" y="-184" type="qcurve"/>
      <point x="146" y="-112" type="line"/>
      <point x="158" y="-115"/>
      <point x="204" y="-121"/>
      <point x="221" y="-121" type="qcurve" smooth="yes"/>
      <point x="238" y="-121"/>
      <point x="252" y="-112"/>
      <point x="252" y="-100" type="qcurve"/>
      <point x="252" y="-90"/>
      <point x="233" y="-80"/>
      <point x="212" y="-80" type="qcurve"/>
      <point x="203" y="-80"/>
      <point x="172" y="-82"/>
      <point x="163" y="-82" type="qcurve"/>
      <point x="178" y="-9" type="line"/>
      <point x="129" y="-6"/>
      <point x="48" y="6"/>
      <point x="27" y="14" type="qcurve"/>
      <point x="27" y="189" type="line"/>
      <point x="65" y="177"/>
      <point x="182" y="161"/>
      <point x="240" y="161" type="qcurve"/>
      <point x="275" y="161"/>
      <point x="303" y="177"/>
      <point x="303" y="198" type="qcurve"/>
      <point x="303" y="212"/>
      <point x="294" y="224"/>
    </contour>
  </outline>
</glyph>
<glyph name="scedilla" format="1">
  <advance width="442"/>
  <unicode hex="015F"/>
  <outline>
    <contour>
      <point x="348" y="-113" type="qcurve"/>
      <point x="348" y="-156"/>
      <point x="288" y="-199"/>
      <point x="228" y="-199" type="qcurve" smooth="yes"/>
      <point x="199" y="-199"/>
      <point x="136" y="-192"/>
      <point x="127" y="-188" type="qcurve"/>
      <point x="127" y="-116" type="line"/>
      <point x="139" y="-119"/>
      <point x="185" y="-125"/>
      <point x="202" y="-125" type="qcurve" smooth="yes"/>
      <point x="219" y="-125"/>
      <point x="233" y="-116"/>
      <point x="233" y="-104" type="qcurve"/>
      <point x="233" y="-94"/>
      <point x="214" y="-84"/>
      <point x="193" y="-84" type="qcurve"/>
      <point x="184" y="-84"/>
      <point x="153" y="-86"/>
      <point x="144" y="-86" type="qcurve"/>
      <point x="160" y="-9" type="line"/>
      <point x="121" y="-7"/>
      <point x="55" y="2"/>
      <point x="33" y="9" type="qcurve"/>
      <point x="33" y="153" type="line"/>
      <point x="73" y="144"/>
      <point x="163" y="134"/>
      <point x="203" y="134" type="qcurve" smooth="yes"/>
      <point x="237" y="134"/>
      <point x="260" y="146"/>
      <point x="260" y="163" type="qcurve" smooth="yes"/>
      <point x="260" y="169"/>
      <point x="252" y="178"/>
      <point x="244" y="179" type="qcurve"/>
      <point x="127" y="193" type="line" smooth="yes"/>
      <point x="69" y="201"/>
      <point x="18" y="267"/>
      <point x="18" y="333" type="qcurve" smooth="yes"/>
      <point x="18" y="419"/>
      <point x="127" y="504"/>
      <point x="235" y="504" type="qcurve" smooth="yes"/>
      <point x="284" y="504"/>
      <point x="364" y="499"/>
      <point x="394" y="494" type="qcurve"/>
      <point x="394" y="354" type="line"/>
      <point x="360" y="359"/>
      <point x="280" y="365"/>
      <point x="245" y="365" type="qcurve" smooth="yes"/>
      <point x="210" y="365"/>
      <point x="186" y="355"/>
      <point x="186" y="340" type="qcurve" smooth="yes"/>
      <point x="186" y="332"/>
      <point x="195" y="324"/>
      <point x="204" y="323" type="qcurve"/>
      <point x="310" y="310" type="line" smooth="yes"/>
      <point x="376" y="302"/>
      <point x="425" y="240"/>
      <point x="425" y="170" type="qcurve" smooth="yes"/>
      <point x="425" y="86"/>
      <point x="350" y="-2"/>
      <point x="268" y="-9" type="qcurve"/>
      <point x="262" y="-42" type="line"/>
      <point x="301" y="-42"/>
      <point x="348" y="-80"/>
    </contour>
  </outline>
</glyph>
<glyph name="Tbar" format="1">
  <advance width="530"/>
  <unicode hex="0166"/>
  <outline>
    <contour>
      <point x="474" y="347" type="line"/>
      <point x="474" y="225" type="line"/>
      <point x="358" y="225" type="line"/>
      <point x="358" y="0" type="line"/>
      <point x="172" y="0" type="line"/>
      <point x="172" y="225" type="line"/>
      <point x="55" y="225" type="line"/>
      <point x="55" y="347" type="line"/>
      <point x="172" y="347" type="line"/>
      <point x="172" y="459" type="line"/>
      <point x="17" y="459" type="line"/>
      <point x="17" y="627" type="line"/>
      <point x="512" y="627" type="line"/>
      <point x="512" y="459" type="line"/>
      <point x="358" y="459" type="line"/>
      <point x="358" y="347" type="line"/>
    </contour>
  </outline>
</glyph>
<glyph name="tbar" format="1">
  <advance width="392"/>
  <unicode hex="0167"/>
  <outline>
    <contour>
      <point x="69" y="345" type="line"/>
      <point x="18" y="345" type="line"/>
      <point x="18" y="494" type="line"/>
      <point x="76" y="494" type="line"/>
      <point x="97" y="607" type="line"/>
      <point x="249" y="607" type="line"/>
      <point x="249" y="494" type="line"/>
      <point x="373" y="494" type="line"/>
      <point x="373" y="345" type="line"/>
      <point x="249" y="345" type="line"/>
      <point x="249" y="304" type="line"/>
      <point x="372" y="304" type="line"/>
      <point x="372" y="211" type="line"/>
      <point x="249" y="211" type="line"/>
      <point x="249" y="196" type="line" smooth="yes"/>
      <point x="249" y="173"/>
      <point x="274" y="157"/>
      <point x="308" y="157" type="qcurve" smooth="yes"/>
      <point x="323" y="157"/>
      <point x="367" y="161"/>
      <point x="380" y="164" type="qcurve"/>
      <point x="380" y="9" type="line"/>
      <point x="365" y="2"/>
      <point x="286" y="-11"/>
      <point x="256" y="-11" type="qcurve" smooth="yes"/>
      <point x="156" y="-11"/>
      <point x="69" y="75"/>
      <point x="69" y="171" type="qcurve"/>
      <point x="69" y="211" type="line"/>
      <point x="17" y="211" type="line"/>
      <point x="17" y="304" type="line"/>
      <point x="69" y="304" type="line"/>
    </contour>
  </outline>
</glyph>
<glyph name="Uogonek" format="1">
  <advance width="622"/>
  <unicode hex="0172"/>
  <outline>
    <contour>
      <point x="403" y="270" type="qcurve"/>
      <point x="403" y="627" type="line"/>
      <point x="589" y="627" type="line"/>
      <point x="589" y="269" type="line" smooth="yes"/>
      <point x="589" y="181"/>
      <point x="533" y="60"/>
      <point x="477" y="27" type="qcurve"/>
      <point x="419" y="-14"/>
      <point x="390" y="-48"/>
      <point x="390" y="-64" type="qcurve"/>
      <point x="390" y="-78"/>
      <point x="409" y="-91"/>
      <point x="431" y="-91" type="qcurve"/>
      <point x="439" y="-91"/>
      <point x="461" y="-89"/>
      <point x="472" y="-87" type="qcurve"/>
      <point x="472" y="-184" type="line"/>
      <point x="469" y="-185"/>
      <point x="449" y="-189"/>
      <point x="433" y="-192" type="qcurve" smooth="yes"/>
      <point x="422" y="-193"/>
      <point x="402" y="-195"/>
      <point x="392" y="-195" type="qcurve"/>
      <point x="334" y="-195"/>
      <point x="275" y="-145"/>
      <point x="275" y="-95" type="qcurve"/>
      <point x="275" y="-72"/>
      <point x="294" y="-30"/>
      <point x="312" y="-11" type="qcurve"/>
      <point x="167" y="-11"/>
      <point x="34" y="122"/>
      <point x="34" y="269" type="qcurve"/>
      <point x="34" y="627" type="line"/>
      <point x="219" y="627" type="line"/>
      <point x="219" y="270" type="line" smooth="yes"/>
      <point x="219" y="207"/>
      <point x="258" y="163"/>
      <point x="312" y="163" type="qcurve"/>
      <point x="365" y="163"/>
      <point x="403" y="208"/>
    </contour>
  </outline>
</glyph>
<glyph name="uogonek" format="1">
  <advance width="527"/>
  <unicode hex="0173"/>
  <outline>
    <contour>
      <point x="193" y="-10" type="qcurve" smooth="yes"/>
      <point x="112" y="-10"/>
      <point x="32" y="72"/>
      <point x="32" y="155" type="qcurve"/>
      <point x="32" y="494" type="line"/>
      <point x="212" y="494" type="line"/>
      <point x="212" y="192" type="line" smooth="yes"/>
      <point x="212" y="173"/>
      <point x="233" y="157"/>
      <point x="256" y="157" type="qcurve" smooth="yes"/>
      <point x="270" y="157"/>
      <point x="299" y="162"/>
      <point x="314" y="167" type="qcurve"/>
      <point x="314" y="494" type="line"/>
      <point x="494" y="494" type="line"/>
      <point x="494" y="0" type="line"/>
      <point x="488" y="0" type="line"/>
      <point x="424" y="-11"/>
      <point x="364" y="-45"/>
      <point x="364" y="-68" type="qcurve"/>
      <point x="364" y="-85"/>
      <point x="387" y="-100"/>
      <point x="413" y="-100" type="qcurve"/>
      <point x="424" y="-100"/>
      <point x="445" y="-98"/>
      <point x="452" y="-97" type="qcurve"/>
      <point x="452" y="-193" type="line"/>
      <point x="439" y="-197"/>
      <point x="392" y="-204"/>
      <point x="369" y="-204" type="qcurve"/>
      <point x="310" y="-204"/>
      <point x="249" y="-153"/>
      <point x="249" y="-104" type="qcurve"/>
      <point x="249" y="-67"/>
      <point x="290" y="-13"/>
      <point x="331" y="4" type="qcurve"/>
      <point x="326" y="39" type="line"/>
      <point x="296" y="16"/>
      <point x="225" y="-10"/>
    </contour>
  </outline>
</glyph>
<glyph name="uni018F" format="1">
  <advance width="580"/>
  <unicode hex="018F"/>
  <outline>
    <contour>
      <point x="267" y="637" type="qcurve"/>
      <point x="419" y="637"/>
      <point x="559" y="484"/>
      <point x="559" y="314" type="qcurve" smooth="yes"/>
      <point x="559" y="145"/>
      <point x="422" y="-11"/>
      <point x="271" y="-11" type="qcurve"/>
      <point x="145" y="-11"/>
      <point x="20" y="121"/>
      <point x="20" y="253" type="qcurve"/>
      <point x="20" y="289"/>
      <point x="24" y="347"/>
      <point x="29" y="386" type="qcurve"/>
      <point x="362" y="386" type="line"/>
      <point x="354" y="433"/>
      <point x="302" y="469"/>
      <point x="242" y="469" type="qcurve" smooth="yes"/>
      <point x="203" y="469"/>
      <point x="120" y="461"/>
      <point x="79" y="454" type="qcurve"/>
      <point x="79" y="617" type="line"/>
      <point x="122" y="627"/>
      <point x="219" y="637"/>
    </contour>
    <contour>
      <point x="205" y="231" type="qcurve"/>
      <point x="205" y="194"/>
      <point x="242" y="157"/>
      <point x="281" y="156" type="qcurve"/>
      <point x="324" y="157"/>
      <point x="361" y="198"/>
      <point x="365" y="252" type="qcurve"/>
      <point x="206" y="252" type="line"/>
      <point x="205" y="247"/>
      <point x="205" y="239"/>
    </contour>
  </outline>
</glyph>
<glyph name="florin" format="1">
  <advance width="448"/>
  <unicode hex="0192"/>
  <outline>
    <contour>
      <point x="91" y="282" type="line"/>
      <point x="22" y="282" type="line"/>
      <point x="22" y="382" type="line"/>
      <point x="108" y="382" type="line"/>
      <point x="121" y="464" type="line" smooth="yes"/>
      <point x="136" y="559"/>
      <point x="230" y="637"/>
      <point x="329" y="637" type="qcurve"/>
      <point x="354" y="637"/>
      <point x="415" y="631"/>
      <point x="434" y="627" type="qcurve"/>
      <point x="434" y="470" type="line"/>
      <point x="416" y="472"/>
      <point x="380" y="474"/>
      <point x="365" y="474" type="qcurve"/>
      <point x="333" y="474"/>
      <point x="307" y="453"/>
      <point x="302" y="424" type="qcurve"/>
      <point x="295" y="382" type="line"/>
      <point x="412" y="382" type="line"/>
      <point x="412" y="282" type="line"/>
      <point x="279" y="282" type="line"/>
      <point x="207" y="-152" type="line"/>
      <point x="20" y="-152" type="line"/>
    </contour>
  </outline>
</glyph>
<glyph name="uni01B5" format="1">
  <advance width="509"/>
  <unicode hex="01B5"/>
  <outline>
    <contour>
      <point x="489" y="174" type="line"/>
      <point x="489" y="0" type="line"/>
      <point x="19" y="0" type="line"/>
      <point x="19" y="174" type="line"/>
      <point x="98" y="268" type="line"/>
      <point x="40" y="268" type="line"/>
      <point x="40" y="373" type="line"/>
      <point x="187" y="373" type="line"/>
      <point x="260" y="459" type="line"/>
      <point x="48" y="459" type="line"/>
      <point x="48" y="627" type="line"/>
      <point x="470" y="627" type="line"/>
      <point x="470" y="459" type="line"/>
      <point x="398" y="373" type="line"/>
      <point x="472" y="373" type="line"/>
      <point x="472" y="268" type="line"/>
      <point x="309" y="268" type="line"/>
      <point x="230" y="174" type="line"/>
    </contour>
  </outline>
</glyph>
<glyph name="uni01B6" format="1">
  <advance width="429"/>
  <unicode hex="01B6"/>
  <outline>
    <contour>
      <point x="411" y="156" type="line"/>
      <point x="411" y="0" type="line"/>
      <point x="21" y="0" type="line"/>
      <point x="21" y="156" type="line"/>
      <point x="73" y="213" type="line"/>
      <point x="38" y="213" type="line"/>
      <point x="38" y="302" type="line"/>
      <point x="154" y="302" type="line"/>
      <point x="193" y="345" type="line"/>
      <point x="39" y="345" type="line"/>
      <point x="39" y="494" type="line"/>
      <point x="394" y="494" type="line"/>
      <point x="394" y="345" type="line"/>
      <point x="356" y="302" type="line"/>
      <point x="392" y="302" type="line"/>
      <point x="392" y="213" type="line"/>
      <point x="277" y="213" type="line"/>
      <point x="226" y="156" type="line"/>
    </contour>
  </outline>
</glyph>
<glyph name="uni0237" format="1">
  <advance width="253"/>
  <unicode hex="0237"/>
  <outline>
    <contour>
      <point x="44" y="-162" type="qcurve"/>
      <point x="27" y="-162"/>
      <point x="-2" y="-160"/>
      <point x="-33" y="-156" type="qcurve"/>
      <point x="-33" y="-25" type="line"/>
      <point x="-28" y="-26"/>
      <point x="-20" y="-26"/>
      <point x="-12" y="-26" type="qcurve"/>
      <point x="18" y="-26"/>
      <point x="39" y="-10"/>
      <point x="39" y="13" type="qcurve"/>
      <point x="39" y="494" type="line"/>
      <point x="219" y="494" type="line"/>
      <point x="219" y="4" type="line"/>
      <point x="219" y="-76"/>
      <point x="128" y="-162"/>
    </contour>
    <contour>
      <point x="130" y="524" type="move" name="top"/>
    </contour>
  </outline>
</glyph>
<glyph name="uni0259" format="1">
  <advance width="496"/>
  <unicode hex="0259"/>
  <outline>
    <contour>
      <point x="41" y="334" type="qcurve"/>
      <point x="41" y="469" type="line"/>
      <point x="69" y="484"/>
      <point x="182" y="504"/>
      <point x="245" y="504" type="qcurve" smooth="yes"/>
      <point x="367" y="504"/>
      <point x="477" y="383"/>
      <point x="477" y="247" type="qcurve" smooth="yes"/>
      <point x="477" y="114"/>
      <point x="362" y="-11"/>
      <point x="240" y="-11" type="qcurve"/>
      <point x="122" y="-11"/>
      <point x="20" y="82"/>
      <point x="20" y="195" type="qcurve"/>
      <point x="20" y="229"/>
      <point x="22" y="272"/>
      <point x="25" y="297" type="qcurve"/>
      <point x="299" y="297" type="line"/>
      <point x="298" y="328"/>
      <point x="264" y="352"/>
      <point x="220" y="352" type="qcurve" smooth="yes"/>
      <point x="173" y="352"/>
      <point x="73" y="341"/>
    </contour>
    <contour>
      <point x="238" y="133" type="qcurve"/>
      <point x="272" y="133"/>
      <point x="299" y="161"/>
      <point x="299" y="200" type="qcurve"/>
      <point x="180" y="200" type="line"/>
      <point x="180" y="177" type="line"/>
      <point x="182" y="151"/>
      <point x="205" y="133"/>
    </contour>
  </outline>
</glyph>
<glyph name="uni02BB" format="1">
  <advance width="195"/>
  <unicode hex="02BB"/>
  <outline>
    <contour>
      <point x="11" y="381" type="line"/>
      <point x="43" y="569" type="line" smooth="yes"/>
      <point x="47" y="596"/>
      <point x="86" y="627"/>
      <point x="115" y="627" type="qcurve"/>
      <point x="169" y="627" type="line"/>
      <point x="169" y="381" type="line"/>
    </contour>
  </outline>
</glyph>
<glyph name="circumflex" format="1">
  <advance width="469"/>
  <unicode hex="02C6"/>
  <outline>
    <contour>
      <point x="419" y="542" type="line"/>
      <point x="289" y="542" type="line"/>
      <point x="234" y="597" type="line"/>
      <point x="180" y="542" type="line"/>
      <point x="50" y="542" type="line"/>
      <point x="157" y="678" type="line"/>
      <point x="312" y="678" type="line"/>
    </contour>
    <contour>
      <point x="234" y="530" type="move" name="_top"/>
    </contour>
  </outline>
</glyph>
<glyph name="caron" format="1">
  <advance width="469"/>
  <unicode hex="02C7"/>
  <outline>
    <contour>
      <point x="50" y="678" type="line"/>
      <point x="180" y="678" type="line"/>
      <point x="235" y="623" type="line"/>
      <point x="289" y="678" type="line"/>
      <point x="419" y="678" type="line"/>
      <point x="312" y="542" type="line"/>
      <point x="157" y="542" type="line"/>
    </contour>
    <contour>
      <point x="235" y="530" type="move" name="_top"/>
    </contour>
  </outline>
</glyph>
<glyph name="breve" format="1">
  <advance width="387"/>
  <unicode hex="02D8"/>
  <outline>
    <contour>
      <point x="236" y="678" type="qcurve"/>
      <point x="337" y="678" type="line"/>
      <point x="337" y="612"/>
      <point x="260" y="535"/>
      <point x="194" y="535" type="qcurve" smooth="yes"/>
      <point x="128" y="535"/>
      <point x="50" y="612"/>
      <point x="50" y="678" type="qcurve"/>
      <point x="151" y="678" type="line"/>
      <point x="151" y="655"/>
      <point x="173" y="631"/>
      <point x="194" y="631" type="qcurve" smooth="yes"/>
      <point x="215" y="631"/>
      <point x="236" y="654"/>
    </contour>
    <contour>
      <point x="194" y="530" type="move" name="_top"/>
    </contour>
  </outline>
</glyph>
<glyph name="ring" format="1">
  <advance width="341"/>
  <unicode hex="02DA"/>
  <outline>
    <contour>
      <point x="291" y="643" type="qcurve" smooth="yes"/>
      <point x="291" y="593"/>
      <point x="225" y="534"/>
      <point x="169" y="534" type="qcurve" smooth="yes"/>
      <point x="113" y="534"/>
      <point x="48" y="593"/>
      <point x="48" y="643" type="qcurve" smooth="yes"/>
      <point x="48" y="693"/>
      <point x="113" y="749"/>
      <point x="169" y="749" type="qcurve" smooth="yes"/>
      <point x="226" y="749"/>
      <point x="291" y="693"/>
    </contour>
    <contour>
      <point x="131" y="643" type="qcurve" smooth="yes"/>
      <point x="131" y="629"/>
      <point x="152" y="612"/>
      <point x="169" y="612" type="qcurve" smooth="yes"/>
      <point x="188" y="612"/>
      <point x="209" y="629"/>
      <point x="209" y="643" type="qcurve" smooth="yes"/>
      <point x="209" y="657"/>
      <point x="188" y="674"/>
      <point x="169" y="674" type="qcurve" smooth="yes"/>
      <point x="152" y="674"/>
      <point x="131" y="657"/>
    </contour>
    <contour>
      <point x="169" y="530" type="move" name="_top"/>
    </contour>
  </outline>
</glyph>
<glyph name="ogonek" format="1">
  <advance width="335"/>
  <unicode hex="02DB"/>
  <outline>
    <contour>
      <point x="217" y="35" type="qcurve"/>
      <point x="285" y="9" type="line"/>
      <point x="221" y="-2"/>
      <point x="161" y="-36"/>
      <point x="161" y="-59" type="qcurve"/>
      <point x="161" y="-76"/>
      <point x="184" y="-91"/>
      <point x="210" y="-91" type="qcurve"/>
      <point x="221" y="-91"/>
      <point x="242" y="-89"/>
      <point x="249" y="-88" type="qcurve"/>
      <point x="249" y="-184" type="line"/>
      <point x="236" y="-188"/>
      <point x="189" y="-195"/>
      <point x="166" y="-195" type="qcurve"/>
      <point x="107" y="-195"/>
      <point x="46" y="-144"/>
      <point x="46" y="-95" type="qcurve"/>
      <point x="46" y="-63"/>
      <point x="75" y="-15"/>
      <point x="105" y="2" type="qcurve" smooth="yes"/>
      <point x="122" y="12"/>
      <point x="166" y="27"/>
    </contour>
    <contour>
      <point x="285" y="9" type="move" name="_ogonek"/>
    </contour>
  </outline>
</glyph>
<glyph name="tilde" format="1">
  <advance width="407"/>
  <unicode hex="02DC"/>
  <outline>
    <contour>
      <point x="265" y="679" type="qcurve"/>
      <point x="357" y="679" type="line"/>
      <point x="357" y="612"/>
      <point x="314" y="538"/>
      <point x="273" y="538" type="qcurve"/>
      <point x="259" y="538"/>
      <point x="226" y="549"/>
      <point x="196" y="566" type="qcurve" smooth="yes"/>
      <point x="179" y="576"/>
      <point x="165" y="582"/>
      <point x="160" y="582" type="qcurve"/>
      <point x="151" y="582"/>
      <point x="143" y="563"/>
      <point x="143" y="542" type="qcurve"/>
      <point x="50" y="542" type="line"/>
      <point x="50" y="609"/>
      <point x="93" y="683"/>
      <point x="134" y="683" type="qcurve"/>
      <point x="148" y="683"/>
      <point x="180" y="673"/>
      <point x="209" y="657" type="qcurve" smooth="yes"/>
      <point x="227" y="648"/>
      <point x="242" y="642"/>
      <point x="247" y="642" type="qcurve"/>
      <point x="256" y="642"/>
      <point x="265" y="660"/>
    </contour>
    <contour>
      <point x="204" y="530" type="move" name="_top"/>
    </contour>
  </outline>
</glyph>
<glyph name="hungarumlaut" format="1">
  <advance width="564"/>
  <unicode hex="02DD"/>
  <outline>
    <contour>
      <point x="154" y="678" type="line"/>
      <point x="316" y="678" type="line"/>
      <point x="175" y="542" type="line"/>
      <point x="47" y="542" type="line"/>
    </contour>
    <contour>
      <point x="350" y="678" type="line"/>
      <point x="513" y="678" type="line"/>
      <point x="371" y="542" type="line"/>
      <point x="244" y="542" type="line"/>
    </contour>
    <contour>
      <point x="250" y="530" type="move" name="_top"/>
    </contour>
  </outline>
</glyph>
<glyph name="uni0326" format="1">
  <advance width="244"/>
  <unicode hex="0326"/>
  <outline>
    <contour>
      <point x="195" y="-43" type="line"/>
      <point x="175" y="-159" type="line" smooth="yes"/>
      <point x="170" y="-185"/>
      <point x="131" y="-217"/>
      <point x="103" y="-217" type="qcurve"/>
      <point x="50" y="-217" type="line"/>
      <point x="50" y="-43" type="line"/>
    </contour>
    <contour>
      <point x="124" y="0" type="move" name="_bottom"/>
    </contour>
  </outline>
</glyph>
<glyph name="uni0394" format="1">
  <advance width="616"/>
  <unicode hex="0394"/>
  <outline>
    <contour>
      <point x="17" y="0" type="line"/>
      <point x="17" y="174" type="line"/>
      <point x="212" y="627" type="line"/>
      <point x="404" y="627" type="line"/>
      <point x="599" y="174" type="line"/>
      <point x="599" y="0" type="line"/>
    </contour>
    <contour>
      <point x="308" y="432" type="line"/>
      <point x="200" y="174" type="line"/>
      <point x="416" y="174" type="line"/>
    </contour>
  </outline>
</glyph>
<glyph name="uni03A9" format="1">
  <advance width="669"/>
  <unicode hex="03A9"/>
  <outline>
    <contour>
      <point x="46" y="0" type="line"/>
      <point x="46" y="157" type="line"/>
      <point x="159" y="157" type="line"/>
      <point x="159" y="168" type="line"/>
      <point x="91" y="196"/>
      <point x="18" y="309"/>
      <point x="18" y="384" type="qcurve"/>
      <point x="18" y="507"/>
      <point x="185" y="647"/>
      <point x="335" y="647" type="qcurve" smooth="yes"/>
      <point x="484" y="647"/>
      <point x="651" y="507"/>
      <point x="651" y="385" type="qcurve"/>
      <point x="651" y="311"/>
      <point x="578" y="197"/>
      <point x="511" y="169" type="qcurve"/>
      <point x="511" y="157" type="line"/>
      <point x="625" y="157" type="line"/>
      <point x="625" y="0" type="line"/>
      <point x="360" y="0" type="line"/>
      <point x="360" y="263" type="line"/>
      <point x="405" y="271"/>
      <point x="456" y="326"/>
      <point x="456" y="370" type="qcurve"/>
      <point x="456" y="423"/>
      <point x="395" y="476"/>
      <point x="335" y="476" type="qcurve" smooth="yes"/>
      <point x="275" y="476"/>
      <point x="214" y="423"/>
      <point x="214" y="370" type="qcurve"/>
      <point x="214" y="325"/>
      <point x="268" y="268"/>
      <point x="310" y="263" type="qcurve"/>
      <point x="310" y="0" type="line"/>
    </contour>
  </outline>
</glyph>
<glyph name="uni03BC" format="1">
  <advance width="536"/>
  <unicode hex="03BC"/>
  <outline>
    <contour>
      <point x="233" y="-7" type="qcurve" smooth="yes"/>
      <point x="221" y="-7"/>
      <point x="207" y="-6"/>
      <point x="203" y="-4" type="qcurve"/>
      <point x="203" y="-49"/>
      <point x="219" y="-123"/>
      <point x="235" y="-152" type="qcurve"/>
      <point x="60" y="-152" type="line"/>
      <point x="46" y="-117"/>
      <point x="34" y="-31"/>
      <point x="34" y="60" type="qcurve"/>
      <point x="34" y="494" type="line"/>
      <point x="214" y="494" type="line"/>
      <point x="214" y="189" type="line" smooth="yes"/>
      <point x="214" y="170"/>
      <point x="234" y="153"/>
      <point x="256" y="153" type="qcurve" smooth="yes"/>
      <point x="271" y="153"/>
      <point x="303" y="158"/>
      <point x="323" y="164" type="qcurve"/>
      <point x="323" y="494" type="line"/>
      <point x="503" y="494" type="line"/>
      <point x="503" y="0" type="line"/>
      <point x="341" y="0" type="line"/>
      <point x="337" y="35" type="line"/>
      <point x="317" y="15"/>
      <point x="262" y="-7"/>
    </contour>
  </outline>
</glyph>
<glyph name="pi" format="1">
  <advance width="580"/>
  <unicode hex="03C0"/>
  <outline>
    <contour>
      <point x="209" y="0" type="qcurve"/>
      <point x="20" y="0" type="line"/>
      <point x="61" y="104"/>
      <point x="93" y="253"/>
      <point x="94" y="326" type="qcurve"/>
      <point x="22" y="326" type="line"/>
      <point x="22" y="494" type="line"/>
      <point x="559" y="494" type="line"/>
      <point x="559" y="326" type="line"/>
      <point x="487" y="326" type="line"/>
      <point x="487" y="205" type="line" smooth="yes"/>
      <point x="487" y="186"/>
      <point x="503" y="170"/>
      <point x="521" y="170" type="qcurve"/>
      <point x="537" y="170" type="line"/>
      <point x="537" y="0" type="line"/>
      <point x="456" y="0" type="line" smooth="yes"/>
      <point x="390" y="0"/>
      <point x="316" y="74"/>
      <point x="316" y="140" type="qcurve"/>
      <point x="316" y="326" type="line"/>
      <point x="264" y="326" type="line"/>
      <point x="263" y="247"/>
      <point x="241" y="101"/>
    </contour>
  </outline>
</glyph>
<glyph name="uni1E9E" format="1">
  <advance width="656"/>
  <unicode hex="1E9E"/>
  <outline>
    <contour>
      <point x="303" y="637" type="qcurve"/>
      <point x="369" y="637"/>
      <point x="496" y="618"/>
      <point x="553" y="600" type="qcurve"/>
      <point x="508" y="369" type="line"/>
      <point x="551" y="358" type="line" smooth="yes"/>
      <point x="602" y="345"/>
      <point x="641" y="278"/>
      <point x="641" y="205" type="qcurve" smooth="yes"/>
      <point x="641" y="97"/>
      <point x="552" y="-10"/>
      <point x="461" y="-10" type="qcurve" smooth="yes"/>
      <point x="420" y="-10"/>
      <point x="339" y="-3"/>
      <point x="305" y="3" type="qcurve"/>
      <point x="305" y="162" type="line"/>
      <point x="329" y="158"/>
      <point x="387" y="154"/>
      <point x="417" y="154" type="qcurve" smooth="yes"/>
      <point x="441" y="154"/>
      <point x="462" y="174"/>
      <point x="462" y="199" type="qcurve" smooth="yes"/>
      <point x="462" y="215"/>
      <point x="453" y="227"/>
      <point x="437" y="231" type="qcurve"/>
      <point x="320" y="258" type="line"/>
      <point x="359" y="470" type="line"/>
      <point x="352" y="472"/>
      <point x="310" y="475"/>
      <point x="291" y="475" type="qcurve"/>
      <point x="254" y="475"/>
      <point x="221" y="447"/>
      <point x="221" y="418" type="qcurve"/>
      <point x="221" y="0" type="line"/>
      <point x="35" y="0" type="line"/>
      <point x="35" y="425" type="line" smooth="yes"/>
      <point x="35" y="534"/>
      <point x="165" y="637"/>
    </contour>
  </outline>
</glyph>
<glyph name="endash" format="1">
  <advance width="461"/>
  <unicode hex="2013"/>
  <outline>
    <contour>
      <point x="435" y="386" type="line"/>
      <point x="435" y="251" type="line"/>
      <point x="26" y="251" type="line"/>
      <point x="26" y="386" type="line"/>
    </contour>
  </outline>
</glyph>
<glyph name="quoteright" format="1">
  <advance width="191"/>
  <unicode hex="2019"/>
  <outline>
    <contour>
      <point x="184" y="627" type="line"/>
      <point x="152" y="439" type="line" smooth="yes"/>
      <point x="148" y="412"/>
      <point x="109" y="381"/>
      <point x="80" y="381" type="qcurve"/>
      <point x="26" y="381" type="line"/>
      <point x="26" y="627" type="line"/>
    </contour>
  </outline>
</glyph>
<glyph name="dagger" format="1">
  <advance width="334"/>
  <unicode hex="2020"/>
  <outline>
    <contour>
      <point x="217" y="432" type="line"/>
      <point x="228" y="221" type="line"/>
      <point x="106" y="221" type="line"/>
      <point x="118" y="433" type="line"/>
      <point x="14" y="426" type="line"/>
      <point x="14" y="532" type="line"/>
      <point x="117" y="525" type="line"/>
      <point x="110" y="627" type="line"/>
      <point x="224" y="627" type="line"/>
      <point x="218" y="525" type="line"/>
      <point x="319" y="532" type="line"/>
      <point x="319" y="426" type="line"/>
    </contour>
  </outline>
</glyph>
<glyph name="daggerdbl" format="1">
  <advance width="353"/>
  <unicode hex="2021"/>
  <outline>
    <contour>
      <point x="329" y="319" type="line"/>
      <point x="329" y="213" type="line"/>
      <point x="227" y="220" type="line"/>
      <point x="234" y="118" type="line"/>
      <point x="119" y="118" type="line"/>
      <point x="126" y="220" type="line"/>
      <point x="24" y="213" type="line"/>
      <point x="24" y="319" type="line"/>
      <point x="131" y="313" type="line"/>
      <point x="131" y="433" type="line"/>
      <point x="24" y="426" type="line"/>
      <point x="24" y="532" type="line"/>
      <point x="126" y="525" type="line"/>
      <point x="119" y="627" type="line"/>
      <point x="234" y="627" type="line"/>
      <point x="228" y="525" type="line"/>
      <point x="329" y="532" type="line"/>
      <point x="329" y="426" type="line"/>
      <point x="224" y="432" type="line"/>
      <point x="224" y="312" type="line"/>
    </contour>
  </outline>
</glyph>
<glyph name="bullet" format="1">
  <advance width="316"/>
  <unicode hex="2022"/>
  <outline>
    <contour>
      <point x="270" y="206" type="line"/>
      <point x="50" y="206" type="line"/>
      <point x="50" y="424" type="line"/>
      <point x="270" y="424" type="line"/>
    </contour>
  </outline>
</glyph>
<glyph name="ellipsis" format="1">
  <advance width="687"/>
  <unicode hex="2026"/>
  <outline>
    <contour>
      <point x="418" y="0" type="line"/>
      <point x="270" y="0" type="line"/>
      <point x="270" y="162" type="line"/>
      <point x="418" y="162" type="line"/>
    </contour>
    <contour>
      <point x="172" y="0" type="line"/>
      <point x="24" y="0" type="line"/>
      <point x="24" y="162" type="line"/>
      <point x="172" y="162" type="line"/>
    </contour>
    <contour>
      <point x="663" y="0" type="line"/>
      <point x="515" y="0" type="line"/>
      <point x="515" y="162" type="line"/>
      <point x="663" y="162" type="line"/>
    </contour>
  </outline>
</glyph>
<glyph name="guilsinglleft" format="1">
  <advance width="332"/>
  <unicode hex="2039"/>
  <outline>
    <contour>
      <point x="320" y="64" type="line"/>
      <point x="148" y="64" type="line"/>
      <point x="11" y="281" type="line"/>
      <point x="148" y="494" type="line"/>
      <point x="320" y="494" type="line"/>
      <point x="185" y="282" type="line"/>
    </contour>
  </outline>
</glyph>
<glyph name="guilsinglright" format="1">
  <advance width="332"/>
  <unicode hex="203A"/>
  <outline>
    <contour>
      <point x="321" y="281" type="line"/>
      <point x="184" y="64" type="line"/>
      <point x="12" y="64" type="line"/>
      <point x="147" y="282" type="line"/>
      <point x="12" y="494" type="line"/>
      <point x="184" y="494" type="line"/>
    </contour>
  </outline>
</glyph>
<glyph name="uni2070" format="1">
  <advance width="349"/>
  <unicode hex="2070"/>
  <outline>
    <contour>
      <point x="332" y="449" type="qcurve"/>
      <point x="332" y="347"/>
      <point x="264" y="264"/>
      <point x="175" y="264" type="qcurve"/>
      <point x="81" y="264"/>
      <point x="17" y="340"/>
      <point x="17" y="449" type="qcurve"/>
      <point x="17" y="549"/>
      <point x="86" y="633"/>
      <point x="175" y="633" type="qcurve"/>
      <point x="267" y="633"/>
      <point x="332" y="557"/>
    </contour>
    <contour>
      <point x="213" y="449" type="qcurve"/>
      <point x="213" y="499"/>
      <point x="200" y="528"/>
      <point x="175" y="528" type="qcurve"/>
      <point x="149" y="528"/>
      <point x="136" y="500"/>
      <point x="136" y="449" type="qcurve"/>
      <point x="136" y="399"/>
      <point x="150" y="371"/>
      <point x="175" y="371" type="qcurve"/>
      <point x="200" y="371"/>
      <point x="213" y="398"/>
    </contour>
  </outline>
</glyph>
<glyph name="uni2074" format="1">
  <advance width="325"/>
  <unicode hex="2074"/>
  <outline>
    <contour>
      <point x="314" y="442" type="line"/>
      <point x="314" y="341" type="line"/>
      <point x="279" y="341" type="line"/>
      <point x="279" y="270" type="line"/>
      <point x="161" y="270" type="line"/>
      <point x="161" y="341" type="line"/>
      <point x="14" y="341" type="line"/>
      <point x="14" y="442" type="line"/>
      <point x="55" y="627" type="line"/>
      <point x="166" y="627" type="line"/>
      <point x="131" y="442" type="line"/>
      <point x="167" y="442" type="line"/>
      <point x="174" y="565" type="line"/>
      <point x="279" y="565" type="line"/>
      <point x="279" y="442" type="line"/>
    </contour>
  </outline>
</glyph>
<glyph name="uni2075" format="1">
  <advance width="280"/>
  <unicode hex="2075"/>
  <outline>
    <contour>
      <point x="267" y="381" type="qcurve" smooth="yes"/>
      <point x="267" y="325"/>
      <point x="199" y="264"/>
      <point x="139" y="264" type="qcurve"/>
      <point x="98" y="264"/>
      <point x="33" y="270"/>
      <point x="17" y="276" type="qcurve"/>
      <point x="17" y="373" type="line"/>
      <point x="38" y="370"/>
      <point x="80" y="367"/>
      <point x="111" y="367" type="qcurve"/>
      <point x="132" y="367"/>
      <point x="151" y="375"/>
      <point x="151" y="384" type="qcurve" smooth="yes"/>
      <point x="151" y="397"/>
      <point x="134" y="405"/>
      <point x="109" y="405" type="qcurve" smooth="yes"/>
      <point x="85" y="405"/>
      <point x="46" y="403"/>
      <point x="31" y="401" type="qcurve"/>
      <point x="31" y="627" type="line"/>
      <point x="243" y="627" type="line"/>
      <point x="243" y="526" type="line"/>
      <point x="146" y="526" type="line"/>
      <point x="146" y="491" type="line"/>
      <point x="152" y="492"/>
      <point x="165" y="492"/>
      <point x="177" y="492" type="qcurve" smooth="yes"/>
      <point x="224" y="492"/>
      <point x="267" y="438"/>
    </contour>
  </outline>
</glyph>
<glyph name="uni2076" format="1">
  <advance width="310"/>
  <unicode hex="2076"/>
  <outline>
    <contour>
      <point x="166" y="264" type="qcurve"/>
      <point x="81" y="264"/>
      <point x="16" y="340"/>
      <point x="16" y="439" type="qcurve"/>
      <point x="16" y="538"/>
      <point x="106" y="633"/>
      <point x="200" y="633" type="qcurve"/>
      <point x="221" y="633"/>
      <point x="259" y="630"/>
      <point x="267" y="627" type="qcurve"/>
      <point x="267" y="534" type="line"/>
      <point x="257" y="536"/>
      <point x="221" y="538"/>
      <point x="203" y="538" type="qcurve"/>
      <point x="168" y="538"/>
      <point x="139" y="519"/>
      <point x="133" y="494" type="qcurve"/>
      <point x="153" y="502"/>
      <point x="185" y="509"/>
      <point x="202" y="509" type="qcurve"/>
      <point x="252" y="509"/>
      <point x="300" y="452"/>
      <point x="300" y="393" type="qcurve"/>
      <point x="300" y="332"/>
      <point x="229" y="264"/>
    </contour>
    <contour>
      <point x="193" y="389" type="qcurve"/>
      <point x="193" y="407"/>
      <point x="181" y="420"/>
      <point x="162" y="420" type="qcurve"/>
      <point x="155" y="420"/>
      <point x="137" y="418"/>
      <point x="129" y="416" type="qcurve"/>
      <point x="130" y="379"/>
      <point x="142" y="359"/>
      <point x="163" y="359" type="qcurve"/>
      <point x="178" y="359"/>
      <point x="193" y="374"/>
    </contour>
  </outline>
</glyph>
<glyph name="uni2078" format="1">
  <advance width="315"/>
  <unicode hex="2078"/>
  <outline>
    <contour>
      <point x="300" y="367" type="qcurve"/>
      <point x="300" y="313"/>
      <point x="232" y="264"/>
      <point x="157" y="264" type="qcurve"/>
      <point x="79" y="264"/>
      <point x="15" y="312"/>
      <point x="15" y="370" type="qcurve"/>
      <point x="15" y="401"/>
      <point x="45" y="446"/>
      <point x="73" y="455" type="qcurve"/>
      <point x="46" y="466"/>
      <point x="21" y="506"/>
      <point x="22" y="537" type="qcurve"/>
      <point x="22" y="588"/>
      <point x="86" y="633"/>
      <point x="157" y="633" type="qcurve"/>
      <point x="232" y="633"/>
      <point x="293" y="590"/>
      <point x="293" y="536" type="qcurve"/>
      <point x="293" y="505"/>
      <point x="267" y="466"/>
      <point x="241" y="455" type="qcurve"/>
      <point x="269" y="446"/>
      <point x="300" y="400"/>
    </contour>
    <contour>
      <point x="191" y="518" type="qcurve"/>
      <point x="191" y="531"/>
      <point x="176" y="541"/>
      <point x="157" y="541" type="qcurve"/>
      <point x="139" y="541"/>
      <point x="125" y="532"/>
      <point x="125" y="519" type="qcurve"/>
      <point x="125" y="505"/>
      <point x="139" y="494"/>
      <point x="157" y="494" type="qcurve"/>
      <point x="176" y="494"/>
      <point x="191" y="505"/>
    </contour>
    <contour>
      <point x="192" y="384" type="qcurve"/>
      <point x="192" y="396"/>
      <point x="176" y="407"/>
      <point x="157" y="407" type="qcurve"/>
      <point x="138" y="407"/>
      <point x="123" y="397"/>
      <point x="123" y="385" type="qcurve"/>
      <point x="123" y="370"/>
      <point x="138" y="359"/>
      <point x="157" y="359" type="qcurve"/>
      <point x="176" y="359"/>
      <point x="192" y="370"/>
    </contour>
  </outline>
</glyph>
<glyph name="uni2079" format="1">
  <advance width="312"/>
  <unicode hex="2079"/>
  <outline>
    <contour>
      <point x="148" y="633" type="qcurve"/>
      <point x="232" y="633"/>
      <point x="296" y="556"/>
      <point x="296" y="457" type="qcurve"/>
      <point x="296" y="359"/>
      <point x="205" y="264"/>
      <point x="111" y="264" type="qcurve"/>
      <point x="92" y="264"/>
      <point x="50" y="267"/>
      <point x="42" y="269" type="qcurve"/>
      <point x="42" y="364" type="line"/>
      <point x="57" y="362"/>
      <point x="90" y="360"/>
      <point x="108" y="360" type="qcurve"/>
      <point x="143" y="360"/>
      <point x="172" y="379"/>
      <point x="178" y="403" type="qcurve"/>
      <point x="159" y="395"/>
      <point x="127" y="388"/>
      <point x="111" y="388" type="qcurve"/>
      <point x="60" y="388"/>
      <point x="11" y="445"/>
      <point x="11" y="503" type="qcurve"/>
      <point x="11" y="565"/>
      <point x="83" y="633"/>
    </contour>
    <contour>
      <point x="149" y="537" type="qcurve"/>
      <point x="133" y="537"/>
      <point x="119" y="523"/>
      <point x="119" y="507" type="qcurve"/>
      <point x="119" y="489"/>
      <point x="130" y="476"/>
      <point x="150" y="476" type="qcurve"/>
      <point x="158" y="476"/>
      <point x="172" y="478"/>
      <point x="183" y="481" type="qcurve"/>
      <point x="182" y="518"/>
      <point x="170" y="537"/>
    </contour>
  </outline>
</glyph>
